%FSLAX24Y24*%
%MOIN*%
G70*
G01*
G75*
G04 Layer_Color=65535*
%ADD10R,0.0400X0.0500*%
%ADD11R,0.0360X0.0500*%
%ADD12R,0.0360X0.0360*%
%ADD13R,0.0500X0.0400*%
%ADD14R,0.0800X0.0240*%
%ADD15O,0.0800X0.0240*%
%ADD16R,0.0500X0.0360*%
%ADD17R,0.0360X0.0360*%
%ADD18R,0.0590X0.0790*%
%ADD19R,0.1500X0.0790*%
G04:AMPARAMS|DCode=20|XSize=40mil|YSize=50mil|CornerRadius=0mil|HoleSize=0mil|Usage=FLASHONLY|Rotation=135.000|XOffset=0mil|YOffset=0mil|HoleType=Round|Shape=Rectangle|*
%AMROTATEDRECTD20*
4,1,4,0.0318,0.0035,-0.0035,-0.0318,-0.0318,-0.0035,0.0035,0.0318,0.0318,0.0035,0.0*
%
%ADD20ROTATEDRECTD20*%

%ADD21P,0.0424X4X360.0*%
G04:AMPARAMS|DCode=22|XSize=40mil|YSize=50mil|CornerRadius=0mil|HoleSize=0mil|Usage=FLASHONLY|Rotation=225.000|XOffset=0mil|YOffset=0mil|HoleType=Round|Shape=Rectangle|*
%AMROTATEDRECTD22*
4,1,4,-0.0035,0.0318,0.0318,-0.0035,0.0035,-0.0318,-0.0318,0.0035,-0.0035,0.0318,0.0*
%
%ADD22ROTATEDRECTD22*%

%ADD23O,0.1181X0.0472*%
%ADD24R,0.2559X0.2323*%
G04:AMPARAMS|DCode=25|XSize=21.7mil|YSize=65mil|CornerRadius=0mil|HoleSize=0mil|Usage=FLASHONLY|Rotation=315.000|XOffset=0mil|YOffset=0mil|HoleType=Round|Shape=Round|*
%AMOVALD25*
21,1,0.0433,0.0217,0.0000,0.0000,45.0*
1,1,0.0217,-0.0153,-0.0153*
1,1,0.0217,0.0153,0.0153*
%
%ADD25OVALD25*%

G04:AMPARAMS|DCode=26|XSize=21.7mil|YSize=65mil|CornerRadius=0mil|HoleSize=0mil|Usage=FLASHONLY|Rotation=225.000|XOffset=0mil|YOffset=0mil|HoleType=Round|Shape=Round|*
%AMOVALD26*
21,1,0.0433,0.0217,0.0000,0.0000,315.0*
1,1,0.0217,-0.0153,0.0153*
1,1,0.0217,0.0153,-0.0153*
%
%ADD26OVALD26*%

%ADD27R,0.0335X0.0157*%
%ADD28C,0.0200*%
%ADD29C,0.0400*%
%ADD30C,0.0300*%
%ADD31C,0.0600*%
%ADD32C,0.0800*%
%ADD33C,0.0150*%
%ADD34C,0.0500*%
%ADD35C,0.1500*%
%ADD36C,0.2000*%
%ADD37C,0.0100*%
%ADD38R,0.2362X0.5118*%
%ADD39R,0.4331X0.6299*%
G04:AMPARAMS|DCode=40|XSize=70mil|YSize=70mil|CornerRadius=17.5mil|HoleSize=0mil|Usage=FLASHONLY|Rotation=0.000|XOffset=0mil|YOffset=0mil|HoleType=Round|Shape=RoundedRectangle|*
%AMROUNDEDRECTD40*
21,1,0.0700,0.0350,0,0,0.0*
21,1,0.0350,0.0700,0,0,0.0*
1,1,0.0350,0.0175,-0.0175*
1,1,0.0350,-0.0175,-0.0175*
1,1,0.0350,-0.0175,0.0175*
1,1,0.0350,0.0175,0.0175*
%
%ADD40ROUNDEDRECTD40*%
%ADD41R,0.0700X0.0700*%
%ADD42C,0.1575*%
G04:AMPARAMS|DCode=43|XSize=98.4mil|YSize=98.4mil|CornerRadius=24.6mil|HoleSize=0mil|Usage=FLASHONLY|Rotation=270.000|XOffset=0mil|YOffset=0mil|HoleType=Round|Shape=RoundedRectangle|*
%AMROUNDEDRECTD43*
21,1,0.0984,0.0492,0,0,270.0*
21,1,0.0492,0.0984,0,0,270.0*
1,1,0.0492,-0.0246,-0.0246*
1,1,0.0492,-0.0246,0.0246*
1,1,0.0492,0.0246,0.0246*
1,1,0.0492,0.0246,-0.0246*
%
%ADD43ROUNDEDRECTD43*%
%ADD44C,0.0591*%
%ADD45R,0.0591X0.0591*%
%ADD46C,0.0600*%
%ADD47C,0.0500*%
%ADD48R,0.6693X0.5118*%
%ADD49C,0.0098*%
%ADD50C,0.0236*%
%ADD51C,0.0050*%
%ADD52C,0.0040*%
%ADD53C,0.0079*%
%ADD54R,0.0840X0.0380*%
D37*
X27362Y9582D02*
G03*
X28671Y10771I97J1209D01*
G01*
X26182Y13253D02*
G03*
X24872Y12064I-97J-1209D01*
G01*
X30236Y-1811D02*
X35118D01*
Y2087D01*
X30236Y-1811D02*
Y2087D01*
X20000Y-1811D02*
X24882D01*
Y2087D01*
X20000Y-1811D02*
Y2087D01*
X25118Y-1811D02*
X30000D01*
Y2087D01*
X25118Y-1811D02*
Y2087D01*
X9764Y-1811D02*
X14646D01*
Y2087D01*
X9764Y-1811D02*
Y2087D01*
X14882Y-1811D02*
X19764D01*
Y2087D01*
X14882Y-1811D02*
Y2087D01*
X25118Y30157D02*
X30000D01*
X25118Y26260D02*
Y30157D01*
X30000Y26260D02*
Y30157D01*
X20000D02*
X24882D01*
X20000Y26260D02*
Y30157D01*
X24882Y26260D02*
Y30157D01*
X14882D02*
X19764D01*
X14882Y26260D02*
Y30157D01*
X19764Y26260D02*
Y30157D01*
X4646D02*
X9528D01*
X4646Y26260D02*
Y30157D01*
X9528Y26260D02*
Y30157D01*
X9764D02*
X14646D01*
X9764Y26260D02*
Y30157D01*
X14646Y26260D02*
Y30157D01*
X30236D02*
X35118D01*
X30236Y26260D02*
Y30157D01*
X35118Y26260D02*
Y30157D01*
X26189Y13253D02*
X28671Y10771D01*
X24872Y12064D02*
X27358Y9578D01*
X2197Y9547D02*
Y10147D01*
X2497D01*
X2597Y10047D01*
Y9847D01*
X2497Y9747D01*
X2197D01*
X2397D02*
X2597Y9547D01*
X2797D02*
X2997D01*
X2897D01*
Y10147D01*
X2797Y10047D01*
X3297D02*
X3397Y10147D01*
X3597D01*
X3697Y10047D01*
Y9947D01*
X3597Y9847D01*
X3497D01*
X3597D01*
X3697Y9747D01*
Y9647D01*
X3597Y9547D01*
X3397D01*
X3297Y9647D01*
X3197Y8427D02*
Y8827D01*
X3097Y8927D01*
X2897D01*
X2797Y8827D01*
Y8427D01*
X2897Y8327D01*
X3097D01*
X2997Y8527D02*
X3197Y8327D01*
X3097D02*
X3197Y8427D01*
X3397Y8827D02*
X3497Y8927D01*
X3697D01*
X3797Y8827D01*
Y8727D01*
X3697Y8627D01*
X3597D01*
X3697D01*
X3797Y8527D01*
Y8427D01*
X3697Y8327D01*
X3497D01*
X3397Y8427D01*
X6207Y9677D02*
X5608D01*
Y9977D01*
X5708Y10077D01*
X5908D01*
X6008Y9977D01*
Y9677D01*
Y9877D02*
X6207Y10077D01*
Y10277D02*
Y10477D01*
Y10377D01*
X5608D01*
X5708Y10277D01*
X6207Y11077D02*
X5608D01*
X5908Y10777D01*
Y11177D01*
X7327Y8277D02*
X7227Y8377D01*
X7027D01*
X6927Y8277D01*
Y7877D01*
X7027Y7777D01*
X7227D01*
X7327Y7877D01*
X7527Y7777D02*
X7727D01*
X7627D01*
Y8377D01*
X7527Y8277D01*
X8027Y7777D02*
X8227D01*
X8127D01*
Y8377D01*
X8027Y8277D01*
X617Y7577D02*
Y8177D01*
X917D01*
X1017Y8077D01*
Y7877D01*
X917Y7777D01*
X617D01*
X817D02*
X1017Y7577D01*
X1217D02*
X1417D01*
X1317D01*
Y8177D01*
X1217Y8077D01*
X1717D02*
X1817Y8177D01*
X2017D01*
X2117Y8077D01*
Y7977D01*
X2017Y7877D01*
X2117Y7777D01*
Y7677D01*
X2017Y7577D01*
X1817D01*
X1717Y7677D01*
Y7777D01*
X1817Y7877D01*
X1717Y7977D01*
Y8077D01*
X1817Y7877D02*
X2017D01*
X4297Y5407D02*
Y4907D01*
X4397Y4807D01*
X4597D01*
X4697Y4907D01*
Y5407D01*
X4897Y5307D02*
X4997Y5407D01*
X5197D01*
X5297Y5307D01*
Y5207D01*
X5197Y5107D01*
X5097D01*
X5197D01*
X5297Y5007D01*
Y4907D01*
X5197Y4807D01*
X4997D01*
X4897Y4907D01*
X1587Y6527D02*
Y6927D01*
X1487Y7027D01*
X1287D01*
X1187Y6927D01*
Y6527D01*
X1287Y6427D01*
X1487D01*
X1387Y6627D02*
X1587Y6427D01*
X1487D02*
X1587Y6527D01*
X2187Y7027D02*
X1787D01*
Y6727D01*
X1987Y6827D01*
X2087D01*
X2187Y6727D01*
Y6527D01*
X2087Y6427D01*
X1887D01*
X1787Y6527D01*
X627Y5207D02*
Y5807D01*
X927D01*
X1027Y5707D01*
Y5507D01*
X927Y5407D01*
X627D01*
X827D02*
X1027Y5207D01*
X1227D02*
X1427D01*
X1327D01*
Y5807D01*
X1227Y5707D01*
X1727Y5807D02*
X2127D01*
Y5707D01*
X1727Y5307D01*
Y5207D01*
X11368Y6607D02*
X10968D01*
X10868Y6507D01*
Y6307D01*
X10968Y6207D01*
X11368D01*
X11467Y6307D01*
Y6507D01*
X11268Y6407D02*
X11467Y6607D01*
Y6507D02*
X11368Y6607D01*
X11467Y7107D02*
X10868D01*
X11168Y6807D01*
Y7207D01*
X8957Y7707D02*
X8358D01*
Y8007D01*
X8458Y8107D01*
X8658D01*
X8758Y8007D01*
Y7707D01*
Y7907D02*
X8957Y8107D01*
Y8307D02*
Y8507D01*
Y8407D01*
X8358D01*
X8458Y8307D01*
X8358Y9207D02*
Y8807D01*
X8658D01*
X8558Y9007D01*
Y9107D01*
X8658Y9207D01*
X8858D01*
X8957Y9107D01*
Y8907D01*
X8858Y8807D01*
X10877Y7577D02*
Y8177D01*
X11177D01*
X11277Y8077D01*
Y7877D01*
X11177Y7777D01*
X10877D01*
X11077D02*
X11277Y7577D01*
X11477D02*
X11677D01*
X11577D01*
Y8177D01*
X11477Y8077D01*
X12377Y8177D02*
X12177Y8077D01*
X11977Y7877D01*
Y7677D01*
X12077Y7577D01*
X12277D01*
X12377Y7677D01*
Y7777D01*
X12277Y7877D01*
X11977D01*
X7737Y3257D02*
Y3657D01*
X7637Y3757D01*
X7437D01*
X7337Y3657D01*
Y3257D01*
X7437Y3157D01*
X7637D01*
X7537Y3357D02*
X7737Y3157D01*
X7637D02*
X7737Y3257D01*
X8337Y3757D02*
X8137Y3657D01*
X7937Y3457D01*
Y3257D01*
X8037Y3157D01*
X8237D01*
X8337Y3257D01*
Y3357D01*
X8237Y3457D01*
X7937D01*
X9357Y2207D02*
X8758D01*
Y2507D01*
X8858Y2607D01*
X9058D01*
X9158Y2507D01*
Y2207D01*
Y2407D02*
X9357Y2607D01*
Y2807D02*
Y3007D01*
Y2907D01*
X8758D01*
X8858Y2807D01*
X9258Y3307D02*
X9357Y3407D01*
Y3607D01*
X9258Y3707D01*
X8858D01*
X8758Y3607D01*
Y3407D01*
X8858Y3307D01*
X8958D01*
X9058Y3407D01*
Y3707D01*
X6997Y2107D02*
X6398D01*
Y2407D01*
X6498Y2507D01*
X6698D01*
X6798Y2407D01*
Y2107D01*
Y2307D02*
X6997Y2507D01*
Y3107D02*
Y2707D01*
X6598Y3107D01*
X6498D01*
X6398Y3007D01*
Y2807D01*
X6498Y2707D01*
Y3307D02*
X6398Y3407D01*
Y3607D01*
X6498Y3707D01*
X6898D01*
X6997Y3607D01*
Y3407D01*
X6898Y3307D01*
X6498D01*
X14567Y6899D02*
Y6499D01*
X14767Y6299D01*
X14967Y6499D01*
Y6899D01*
X15167Y6299D02*
Y6899D01*
X15467D01*
X15567Y6799D01*
Y6599D01*
X15467Y6499D01*
X15167D01*
X15367D02*
X15567Y6299D01*
X16166D02*
X15767D01*
X16166Y6699D01*
Y6799D01*
X16066Y6899D01*
X15867D01*
X15767Y6799D01*
X23471Y4401D02*
Y4543D01*
X23329Y4684D01*
X23188D01*
X22905Y4401D01*
Y4260D01*
X23047Y4119D01*
X23188D01*
X23683Y4331D02*
X23966Y4048D01*
X23895Y3977D01*
X23329Y3977D01*
X23259Y3907D01*
X23865Y5583D02*
Y5724D01*
X23723Y5865D01*
X23582D01*
X23299Y5583D01*
Y5441D01*
X23440Y5300D01*
X23582D01*
X24359Y5229D02*
X24077Y5512D01*
X23865Y5300D01*
X24077Y5229D01*
X24147Y5158D01*
Y5017D01*
X24006Y4876D01*
X23865D01*
X23723Y5017D01*
Y5158D01*
X32027Y3037D02*
Y2437D01*
Y2637D01*
X32427Y3037D01*
X32127Y2737D01*
X32427Y2437D01*
X32627D02*
X32827D01*
X32727D01*
Y3037D01*
X32627Y2937D01*
X33127Y2437D02*
X33327D01*
X33227D01*
Y3037D01*
X33127Y2937D01*
X21687Y3037D02*
Y2437D01*
Y2637D01*
X22087Y3037D01*
X21787Y2737D01*
X22087Y2437D01*
X22287D02*
X22487D01*
X22387D01*
Y3037D01*
X22287Y2937D01*
X22787D02*
X22887Y3037D01*
X23087D01*
X23187Y2937D01*
Y2537D01*
X23087Y2437D01*
X22887D01*
X22787Y2537D01*
Y2937D01*
X27057Y3037D02*
Y2437D01*
Y2637D01*
X27457Y3037D01*
X27157Y2737D01*
X27457Y2437D01*
X27657Y2537D02*
X27757Y2437D01*
X27957D01*
X28057Y2537D01*
Y2937D01*
X27957Y3037D01*
X27757D01*
X27657Y2937D01*
Y2837D01*
X27757Y2737D01*
X28057D01*
X11707Y3037D02*
Y2437D01*
Y2637D01*
X12107Y3037D01*
X11807Y2737D01*
X12107Y2437D01*
X12707Y3037D02*
X12507Y2937D01*
X12307Y2737D01*
Y2537D01*
X12407Y2437D01*
X12607D01*
X12707Y2537D01*
Y2637D01*
X12607Y2737D01*
X12307D01*
X16827Y3037D02*
Y2437D01*
Y2637D01*
X17227Y3037D01*
X16927Y2737D01*
X17227Y2437D01*
X17727D02*
Y3037D01*
X17427Y2737D01*
X17827D01*
X27802Y13850D02*
Y13992D01*
X27660Y14133D01*
X27519D01*
X27236Y13850D01*
Y13709D01*
X27377Y13567D01*
X27519D01*
X27872Y13073D02*
X27589Y13355D01*
X28155D01*
X28226Y13426D01*
Y13567D01*
X28084Y13709D01*
X27943D01*
X28983Y12669D02*
Y12810D01*
X28841Y12952D01*
X28700D01*
X28417Y12669D01*
Y12528D01*
X28559Y12386D01*
X28700D01*
X28771Y12174D02*
X28912Y12033D01*
X28841Y12104D01*
X29265Y12528D01*
X29124D01*
X29851Y10479D02*
X29709D01*
X29568Y10337D01*
Y10196D01*
X29851Y9913D01*
X29992D01*
X30133Y10055D01*
Y10196D01*
X29992Y10620D02*
Y10761D01*
X30133Y10903D01*
X30275D01*
X30345Y10832D01*
Y10691D01*
X30275Y10620D01*
X30345Y10691D01*
X30487D01*
X30557Y10620D01*
Y10479D01*
X30416Y10337D01*
X30275D01*
X31814Y9817D02*
Y10217D01*
X32014D01*
X32080Y10151D01*
Y10017D01*
X32014Y9951D01*
X31814D01*
X31947D02*
X32080Y9817D01*
X32480Y10217D02*
X32347Y10151D01*
X32214Y10017D01*
Y9884D01*
X32280Y9817D01*
X32414D01*
X32480Y9884D01*
Y9951D01*
X32414Y10017D01*
X32214D01*
X31814Y8817D02*
Y9217D01*
X32014D01*
X32080Y9151D01*
Y9017D01*
X32014Y8951D01*
X31814D01*
X31947D02*
X32080Y8817D01*
X32214Y9217D02*
X32480D01*
Y9151D01*
X32214Y8884D01*
Y8817D01*
X31814Y7817D02*
Y8217D01*
X32014D01*
X32080Y8151D01*
Y8017D01*
X32014Y7951D01*
X31814D01*
X31947D02*
X32080Y7817D01*
X32214Y8151D02*
X32280Y8217D01*
X32414D01*
X32480Y8151D01*
Y8084D01*
X32414Y8017D01*
X32480Y7951D01*
Y7884D01*
X32414Y7817D01*
X32280D01*
X32214Y7884D01*
Y7951D01*
X32280Y8017D01*
X32214Y8084D01*
Y8151D01*
X32280Y8017D02*
X32414D01*
X31814Y6817D02*
Y7217D01*
X32014D01*
X32080Y7151D01*
Y7017D01*
X32014Y6951D01*
X31814D01*
X31947D02*
X32080Y6817D01*
X32214Y6884D02*
X32280Y6817D01*
X32414D01*
X32480Y6884D01*
Y7151D01*
X32414Y7217D01*
X32280D01*
X32214Y7151D01*
Y7084D01*
X32280Y7017D01*
X32480D01*
X31474Y10817D02*
Y11217D01*
X31674D01*
X31740Y11151D01*
Y11017D01*
X31674Y10951D01*
X31474D01*
X31607D02*
X31740Y10817D01*
X31874D02*
X32007D01*
X31940D01*
Y11217D01*
X31874Y11151D01*
X32207D02*
X32274Y11217D01*
X32407D01*
X32473Y11151D01*
Y10884D01*
X32407Y10817D01*
X32274D01*
X32207Y10884D01*
Y11151D01*
X35039Y15954D02*
Y15554D01*
X35239Y15354D01*
X35439Y15554D01*
Y15954D01*
X35639Y15354D02*
Y15954D01*
X35939D01*
X36039Y15854D01*
Y15654D01*
X35939Y15554D01*
X35639D01*
X35839D02*
X36039Y15354D01*
X36239D02*
X36439D01*
X36339D01*
Y15954D01*
X36239Y15854D01*
X27057Y25907D02*
Y25307D01*
Y25507D01*
X27457Y25907D01*
X27157Y25607D01*
X27457Y25307D01*
X27657Y25907D02*
X28057D01*
Y25807D01*
X27657Y25407D01*
Y25307D01*
X21937Y25907D02*
Y25307D01*
Y25507D01*
X22337Y25907D01*
X22037Y25607D01*
X22337Y25307D01*
X22937Y25907D02*
X22537D01*
Y25607D01*
X22737Y25707D01*
X22837D01*
X22937Y25607D01*
Y25407D01*
X22837Y25307D01*
X22637D01*
X22537Y25407D01*
X16827Y25907D02*
Y25307D01*
Y25507D01*
X17227Y25907D01*
X16927Y25607D01*
X17227Y25307D01*
X17427Y25807D02*
X17527Y25907D01*
X17727D01*
X17827Y25807D01*
Y25707D01*
X17727Y25607D01*
X17627D01*
X17727D01*
X17827Y25507D01*
Y25407D01*
X17727Y25307D01*
X17527D01*
X17427Y25407D01*
X6587Y25907D02*
Y25307D01*
Y25507D01*
X6987Y25907D01*
X6687Y25607D01*
X6987Y25307D01*
X7587D02*
X7187D01*
X7587Y25707D01*
Y25807D01*
X7487Y25907D01*
X7287D01*
X7187Y25807D01*
X11807Y25907D02*
Y25307D01*
Y25507D01*
X12207Y25907D01*
X11907Y25607D01*
X12207Y25307D01*
X12407D02*
X12607D01*
X12507D01*
Y25907D01*
X12407Y25807D01*
X32177Y25907D02*
Y25307D01*
Y25507D01*
X32577Y25907D01*
X32277Y25607D01*
X32577Y25307D01*
X32777Y25807D02*
X32877Y25907D01*
X33077D01*
X33177Y25807D01*
Y25707D01*
X33077Y25607D01*
X33177Y25507D01*
Y25407D01*
X33077Y25307D01*
X32877D01*
X32777Y25407D01*
Y25507D01*
X32877Y25607D01*
X32777Y25707D01*
Y25807D01*
X32877Y25607D02*
X33077D01*
X10277Y20567D02*
Y21167D01*
X10577D01*
X10677Y21067D01*
Y20867D01*
X10577Y20767D01*
X10277D01*
X10477D02*
X10677Y20567D01*
X10877D02*
X11077D01*
X10977D01*
Y21167D01*
X10877Y21067D01*
X11377Y20567D02*
X11577D01*
X11477D01*
Y21167D01*
X11377Y21067D01*
X8067Y24617D02*
Y25017D01*
X7967Y25117D01*
X7767D01*
X7667Y25017D01*
Y24617D01*
X7767Y24517D01*
X7967D01*
X7867Y24717D02*
X8067Y24517D01*
X7967D02*
X8067Y24617D01*
X8267Y24517D02*
X8467D01*
X8367D01*
Y25117D01*
X8267Y25017D01*
X11407Y18517D02*
X11307Y18617D01*
X11107D01*
X11007Y18517D01*
Y18117D01*
X11107Y18017D01*
X11307D01*
X11407Y18117D01*
X11607Y18517D02*
X11707Y18617D01*
X11907D01*
X12007Y18517D01*
Y18417D01*
X11907Y18317D01*
X12007Y18217D01*
Y18117D01*
X11907Y18017D01*
X11707D01*
X11607Y18117D01*
Y18217D01*
X11707Y18317D01*
X11607Y18417D01*
Y18517D01*
X11707Y18317D02*
X11907D01*
X14547Y20287D02*
Y19787D01*
X14647Y19687D01*
X14847D01*
X14947Y19787D01*
Y20287D01*
X15547Y19687D02*
X15147D01*
X15547Y20087D01*
Y20187D01*
X15447Y20287D01*
X15247D01*
X15147Y20187D01*
X22158Y12113D02*
Y11613D01*
X22258Y11513D01*
X22458D01*
X22558Y11613D01*
Y12113D01*
X22758Y11513D02*
X22958D01*
X22858D01*
Y12113D01*
X22758Y12013D01*
X9342Y15057D02*
Y15657D01*
X9542Y15457D01*
X9742Y15657D01*
Y15057D01*
X10341D02*
X9941D01*
X10341Y15457D01*
Y15557D01*
X10241Y15657D01*
X10041D01*
X9941Y15557D01*
X27947Y20176D02*
Y20776D01*
X28147Y20576D01*
X28347Y20776D01*
Y20176D01*
X28547D02*
X28747D01*
X28647D01*
Y20776D01*
X28547Y20676D01*
X35261Y13854D02*
Y14454D01*
X35561D01*
X35661Y14354D01*
Y14154D01*
X35561Y14054D01*
X35261D01*
X35861Y13854D02*
X36061D01*
X35961D01*
Y14454D01*
X35861Y14354D01*
X11647Y22997D02*
Y23397D01*
X11547Y23497D01*
X11347D01*
X11247Y23397D01*
Y22997D01*
X11347Y22897D01*
X11547D01*
X11447Y23097D02*
X11647Y22897D01*
X11547D02*
X11647Y22997D01*
X12247Y22897D02*
X11847D01*
X12247Y23297D01*
Y23397D01*
X12147Y23497D01*
X11947D01*
X11847Y23397D01*
X28587Y6478D02*
X28163Y6054D01*
X27951Y6266D01*
Y6407D01*
X28093Y6549D01*
X28234D01*
X28446Y6337D01*
X28305Y6478D02*
Y6761D01*
X28163Y6902D02*
X28022Y7043D01*
X28093Y6973D01*
X27668Y6549D01*
X27810D01*
X27527Y7538D02*
X27810Y7256D01*
X27244D01*
X27174Y7185D01*
Y7043D01*
X27315Y6902D01*
X27456D01*
X24927Y14204D02*
X25327Y13604D01*
Y14204D02*
X24927Y13604D01*
X25527D02*
X25727D01*
X25627D01*
Y14204D01*
X25527Y14104D01*
X37267Y5507D02*
X37167Y5607D01*
X36967D01*
X36867Y5507D01*
Y5107D01*
X36967Y5007D01*
X37167D01*
X37267Y5107D01*
X37767Y5007D02*
Y5607D01*
X37467Y5307D01*
X37867D01*
X24878Y4324D02*
X24778Y4424D01*
X24578D01*
X24478Y4324D01*
Y3925D01*
X24578Y3825D01*
X24778D01*
X24878Y3925D01*
X25478Y4424D02*
X25278Y4324D01*
X25078Y4125D01*
Y3925D01*
X25178Y3825D01*
X25378D01*
X25478Y3925D01*
Y4025D01*
X25378Y4125D01*
X25078D01*
X30784Y16135D02*
X30684Y16235D01*
X30484D01*
X30384Y16135D01*
Y15736D01*
X30484Y15636D01*
X30684D01*
X30784Y15736D01*
X30983Y15636D02*
X31183D01*
X31083D01*
Y16235D01*
X30983Y16135D01*
X31483D02*
X31583Y16235D01*
X31783D01*
X31883Y16135D01*
Y15736D01*
X31783Y15636D01*
X31583D01*
X31483Y15736D01*
Y16135D01*
X13253Y9054D02*
X13153Y9154D01*
X12953D01*
X12853Y9054D01*
Y8654D01*
X12953Y8554D01*
X13153D01*
X13253Y8654D01*
X13453Y8554D02*
X13653D01*
X13553D01*
Y9154D01*
X13453Y9054D01*
X14353Y8554D02*
X13953D01*
X14353Y8954D01*
Y9054D01*
X14253Y9154D01*
X14053D01*
X13953Y9054D01*
D49*
X27228Y8428D02*
G03*
X27228Y8428I-49J0D01*
G01*
X12234Y21496D02*
G03*
X12234Y21496I-49J0D01*
G01*
D50*
X26204Y8268D02*
G03*
X26204Y8268I-118J0D01*
G01*
D51*
X4018Y10193D02*
X5418D01*
X4018Y9493D02*
X5418Y9493D01*
Y10193D01*
X4018Y9493D02*
X4018Y10193D01*
X5556Y7955D02*
Y9355D01*
X6256D02*
X6256Y7955D01*
X5556Y9355D02*
X6256D01*
X5556Y7955D02*
X6256Y7955D01*
X6874Y8705D02*
X6874Y9405D01*
X8274Y8705D02*
Y9405D01*
X6874Y8705D02*
X8274Y8705D01*
X6874Y9405D02*
X8274D01*
X2443Y8224D02*
X3843D01*
X2443Y7524D02*
X3843Y7524D01*
Y8224D01*
X2443Y7524D02*
X2443Y8224D01*
X4224Y7730D02*
X7424D01*
Y5730D02*
Y7730D01*
X4224Y5730D02*
X7424D01*
X4224D02*
Y7730D01*
X2456Y5162D02*
X3856D01*
X2456Y5862D02*
X3856Y5862D01*
X2456Y5162D02*
Y5862D01*
X3856Y5162D02*
X3856Y5862D01*
X8311Y5987D02*
Y7387D01*
X9011D02*
X9011Y5987D01*
X8311Y7387D02*
X9011D01*
X8311Y5987D02*
X9011Y5987D01*
X9149Y7524D02*
X10549D01*
X9149Y8224D02*
X10549Y8224D01*
X9149Y7524D02*
Y8224D01*
X10549Y7524D02*
X10549Y8224D01*
X9405Y4031D02*
Y5431D01*
X8705Y5431D02*
X8705Y4031D01*
X9405D01*
X8705Y5431D02*
X9405Y5431D01*
X7043Y4031D02*
Y5431D01*
X6343Y5431D02*
X6343Y4031D01*
X7043D01*
X6343Y5431D02*
X7043Y5431D01*
X11562Y3512D02*
Y7112D01*
Y3512D02*
X12992D01*
X11562Y7112D02*
X12982D01*
Y7122D01*
X14402Y3512D02*
Y7112D01*
X12972Y3512D02*
X14402D01*
X12982Y7112D02*
X14402D01*
X12982D02*
Y7122D01*
X14242Y7102D02*
X14402Y6942D01*
X14242Y7102D02*
X14282D01*
X14292D01*
X14402Y6992D01*
Y7042D01*
X14342Y7102D02*
X14402Y7042D01*
X14332Y7102D02*
X14342D01*
X21486Y5578D02*
X21981Y6073D01*
X22476Y4588D02*
X22971Y5083D01*
X21486Y5578D02*
X22476Y4588D01*
X21981Y6073D02*
X22971Y5083D01*
X21880Y6759D02*
X22375Y7254D01*
X22870Y5769D02*
X23365Y6264D01*
X21880Y6759D02*
X22870Y5769D01*
X22375Y7254D02*
X23365Y6264D01*
X26840Y12992D02*
X27165Y13317D01*
X27554Y12278D02*
X27880Y12603D01*
X26840Y12992D02*
X27554Y12278D01*
X27165Y13317D02*
X27880Y12603D01*
X28346Y11486D02*
X28672Y11811D01*
X27632Y12200D02*
X27958Y12525D01*
X28672Y11811D01*
X27632Y12200D02*
X28346Y11486D01*
X28179Y8989D02*
X28674Y8494D01*
X29169Y9979D02*
X29664Y9484D01*
X28674Y8494D02*
X29664Y9484D01*
X28179Y8989D02*
X29169Y9979D01*
X33195Y10363D02*
X34595D01*
X33195Y9663D02*
X34595Y9663D01*
Y10363D01*
X33195Y9663D02*
X33195Y10363D01*
Y9363D02*
X34595D01*
X33195Y8663D02*
X34595Y8663D01*
Y9363D01*
X33195Y8663D02*
X33195Y9363D01*
Y8363D02*
X34595D01*
X33195Y7663D02*
X34595Y7663D01*
Y8363D01*
X33195Y7663D02*
X33195Y8363D01*
Y7363D02*
X34595D01*
X33195Y6663D02*
X34595Y6663D01*
Y7363D01*
X33195Y6663D02*
X33195Y7363D01*
Y11363D02*
X34595D01*
X33195Y10663D02*
X34595Y10663D01*
Y11363D01*
X33195Y10663D02*
X33195Y11363D01*
X34925Y12213D02*
Y15813D01*
X33495D02*
X34925D01*
X33505Y12213D02*
X34925D01*
X33505Y12203D02*
Y12213D01*
X32085D02*
Y15813D01*
X33515D01*
X32085Y12213D02*
X33505D01*
Y12203D02*
Y12213D01*
X32085Y12383D02*
X32245Y12223D01*
X32205D02*
X32245D01*
X32195D02*
X32205D01*
X32085Y12333D02*
X32195Y12223D01*
X32085Y12283D02*
Y12333D01*
Y12283D02*
X32145Y12223D01*
X32155D01*
X11905Y20516D02*
X13305D01*
X11905Y21216D02*
X13305Y21216D01*
X11905Y20516D02*
Y21216D01*
X13305Y20516D02*
X13305Y21216D01*
X10443Y21647D02*
X10543Y21747D01*
X5593Y21647D02*
Y24197D01*
Y21647D02*
X10543D01*
Y24197D01*
X5593D02*
X10543D01*
X8967Y21909D02*
X9193D01*
X8967Y22185D02*
X9193D01*
X8967Y21673D02*
Y24193D01*
Y23957D02*
X9193D01*
X8967Y23681D02*
X9193D01*
X8967Y23071D02*
X9360D01*
X8967Y22795D02*
X9360D01*
Y23071D01*
X8967Y21909D02*
X9193D01*
X8967Y22185D02*
X9193D01*
X10811Y18941D02*
X10811Y19641D01*
X12211Y18941D02*
Y19641D01*
X10811Y18941D02*
X12211Y18941D01*
X10811Y19641D02*
X12211D01*
X16643Y20616D02*
Y24116D01*
X13443D02*
X16643D01*
X13443Y20616D02*
Y24116D01*
Y20616D02*
X16643D01*
X27057Y6903D02*
X28047Y5913D01*
X26562Y6408D02*
X27552Y5418D01*
X28047Y5913D01*
X26562Y6408D02*
X27057Y6903D01*
X12780Y7524D02*
X12780Y8224D01*
X14180Y7524D02*
Y8224D01*
X12780Y7524D02*
X14180Y7524D01*
X12780Y8224D02*
X14180D01*
X31709Y14611D02*
X31709Y15311D01*
X30309Y14611D02*
Y15311D01*
X31709Y15311D01*
X30309Y14611D02*
X31709D01*
X25803Y2800D02*
X25803Y3500D01*
X24403Y2800D02*
Y3500D01*
X25803Y3500D01*
X24403Y2800D02*
X25803D01*
X36795Y3981D02*
X36795Y4681D01*
X38195Y3981D02*
Y4681D01*
X36795Y3981D02*
X38195Y3981D01*
X36795Y4681D02*
X38195D01*
D52*
X5228Y9304D02*
X5238D01*
X5368Y9144D02*
Y9164D01*
Y9154D02*
Y9304D01*
X5268D02*
X5368D01*
X4118Y7954D02*
X5368D01*
Y9304D01*
X4118D02*
X5368D01*
X4118Y7954D02*
Y9304D01*
X2636Y6050D02*
X2646D01*
X2506Y6190D02*
Y6210D01*
Y6050D02*
Y6200D01*
Y6050D02*
X2606D01*
X2506Y7400D02*
X3756D01*
X2506Y6050D02*
Y7400D01*
Y6050D02*
X3756D01*
Y7400D01*
X9200Y7197D02*
Y7207D01*
X9340Y7337D02*
X9360D01*
X9200D02*
X9350D01*
X9200Y7237D02*
Y7337D01*
X10550Y6087D02*
Y7337D01*
X9200D02*
X10550D01*
X9200Y6087D02*
Y7337D01*
Y6087D02*
X10550D01*
X8517Y4211D02*
Y4221D01*
X8357Y4081D02*
X8377D01*
X8367D02*
X8517D01*
Y4181D01*
X7167Y4081D02*
Y5331D01*
Y4081D02*
X8517D01*
Y5331D01*
X7167D02*
X8517D01*
D53*
X30236Y2087D02*
X35118D01*
X20000D02*
X24882D01*
X25118D02*
X30000D01*
X9764D02*
X14646D01*
X14882D02*
X19764D01*
X25118Y26260D02*
X30000D01*
X20000D02*
X24882D01*
X14882D02*
X19764D01*
X4646D02*
X9528D01*
X9764D02*
X14646D01*
X30236D02*
X35118D01*
X25000Y9910D02*
X26642Y8268D01*
X23358D02*
X25000Y6625D01*
X26642Y8268D01*
X23358D02*
X25000Y9910D01*
X19685Y24606D02*
X37008D01*
X19685Y16339D02*
Y24606D01*
Y16339D02*
X37008D01*
Y24606D01*
X1181Y11220D02*
X18504D01*
Y19488D01*
X1181D02*
X18504D01*
X1181Y11220D02*
Y19488D01*
X36195Y4513D02*
Y13513D01*
X35195D02*
X36195D01*
X35195Y4513D02*
Y13513D01*
Y4513D02*
X36195D01*
X11752Y21614D02*
X11870D01*
X11752Y22480D02*
X11870D01*
Y21614D02*
Y22480D01*
X11752Y21614D02*
Y22480D01*
D54*
X5825Y7540D02*
D03*
X15042Y20796D02*
D03*
M02*
