%FSLAX24Y24*%
%MOIN*%
G70*
G01*
G75*
G04 Layer_Physical_Order=2*
G04 Layer_Color=16711680*
%ADD10R,0.0400X0.0500*%
%ADD11R,0.0360X0.0500*%
%ADD12R,0.0360X0.0360*%
%ADD13R,0.0500X0.0400*%
%ADD14R,0.0800X0.0240*%
%ADD15O,0.0800X0.0240*%
%ADD16R,0.0500X0.0360*%
%ADD17R,0.0360X0.0360*%
%ADD18R,0.0590X0.0790*%
%ADD19R,0.1500X0.0790*%
G04:AMPARAMS|DCode=20|XSize=40mil|YSize=50mil|CornerRadius=0mil|HoleSize=0mil|Usage=FLASHONLY|Rotation=135.000|XOffset=0mil|YOffset=0mil|HoleType=Round|Shape=Rectangle|*
%AMROTATEDRECTD20*
4,1,4,0.0318,0.0035,-0.0035,-0.0318,-0.0318,-0.0035,0.0035,0.0318,0.0318,0.0035,0.0*
%
%ADD20ROTATEDRECTD20*%

%ADD21P,0.0424X4X360.0*%
G04:AMPARAMS|DCode=22|XSize=40mil|YSize=50mil|CornerRadius=0mil|HoleSize=0mil|Usage=FLASHONLY|Rotation=225.000|XOffset=0mil|YOffset=0mil|HoleType=Round|Shape=Rectangle|*
%AMROTATEDRECTD22*
4,1,4,-0.0035,0.0318,0.0318,-0.0035,0.0035,-0.0318,-0.0318,0.0035,-0.0035,0.0318,0.0*
%
%ADD22ROTATEDRECTD22*%

%ADD23O,0.1181X0.0472*%
%ADD24R,0.2559X0.2323*%
G04:AMPARAMS|DCode=25|XSize=21.7mil|YSize=65mil|CornerRadius=0mil|HoleSize=0mil|Usage=FLASHONLY|Rotation=315.000|XOffset=0mil|YOffset=0mil|HoleType=Round|Shape=Round|*
%AMOVALD25*
21,1,0.0433,0.0217,0.0000,0.0000,45.0*
1,1,0.0217,-0.0153,-0.0153*
1,1,0.0217,0.0153,0.0153*
%
%ADD25OVALD25*%

G04:AMPARAMS|DCode=26|XSize=21.7mil|YSize=65mil|CornerRadius=0mil|HoleSize=0mil|Usage=FLASHONLY|Rotation=225.000|XOffset=0mil|YOffset=0mil|HoleType=Round|Shape=Round|*
%AMOVALD26*
21,1,0.0433,0.0217,0.0000,0.0000,315.0*
1,1,0.0217,-0.0153,0.0153*
1,1,0.0217,0.0153,-0.0153*
%
%ADD26OVALD26*%

%ADD27R,0.0335X0.0157*%
%ADD28C,0.0200*%
%ADD29C,0.0400*%
%ADD30C,0.0300*%
%ADD31C,0.0600*%
%ADD32C,0.0800*%
%ADD33C,0.0150*%
%ADD34C,0.0500*%
%ADD35C,0.1500*%
%ADD36C,0.2000*%
%ADD37C,0.0100*%
%ADD38R,0.2362X0.5118*%
%ADD39R,0.4331X0.6299*%
G04:AMPARAMS|DCode=40|XSize=70mil|YSize=70mil|CornerRadius=17.5mil|HoleSize=0mil|Usage=FLASHONLY|Rotation=0.000|XOffset=0mil|YOffset=0mil|HoleType=Round|Shape=RoundedRectangle|*
%AMROUNDEDRECTD40*
21,1,0.0700,0.0350,0,0,0.0*
21,1,0.0350,0.0700,0,0,0.0*
1,1,0.0350,0.0175,-0.0175*
1,1,0.0350,-0.0175,-0.0175*
1,1,0.0350,-0.0175,0.0175*
1,1,0.0350,0.0175,0.0175*
%
%ADD40ROUNDEDRECTD40*%
%ADD41R,0.0700X0.0700*%
%ADD42C,0.1575*%
G04:AMPARAMS|DCode=43|XSize=98.4mil|YSize=98.4mil|CornerRadius=24.6mil|HoleSize=0mil|Usage=FLASHONLY|Rotation=270.000|XOffset=0mil|YOffset=0mil|HoleType=Round|Shape=RoundedRectangle|*
%AMROUNDEDRECTD43*
21,1,0.0984,0.0492,0,0,270.0*
21,1,0.0492,0.0984,0,0,270.0*
1,1,0.0492,-0.0246,-0.0246*
1,1,0.0492,-0.0246,0.0246*
1,1,0.0492,0.0246,0.0246*
1,1,0.0492,0.0246,-0.0246*
%
%ADD43ROUNDEDRECTD43*%
%ADD44C,0.0591*%
%ADD45R,0.0591X0.0591*%
%ADD46C,0.0600*%
%ADD47C,0.0500*%
%ADD48R,0.6693X0.5118*%
G36*
X20453Y27508D02*
X20424Y27438D01*
X20415Y27365D01*
X20965D01*
Y26965D01*
X20415D01*
X20424Y26892D01*
X20462Y26801D01*
X20520Y26725D01*
X20498Y26681D01*
X20020D01*
X20006Y26699D01*
X19912Y26771D01*
X19803Y26816D01*
X19685Y26832D01*
X19568Y26816D01*
X19458Y26771D01*
X19394Y26722D01*
X19349Y26744D01*
Y27145D01*
X19754Y27549D01*
X20425D01*
X20453Y27508D01*
D02*
G37*
G36*
X38976Y429D02*
X38941Y394D01*
X394D01*
X394Y27917D01*
X429Y27953D01*
X18951D01*
X18970Y27907D01*
X18779Y27715D01*
X18249D01*
Y27671D01*
X18204Y27649D01*
X18179Y27668D01*
X18088Y27706D01*
X17990Y27719D01*
X17640D01*
X17542Y27706D01*
X17451Y27668D01*
X17373Y27608D01*
X17348Y27576D01*
X17298D01*
X17273Y27608D01*
X17195Y27668D01*
X17104Y27706D01*
X17006Y27719D01*
X16656D01*
X16558Y27706D01*
X16467Y27668D01*
X16388Y27608D01*
X16364Y27576D01*
X16314D01*
X16289Y27608D01*
X16211Y27668D01*
X16119Y27706D01*
X16046Y27715D01*
Y27165D01*
Y26615D01*
X16119Y26625D01*
X16211Y26663D01*
X16289Y26723D01*
X16314Y26755D01*
X16364D01*
X16388Y26723D01*
X16467Y26663D01*
X16558Y26625D01*
X16656Y26612D01*
X17006D01*
X17104Y26625D01*
X17195Y26663D01*
X17273Y26723D01*
X17298Y26755D01*
X17348D01*
X17373Y26723D01*
X17451Y26663D01*
X17542Y26625D01*
X17640Y26612D01*
X17990D01*
X18088Y26625D01*
X18179Y26663D01*
X18204Y26682D01*
X18249Y26660D01*
Y26615D01*
X19251D01*
X19279Y26574D01*
X19247Y26495D01*
X19231Y26378D01*
X19247Y26260D01*
X19292Y26151D01*
X19364Y26057D01*
X19368Y26054D01*
X19352Y26007D01*
X14284D01*
Y27165D01*
X14272Y27283D01*
X14238Y27396D01*
X14231Y27409D01*
Y27715D01*
X13925D01*
X13912Y27722D01*
X13799Y27757D01*
X13681Y27768D01*
X13563Y27757D01*
X13450Y27722D01*
X13437Y27715D01*
X13131D01*
Y27671D01*
X13086Y27649D01*
X13061Y27668D01*
X12970Y27706D01*
X12897Y27715D01*
Y27165D01*
Y26615D01*
X12970Y26625D01*
X13037Y26653D01*
X13078Y26625D01*
Y25841D01*
X12974Y25777D01*
X12830Y25654D01*
X12707Y25511D01*
X12609Y25350D01*
X12536Y25175D01*
X12492Y24991D01*
X12477Y24803D01*
X12492Y24615D01*
X12536Y24431D01*
X12609Y24257D01*
X12707Y24096D01*
X12830Y23952D01*
X12974Y23829D01*
X13135Y23731D01*
X13309Y23658D01*
X13493Y23614D01*
X13681Y23599D01*
X19186D01*
X19685Y23101D01*
X22123Y20227D01*
Y15951D01*
X19383Y13212D01*
X17618D01*
X17430Y13197D01*
X17246Y13153D01*
X17072Y13080D01*
X16911Y12982D01*
X16767Y12859D01*
X16644Y12715D01*
X16546Y12554D01*
X16473Y12380D01*
X16429Y12196D01*
X16414Y12008D01*
X16429Y11820D01*
X16473Y11636D01*
X16546Y11461D01*
X16644Y11300D01*
X16767Y11157D01*
X16911Y11034D01*
X16998Y10981D01*
X16984Y10933D01*
X7874D01*
X7874Y10933D01*
X7805Y10923D01*
X7796Y10922D01*
X7774Y10913D01*
X7723Y10892D01*
X7687Y10865D01*
X7660Y10844D01*
X7660Y10844D01*
X7110Y10293D01*
X7087Y10296D01*
X6969Y10281D01*
X6860Y10236D01*
X6766Y10163D01*
X6694Y10069D01*
X6648Y9960D01*
X6633Y9843D01*
X6636Y9820D01*
X5298Y8482D01*
X5250Y8419D01*
X5220Y8346D01*
X5209Y8268D01*
Y7815D01*
X5191Y7801D01*
X5119Y7707D01*
X5076Y7604D01*
X5027Y7614D01*
Y8930D01*
X5604Y9507D01*
X5679Y9449D01*
X5788Y9404D01*
X5906Y9389D01*
X6023Y9404D01*
X6132Y9449D01*
X6226Y9522D01*
X6299Y9616D01*
X6344Y9725D01*
X6359Y9843D01*
X6344Y9960D01*
X6299Y10069D01*
X6226Y10163D01*
X6132Y10236D01*
X6023Y10281D01*
X5906Y10296D01*
X5788Y10281D01*
X5679Y10236D01*
X5585Y10163D01*
X5570Y10145D01*
X5512D01*
X5433Y10135D01*
X5382Y10113D01*
X5361Y10105D01*
X5298Y10056D01*
X4510Y9269D01*
X4462Y9206D01*
X4432Y9133D01*
X4422Y9055D01*
Y7087D01*
X4422Y7087D01*
X4422D01*
X4432Y7008D01*
X4462Y6935D01*
X4510Y6873D01*
X5298Y6085D01*
X5361Y6037D01*
X5382Y6028D01*
X5433Y6007D01*
X5512Y5997D01*
X6299D01*
X6378Y6007D01*
X6451Y6037D01*
X6513Y6085D01*
X6513Y6085D01*
X6513Y6085D01*
X7572Y7145D01*
X7647Y7087D01*
X7757Y7042D01*
X7874Y7026D01*
X7991Y7042D01*
X8101Y7087D01*
X8195Y7159D01*
X8267Y7253D01*
X8312Y7363D01*
X8328Y7480D01*
X8312Y7598D01*
X8267Y7707D01*
X8195Y7801D01*
X8177Y7815D01*
Y8528D01*
X8177Y8528D01*
Y8795D01*
X8177Y8795D01*
Y9507D01*
X8195Y9522D01*
X8267Y9616D01*
X8312Y9725D01*
X8328Y9843D01*
X8312Y9960D01*
X8267Y10069D01*
X8195Y10163D01*
X8101Y10236D01*
X8006Y10275D01*
X8003Y10289D01*
X8035Y10327D01*
X19744D01*
X19758Y10309D01*
X19852Y10237D01*
X19961Y10192D01*
X20079Y10176D01*
X20196Y10192D01*
X20306Y10237D01*
X20400Y10309D01*
X20472Y10403D01*
X20517Y10512D01*
X20533Y10630D01*
X20517Y10747D01*
X20472Y10857D01*
X20440Y10899D01*
X20449Y10948D01*
X20589Y11034D01*
X20733Y11157D01*
X24178Y14602D01*
X24234Y14668D01*
X24301Y14745D01*
X24362Y14845D01*
X24399Y14906D01*
X24420Y14957D01*
X24452Y15032D01*
X24501Y15023D01*
Y13511D01*
X23408Y12419D01*
X23360Y12356D01*
X23330Y12283D01*
X23319Y12205D01*
Y11359D01*
X23301Y11345D01*
X23229Y11251D01*
X23184Y11141D01*
X23168Y11024D01*
X23184Y10906D01*
X23229Y10797D01*
X23301Y10703D01*
X23395Y10631D01*
X23411Y10624D01*
X23401Y10575D01*
X21744D01*
X21711Y10613D01*
X21714Y10630D01*
X21698Y10747D01*
X21653Y10857D01*
X21581Y10951D01*
X21487Y11023D01*
X21377Y11068D01*
X21260Y11084D01*
X21142Y11068D01*
X21033Y11023D01*
X20939Y10951D01*
X20867Y10857D01*
X20821Y10747D01*
X20806Y10630D01*
X20809Y10607D01*
X19708Y9506D01*
X19685Y9509D01*
X19568Y9494D01*
X19458Y9448D01*
X19364Y9376D01*
X19292Y9282D01*
X19247Y9173D01*
X19231Y9055D01*
X19247Y8938D01*
X19292Y8828D01*
X19364Y8734D01*
X19458Y8662D01*
X19568Y8617D01*
X19685Y8601D01*
X19803Y8617D01*
X19912Y8662D01*
X20006Y8734D01*
X20078Y8828D01*
X20123Y8938D01*
X20139Y9055D01*
X20136Y9078D01*
X20631Y9573D01*
X20677Y9554D01*
Y8941D01*
X20677Y8941D01*
X20677D01*
X20688Y8863D01*
X20718Y8790D01*
X20766Y8727D01*
X21203Y8291D01*
X21200Y8268D01*
X21203Y8245D01*
X20988Y8030D01*
X20965Y8033D01*
X20847Y8017D01*
X20738Y7972D01*
X20644Y7900D01*
X20571Y7806D01*
X20526Y7696D01*
X20511Y7579D01*
X20513Y7565D01*
X20468Y7543D01*
X19922Y8088D01*
X19860Y8136D01*
X19838Y8145D01*
X19787Y8166D01*
X19708Y8177D01*
X19233D01*
X19219Y8195D01*
X19125Y8267D01*
X19015Y8312D01*
X18898Y8328D01*
X18780Y8312D01*
X18671Y8267D01*
X18577Y8195D01*
X18505Y8101D01*
X18459Y7991D01*
X18444Y7874D01*
X18459Y7757D01*
X18505Y7647D01*
X18577Y7553D01*
X18671Y7481D01*
X18780Y7436D01*
X18898Y7420D01*
X19015Y7436D01*
X19125Y7481D01*
X19219Y7553D01*
X19233Y7571D01*
X19583D01*
X19934Y7220D01*
X19931Y7170D01*
X19859Y7115D01*
X19845Y7097D01*
X16166D01*
X15568Y7694D01*
X15506Y7742D01*
X15433Y7773D01*
X15354Y7783D01*
X13386D01*
X13386Y7783D01*
X13308Y7773D01*
X13235Y7742D01*
X13220Y7731D01*
X13172Y7694D01*
X13172Y7694D01*
X12473Y6995D01*
X12227D01*
X12217Y7045D01*
X12321Y7087D01*
X12415Y7159D01*
X12487Y7253D01*
X12532Y7363D01*
X12548Y7480D01*
X12532Y7598D01*
X12487Y7707D01*
X12415Y7801D01*
X12321Y7873D01*
X12211Y7919D01*
X12094Y7934D01*
X11976Y7919D01*
X11867Y7873D01*
X11773Y7801D01*
X11701Y7707D01*
X11655Y7598D01*
X11640Y7480D01*
X11655Y7363D01*
X11701Y7253D01*
X11773Y7159D01*
X11867Y7087D01*
X11970Y7045D01*
X11960Y6995D01*
X11752D01*
X11738Y7014D01*
X11644Y7086D01*
X11535Y7131D01*
X11417Y7147D01*
X11300Y7131D01*
X11190Y7086D01*
X11096Y7014D01*
X11024Y6920D01*
X10979Y6810D01*
X10963Y6693D01*
X10979Y6575D01*
X11024Y6466D01*
X11096Y6372D01*
X11190Y6300D01*
X11300Y6255D01*
X11417Y6239D01*
X11535Y6255D01*
X11644Y6300D01*
X11738Y6372D01*
X11752Y6390D01*
X12598D01*
X12677Y6401D01*
X12750Y6431D01*
X12812Y6479D01*
X12812Y6479D01*
X12812Y6479D01*
X13511Y7178D01*
X14433D01*
X14433Y7178D01*
X14701D01*
X14701Y7178D01*
X15229D01*
X15826Y6580D01*
X15889Y6532D01*
X15962Y6502D01*
X16040Y6492D01*
X19845D01*
X19859Y6473D01*
X19953Y6401D01*
X20063Y6356D01*
X20180Y6340D01*
X20297Y6356D01*
X20407Y6401D01*
X20501Y6473D01*
X20556Y6545D01*
X20606Y6548D01*
X20981Y6174D01*
Y6054D01*
X20741Y5814D01*
X18504D01*
X18504Y5814D01*
X18426Y5804D01*
X18353Y5774D01*
X18338Y5763D01*
X18290Y5726D01*
X18290Y5726D01*
X17503Y4938D01*
X17454Y4876D01*
X17424Y4803D01*
X17414Y4724D01*
Y3877D01*
X17389Y3857D01*
X17317Y3763D01*
X17271Y3654D01*
X17256Y3536D01*
X17271Y3419D01*
X17317Y3310D01*
X17389Y3216D01*
X17483Y3143D01*
X17592Y3098D01*
X17710Y3083D01*
X17827Y3098D01*
X17937Y3143D01*
X18031Y3216D01*
X18103Y3310D01*
X18148Y3419D01*
X18164Y3536D01*
X18148Y3654D01*
X18103Y3763D01*
X18031Y3857D01*
X18019Y3866D01*
Y4564D01*
X18058Y4595D01*
X18071Y4593D01*
X18111Y4497D01*
X18183Y4403D01*
X18277Y4331D01*
X18386Y4286D01*
X18504Y4271D01*
X18621Y4286D01*
X18731Y4331D01*
X18798Y4383D01*
X18841Y4358D01*
X18837Y4331D01*
X18853Y4213D01*
X18898Y4104D01*
X18970Y4010D01*
X19064Y3938D01*
X19174Y3892D01*
X19291Y3877D01*
X19409Y3892D01*
X19518Y3938D01*
X19585Y3989D01*
X19628Y3964D01*
X19625Y3937D01*
X19640Y3820D01*
X19686Y3710D01*
X19758Y3616D01*
X19852Y3544D01*
X19955Y3501D01*
X19945Y3452D01*
X19291D01*
X19213Y3442D01*
X19170Y3424D01*
X19140Y3412D01*
X19125Y3400D01*
X19096Y3378D01*
X19077Y3364D01*
Y3364D01*
X19077D01*
X19029Y3301D01*
X18999Y3228D01*
X18989Y3150D01*
X18999Y3071D01*
X19020Y3020D01*
X19029Y2998D01*
X19077Y2936D01*
D01*
X19077D01*
Y2936D01*
D01*
X19077D01*
Y2936D01*
X19077D01*
X19077Y2936D01*
Y2936D01*
X19077Y2936D01*
Y2936D01*
X19140Y2888D01*
X19213Y2857D01*
X19291Y2847D01*
X20531D01*
X20545Y2829D01*
X20639Y2757D01*
X20749Y2711D01*
X20866Y2696D01*
X20984Y2711D01*
X21093Y2757D01*
X21187Y2829D01*
X21201Y2847D01*
X21334D01*
X21346Y2842D01*
X21397Y2821D01*
X21444Y2815D01*
X21451Y2765D01*
X21427Y2755D01*
X21333Y2683D01*
X21260Y2589D01*
X21215Y2480D01*
X21200Y2362D01*
X21215Y2245D01*
X21260Y2135D01*
X21333Y2041D01*
X21427Y1969D01*
X21536Y1924D01*
X21654Y1908D01*
X21771Y1924D01*
X21880Y1969D01*
X21974Y2041D01*
X21989Y2060D01*
X22835D01*
X22913Y2070D01*
X22965Y2091D01*
X22986Y2100D01*
X23049Y2148D01*
X24662Y3762D01*
X24712Y3759D01*
X24766Y3689D01*
X24860Y3617D01*
X24969Y3571D01*
X25087Y3556D01*
X25143Y3563D01*
X25340Y3366D01*
X25403Y3318D01*
X25476Y3287D01*
X25554Y3277D01*
X25903D01*
X25936Y3239D01*
X25924Y3150D01*
X25940Y3032D01*
X25985Y2923D01*
X26057Y2829D01*
X26151Y2757D01*
X26260Y2711D01*
X26378Y2696D01*
X26495Y2711D01*
X26605Y2757D01*
X26699Y2829D01*
X26713Y2847D01*
X26826D01*
X27524Y2148D01*
X27587Y2100D01*
X27608Y2091D01*
X27660Y2070D01*
X27738Y2060D01*
X29134D01*
X29212Y2070D01*
X29264Y2091D01*
X29285Y2100D01*
X29348Y2148D01*
X29742Y2542D01*
X29790Y2605D01*
X29820Y2678D01*
X29830Y2756D01*
Y3543D01*
X29830Y3543D01*
X29820Y3622D01*
X29790Y3695D01*
X29742Y3757D01*
X28288Y5211D01*
X28346Y5286D01*
X28391Y5395D01*
X28407Y5513D01*
X28391Y5630D01*
X28346Y5740D01*
X28274Y5834D01*
X28180Y5906D01*
X28070Y5951D01*
X27953Y5966D01*
X27835Y5951D01*
X27726Y5906D01*
X27632Y5834D01*
X27560Y5740D01*
X27514Y5630D01*
X27499Y5513D01*
X27514Y5395D01*
X27560Y5286D01*
X27632Y5192D01*
X27650Y5178D01*
Y5118D01*
X27660Y5040D01*
X27682Y4988D01*
X27691Y4967D01*
X27739Y4904D01*
X27929Y4714D01*
X27919Y4665D01*
X27824Y4625D01*
X27730Y4553D01*
X27658Y4459D01*
X27613Y4350D01*
X27598Y4240D01*
X27477D01*
X27415Y4301D01*
X27418Y4351D01*
X27486Y4403D01*
X27558Y4497D01*
X27604Y4607D01*
X27619Y4724D01*
X27604Y4842D01*
X27558Y4951D01*
X27486Y5045D01*
X27392Y5117D01*
X27283Y5163D01*
X27165Y5178D01*
X27048Y5163D01*
X26938Y5117D01*
X26844Y5045D01*
X26830Y5027D01*
X26772D01*
X26772Y5027D01*
X26772Y5027D01*
X26352D01*
X26324Y5064D01*
X26230Y5136D01*
X26120Y5182D01*
X26016Y5195D01*
X25999Y5224D01*
X25996Y5250D01*
X26029Y5330D01*
X26044Y5448D01*
X26034Y5527D01*
X26162Y5655D01*
X26210Y5718D01*
X26240Y5791D01*
X26251Y5869D01*
X26251Y5869D01*
Y5892D01*
X26592Y6233D01*
X26640Y6296D01*
X26670Y6369D01*
X26681Y6447D01*
Y7103D01*
X27900Y8323D01*
X28131D01*
X28209Y8333D01*
X28282Y8363D01*
X28345Y8411D01*
X28597Y8664D01*
X30672D01*
X32463Y6873D01*
X32468Y6869D01*
X32502Y6786D01*
X32574Y6692D01*
X32668Y6620D01*
X32778Y6574D01*
X32895Y6559D01*
X33013Y6574D01*
X33054Y6591D01*
X33095Y6563D01*
Y6563D01*
X34695D01*
Y6563D01*
X34737Y6591D01*
X34778Y6574D01*
X34895Y6559D01*
X35013Y6574D01*
X35122Y6620D01*
X35216Y6692D01*
X35242Y6725D01*
X35292D01*
X35342Y6659D01*
X35445Y6580D01*
X35548Y6538D01*
Y6538D01*
X35566Y6530D01*
X35695Y6513D01*
X35825Y6530D01*
X35843Y6538D01*
Y6538D01*
X35945Y6580D01*
X36049Y6659D01*
X36128Y6763D01*
X36178Y6883D01*
X36195Y7013D01*
X36178Y7142D01*
X36128Y7262D01*
X36049Y7366D01*
X35945Y7445D01*
X35843Y7488D01*
Y7538D01*
X35945Y7580D01*
X36049Y7659D01*
X36128Y7763D01*
X36178Y7883D01*
X36195Y8013D01*
X36178Y8142D01*
X36128Y8262D01*
X36049Y8366D01*
X35945Y8445D01*
X35843Y8488D01*
Y8538D01*
X35945Y8580D01*
X36049Y8659D01*
X36128Y8763D01*
X36178Y8883D01*
X36195Y9013D01*
X36178Y9142D01*
X36128Y9262D01*
X36049Y9366D01*
X35945Y9445D01*
X35843Y9488D01*
Y9538D01*
X35945Y9580D01*
X36049Y9659D01*
X36128Y9763D01*
X36178Y9883D01*
X36195Y10013D01*
X36178Y10142D01*
X36128Y10262D01*
X36049Y10366D01*
X35945Y10445D01*
X35843Y10488D01*
Y10538D01*
X35945Y10580D01*
X36049Y10659D01*
X36128Y10763D01*
X36178Y10883D01*
X36195Y11013D01*
X36178Y11142D01*
X36128Y11262D01*
X36049Y11366D01*
X35945Y11445D01*
X35843Y11488D01*
Y11538D01*
X35945Y11580D01*
X36049Y11659D01*
X36128Y11763D01*
X36178Y11883D01*
X36195Y12013D01*
X36178Y12142D01*
X36128Y12262D01*
X36049Y12366D01*
X35945Y12445D01*
X35889Y12468D01*
X35899Y12517D01*
X36191D01*
Y13508D01*
X35200D01*
Y12517D01*
X35491D01*
X35501Y12468D01*
X35445Y12445D01*
X35342Y12366D01*
X35263Y12262D01*
X35213Y12142D01*
X35196Y12013D01*
X35213Y11883D01*
X35263Y11763D01*
X35342Y11659D01*
X35445Y11580D01*
X35548Y11538D01*
Y11488D01*
X35445Y11445D01*
X35342Y11366D01*
X35292Y11300D01*
X35242D01*
X35216Y11334D01*
X35122Y11406D01*
X35013Y11451D01*
X34895Y11466D01*
X34778Y11451D01*
X34737Y11434D01*
X34695Y11462D01*
Y11463D01*
X33095D01*
Y11462D01*
X33054Y11434D01*
X33013Y11451D01*
X32895Y11466D01*
X32778Y11451D01*
X32668Y11406D01*
X32574Y11334D01*
X32502Y11240D01*
X32457Y11130D01*
X32441Y11013D01*
X32444Y10990D01*
X31564Y10109D01*
X24571D01*
X24193Y10486D01*
X24131Y10535D01*
X24109Y10543D01*
X24058Y10565D01*
X23979Y10575D01*
X23843D01*
X23834Y10624D01*
X23849Y10631D01*
X23943Y10703D01*
X24015Y10797D01*
X24060Y10906D01*
X24076Y11024D01*
X24060Y11141D01*
X24015Y11251D01*
X23943Y11345D01*
X23925Y11359D01*
Y12079D01*
X25017Y13172D01*
X25065Y13235D01*
X25095Y13308D01*
X25106Y13386D01*
Y22441D01*
X25106Y22441D01*
X25097Y22510D01*
X25095Y22519D01*
X25083Y22549D01*
X25065Y22592D01*
X25054Y22607D01*
X25017Y22655D01*
X25017Y22655D01*
X21106Y26566D01*
X21125Y26612D01*
X21140D01*
X21237Y26625D01*
X21329Y26663D01*
X21407Y26723D01*
X21432Y26755D01*
X21482D01*
X21506Y26723D01*
X21585Y26663D01*
X21676Y26625D01*
X21774Y26612D01*
X22124D01*
X22222Y26625D01*
X22313Y26663D01*
X22391Y26723D01*
X22416Y26755D01*
X22466D01*
X22491Y26723D01*
X22569Y26663D01*
X22660Y26625D01*
X22758Y26612D01*
X23108D01*
X23206Y26625D01*
X23297Y26663D01*
X23322Y26682D01*
X23367Y26660D01*
Y26615D01*
X24467D01*
Y27440D01*
X24577Y27549D01*
X25543D01*
X25571Y27508D01*
X25542Y27438D01*
X25533Y27365D01*
X26083D01*
Y27165D01*
X26283D01*
Y26615D01*
X26356Y26625D01*
X26447Y26663D01*
X26525Y26723D01*
X26550Y26755D01*
X26600D01*
X26624Y26723D01*
X26703Y26663D01*
X26794Y26625D01*
X26892Y26612D01*
X27242D01*
X27340Y26625D01*
X27431Y26663D01*
X27509Y26723D01*
X27534Y26755D01*
X27584D01*
X27609Y26723D01*
X27687Y26663D01*
X27778Y26625D01*
X27876Y26612D01*
X28226D01*
X28324Y26625D01*
X28415Y26663D01*
X28441Y26682D01*
X28485Y26660D01*
Y26615D01*
X29585D01*
Y27440D01*
X29695Y27549D01*
X30661D01*
X30689Y27508D01*
X30660Y27438D01*
X30651Y27365D01*
X31201D01*
Y27165D01*
X31401D01*
Y26615D01*
X31474Y26625D01*
X31565Y26663D01*
X31643Y26723D01*
X31668Y26755D01*
X31718D01*
X31743Y26723D01*
X31821Y26663D01*
X31912Y26625D01*
X32010Y26612D01*
X32360D01*
X32458Y26625D01*
X32549Y26663D01*
X32627Y26723D01*
X32652Y26755D01*
X32702D01*
X32727Y26723D01*
X32805Y26663D01*
X32896Y26625D01*
X32994Y26612D01*
X33344D01*
X33442Y26625D01*
X33533Y26663D01*
X33559Y26682D01*
X33604Y26660D01*
Y26615D01*
X33851D01*
Y26011D01*
X32857Y25017D01*
X32809Y24954D01*
X32800Y24933D01*
X32779Y24881D01*
X32768Y24803D01*
Y23170D01*
X32750Y23156D01*
X32678Y23062D01*
X32632Y22952D01*
X32617Y22835D01*
X32632Y22717D01*
X32678Y22608D01*
X32750Y22514D01*
X32844Y22442D01*
X32953Y22396D01*
X33071Y22381D01*
X33188Y22396D01*
X33298Y22442D01*
X33392Y22514D01*
X33464Y22608D01*
X33509Y22717D01*
X33525Y22835D01*
X33509Y22952D01*
X33464Y23062D01*
X33392Y23156D01*
X33373Y23170D01*
Y24678D01*
X34367Y25672D01*
X34368Y25672D01*
X34416Y25735D01*
X34446Y25808D01*
X34456Y25886D01*
Y26615D01*
X34704D01*
Y27715D01*
X33604D01*
Y27671D01*
X33559Y27649D01*
X33533Y27668D01*
X33506Y27679D01*
X33455Y27746D01*
X33455Y27746D01*
X33294Y27907D01*
X33313Y27953D01*
X38976D01*
X38976Y429D01*
D02*
G37*
%LPC*%
G36*
X14971Y6493D02*
X14767D01*
Y6289D01*
X14794Y6300D01*
X14888Y6372D01*
X14960Y6466D01*
X14971Y6493D01*
D02*
G37*
G36*
X14367D02*
X14163D01*
X14174Y6466D01*
X14246Y6372D01*
X14340Y6300D01*
X14367Y6289D01*
Y6493D01*
D02*
G37*
G36*
Y7097D02*
X14340Y7086D01*
X14246Y7014D01*
X14174Y6920D01*
X14163Y6893D01*
X14367D01*
Y7097D01*
D02*
G37*
G36*
X14767D02*
Y6893D01*
X14971D01*
X14960Y6920D01*
X14888Y7014D01*
X14794Y7086D01*
X14767Y7097D01*
D02*
G37*
G36*
X17323Y8328D02*
X17205Y8312D01*
X17096Y8267D01*
X17002Y8195D01*
X16930Y8101D01*
X16884Y7991D01*
X16869Y7874D01*
X16884Y7757D01*
X16930Y7647D01*
X17002Y7553D01*
X17096Y7481D01*
X17205Y7436D01*
X17323Y7420D01*
X17440Y7436D01*
X17550Y7481D01*
X17644Y7553D01*
X17716Y7647D01*
X17761Y7757D01*
X17777Y7874D01*
X17761Y7991D01*
X17716Y8101D01*
X17644Y8195D01*
X17550Y8267D01*
X17440Y8312D01*
X17323Y8328D01*
D02*
G37*
G36*
X4524Y5916D02*
X4497Y5905D01*
X4403Y5833D01*
X4331Y5739D01*
X4320Y5712D01*
X4524D01*
Y5916D01*
D02*
G37*
G36*
X5129Y5312D02*
X4924D01*
Y5108D01*
X4951Y5119D01*
X5045Y5191D01*
X5117Y5285D01*
X5129Y5312D01*
D02*
G37*
G36*
X4924Y5916D02*
Y5712D01*
X5129D01*
X5117Y5739D01*
X5045Y5833D01*
X4951Y5905D01*
X4924Y5916D01*
D02*
G37*
G36*
X35895Y6466D02*
Y6213D01*
X36149D01*
X36128Y6262D01*
X36049Y6366D01*
X35945Y6445D01*
X35895Y6466D01*
D02*
G37*
G36*
X35495D02*
X35445Y6445D01*
X35342Y6366D01*
X35263Y6262D01*
X35242Y6213D01*
X35495D01*
Y6466D01*
D02*
G37*
G36*
X29130Y8332D02*
X29012Y8316D01*
X28903Y8271D01*
X28809Y8199D01*
X28737Y8105D01*
X28691Y7995D01*
X28676Y7878D01*
X28691Y7760D01*
X28737Y7651D01*
X28791Y7580D01*
X28766Y7537D01*
X28740Y7541D01*
X28649Y7528D01*
X28613Y7564D01*
X28625Y7655D01*
X28610Y7773D01*
X28565Y7882D01*
X28492Y7976D01*
X28398Y8048D01*
X28289Y8094D01*
X28172Y8109D01*
X28054Y8094D01*
X27945Y8048D01*
X27851Y7976D01*
X27778Y7882D01*
X27733Y7773D01*
X27718Y7655D01*
X27733Y7538D01*
X27778Y7428D01*
X27851Y7334D01*
X27945Y7262D01*
X28008Y7236D01*
Y6909D01*
X28008Y6909D01*
X28008D01*
X28018Y6830D01*
X28048Y6757D01*
X28096Y6695D01*
X28592Y6199D01*
X28592D01*
X28592Y6199D01*
X28592Y6199D01*
Y6199D01*
X28654Y6151D01*
X28727Y6121D01*
X28737Y6119D01*
X28806Y6110D01*
X28806Y6110D01*
X29899D01*
Y6019D01*
X29899Y6019D01*
X29899D01*
X29909Y5941D01*
X29939Y5868D01*
X29987Y5805D01*
X31045Y4747D01*
X31042Y4724D01*
X31058Y4607D01*
X31103Y4497D01*
X31175Y4403D01*
X31269Y4331D01*
X31379Y4286D01*
X31496Y4271D01*
X31614Y4286D01*
X31723Y4331D01*
X31817Y4403D01*
X31889Y4497D01*
X31934Y4607D01*
X31950Y4724D01*
X31934Y4842D01*
X31889Y4951D01*
X31817Y5045D01*
X31723Y5117D01*
X31614Y5163D01*
X31496Y5178D01*
X31473Y5175D01*
X30829Y5819D01*
X30839Y5868D01*
X30936Y5908D01*
X31030Y5981D01*
X31102Y6075D01*
X31147Y6184D01*
X31163Y6301D01*
X31147Y6419D01*
X31102Y6528D01*
X31052Y6593D01*
X31077Y6636D01*
X31102Y6633D01*
X31220Y6648D01*
X31329Y6694D01*
X31423Y6766D01*
X31495Y6860D01*
X31541Y6969D01*
X31556Y7087D01*
X31541Y7204D01*
X31495Y7314D01*
X31423Y7408D01*
X31329Y7480D01*
X31220Y7525D01*
X31102Y7541D01*
X30985Y7525D01*
X30875Y7480D01*
X30781Y7408D01*
X30767Y7389D01*
X30047D01*
X29581Y7855D01*
X29584Y7878D01*
X29568Y7995D01*
X29523Y8105D01*
X29451Y8199D01*
X29357Y8271D01*
X29247Y8316D01*
X29130Y8332D01*
D02*
G37*
G36*
X26090Y12604D02*
X25959Y12586D01*
X25837Y12536D01*
X25733Y12456D01*
X25653Y12352D01*
X25602Y12230D01*
X25585Y12099D01*
X25602Y11969D01*
X25653Y11847D01*
X25733Y11743D01*
X25837Y11663D01*
X25959Y11612D01*
X26090Y11595D01*
X26220Y11612D01*
X26342Y11663D01*
X26446Y11743D01*
X26526Y11847D01*
X26577Y11969D01*
X26594Y12099D01*
X26577Y12230D01*
X26526Y12352D01*
X26446Y12456D01*
X26342Y12536D01*
X26220Y12586D01*
X26090Y12604D01*
D02*
G37*
G36*
X27454Y11240D02*
X27323Y11222D01*
X27202Y11172D01*
X27097Y11092D01*
X27017Y10987D01*
X26967Y10866D01*
X26949Y10735D01*
X26967Y10605D01*
X27017Y10483D01*
X27097Y10379D01*
X27202Y10299D01*
X27323Y10248D01*
X27454Y10231D01*
X27584Y10248D01*
X27706Y10299D01*
X27810Y10379D01*
X27890Y10483D01*
X27941Y10605D01*
X27958Y10735D01*
X27941Y10866D01*
X27890Y10987D01*
X27810Y11092D01*
X27706Y11172D01*
X27584Y11222D01*
X27454Y11240D01*
D02*
G37*
G36*
X36368Y24515D02*
X35876D01*
X35760Y24500D01*
X35651Y24455D01*
X35558Y24383D01*
X35486Y24290D01*
X35441Y24181D01*
X35426Y24065D01*
Y23573D01*
X35441Y23456D01*
X35486Y23348D01*
X35558Y23255D01*
X35651Y23183D01*
X35760Y23138D01*
X35876Y23123D01*
X36105D01*
X37291Y21937D01*
Y14870D01*
X34252D01*
X34252Y14870D01*
X34213Y14864D01*
X34174Y14859D01*
X34122Y14838D01*
X34101Y14829D01*
X34038Y14781D01*
X30816Y11559D01*
X29194Y13180D01*
Y14567D01*
X29179Y14684D01*
X29133Y14794D01*
X29061Y14888D01*
X28967Y14960D01*
X28858Y15005D01*
X28740Y15021D01*
X28623Y15005D01*
X28513Y14960D01*
X28419Y14888D01*
X28347Y14794D01*
X28302Y14684D01*
X28286Y14567D01*
Y12992D01*
X28286Y12992D01*
X28286D01*
X28302Y12875D01*
X28347Y12765D01*
X28419Y12671D01*
X30388Y10703D01*
X30388D01*
X30388Y10703D01*
X30388D01*
X30388Y10703D01*
Y10703D01*
X30388Y10703D01*
Y10703D01*
X30482Y10631D01*
X30591Y10585D01*
X30709Y10570D01*
X30826Y10585D01*
X30936Y10631D01*
X31030Y10703D01*
X31102Y10797D01*
X31147Y10906D01*
X31163Y11024D01*
X31160Y11047D01*
X34377Y14264D01*
X37291D01*
Y6508D01*
X36300Y5517D01*
X35921D01*
X35911Y5566D01*
X35945Y5580D01*
X36049Y5659D01*
X36128Y5763D01*
X36149Y5813D01*
X35242D01*
X35263Y5763D01*
X35342Y5659D01*
X35445Y5580D01*
X35542Y5540D01*
Y5490D01*
X35443Y5449D01*
X35339Y5369D01*
X35259Y5265D01*
X35208Y5143D01*
X35191Y5013D01*
X35208Y4882D01*
X35259Y4760D01*
X35339Y4656D01*
X35443Y4576D01*
X35565Y4525D01*
X35695Y4508D01*
X36509D01*
X36639Y4525D01*
X36761Y4576D01*
X36865Y4656D01*
X37439Y5229D01*
X37488Y5220D01*
X37502Y5185D01*
X37574Y5091D01*
X37668Y5019D01*
X37778Y4973D01*
X37895Y4958D01*
X38013Y4973D01*
X38122Y5019D01*
X38216Y5091D01*
X38288Y5185D01*
X38334Y5294D01*
X38349Y5412D01*
X38334Y5529D01*
X38288Y5639D01*
X38216Y5733D01*
X38122Y5805D01*
X38098Y5815D01*
Y5889D01*
X38152Y5943D01*
X38232Y6047D01*
X38268Y6133D01*
X38282Y6169D01*
X38300Y6299D01*
Y14567D01*
Y22146D01*
X38282Y22276D01*
X38232Y22398D01*
X38152Y22502D01*
X36818Y23836D01*
Y24065D01*
X36803Y24181D01*
X36758Y24290D01*
X36686Y24383D01*
X36593Y24455D01*
X36485Y24500D01*
X36368Y24515D01*
D02*
G37*
G36*
X30719Y16335D02*
X30515D01*
Y16131D01*
X30542Y16142D01*
X30636Y16214D01*
X30708Y16308D01*
X30719Y16335D01*
D02*
G37*
G36*
X30115D02*
X29911D01*
X29922Y16308D01*
X29994Y16214D01*
X30088Y16142D01*
X30115Y16131D01*
Y16335D01*
D02*
G37*
G36*
X9066Y8461D02*
X8861D01*
Y8257D01*
X8888Y8268D01*
X8982Y8340D01*
X9054Y8434D01*
X9066Y8461D01*
D02*
G37*
G36*
X8461D02*
X8257D01*
X8268Y8434D01*
X8340Y8340D01*
X8434Y8268D01*
X8461Y8257D01*
Y8461D01*
D02*
G37*
G36*
X12205Y9115D02*
X12087Y9100D01*
X11978Y9054D01*
X11884Y8982D01*
X11870Y8964D01*
X11811D01*
X11733Y8954D01*
X11660Y8923D01*
X11597Y8875D01*
X11047Y8325D01*
X11024Y8328D01*
X10906Y8312D01*
X10797Y8267D01*
X10703Y8195D01*
X10631Y8101D01*
X10585Y7991D01*
X10570Y7874D01*
X10585Y7757D01*
X10631Y7647D01*
X10703Y7553D01*
X10797Y7481D01*
X10906Y7436D01*
X11024Y7420D01*
X11141Y7436D01*
X11251Y7481D01*
X11345Y7553D01*
X11417Y7647D01*
X11462Y7757D01*
X11478Y7874D01*
X11474Y7897D01*
X11903Y8326D01*
X11978Y8268D01*
X12087Y8223D01*
X12205Y8208D01*
X12322Y8223D01*
X12432Y8268D01*
X12526Y8340D01*
X12598Y8434D01*
X12643Y8544D01*
X12659Y8661D01*
X12643Y8779D01*
X12598Y8888D01*
X12526Y8982D01*
X12432Y9054D01*
X12322Y9100D01*
X12205Y9115D01*
D02*
G37*
G36*
X8861Y9066D02*
Y8861D01*
X9066D01*
X9054Y8888D01*
X8982Y8982D01*
X8888Y9054D01*
X8861Y9066D01*
D02*
G37*
G36*
X8461D02*
X8434Y9054D01*
X8340Y8982D01*
X8268Y8888D01*
X8257Y8861D01*
X8461D01*
Y9066D01*
D02*
G37*
G36*
X13856Y1734D02*
X13506D01*
X13408Y1721D01*
X13317Y1684D01*
X13239Y1624D01*
X13214Y1591D01*
X13164D01*
X13139Y1624D01*
X13061Y1684D01*
X12970Y1721D01*
X12872Y1734D01*
X12522D01*
X12424Y1721D01*
X12333Y1684D01*
X12254Y1624D01*
X12230Y1591D01*
X12180D01*
X12155Y1624D01*
X12077Y1684D01*
X11985Y1721D01*
X11888Y1734D01*
X11538D01*
X11440Y1721D01*
X11348Y1684D01*
X11323Y1664D01*
X11278Y1686D01*
Y1731D01*
X10178D01*
Y631D01*
X11278D01*
Y676D01*
X11323Y698D01*
X11348Y679D01*
X11440Y641D01*
X11538Y628D01*
X11888D01*
X11985Y641D01*
X12077Y679D01*
X12155Y739D01*
X12180Y771D01*
X12230D01*
X12254Y739D01*
X12333Y679D01*
X12424Y641D01*
X12522Y628D01*
X12872D01*
X12970Y641D01*
X13061Y679D01*
X13139Y739D01*
X13164Y771D01*
X13214D01*
X13239Y739D01*
X13317Y679D01*
X13408Y641D01*
X13506Y628D01*
X13856D01*
X13954Y641D01*
X14045Y679D01*
X14124Y739D01*
X14184Y817D01*
X14221Y908D01*
X14234Y1006D01*
Y1356D01*
X14221Y1454D01*
X14184Y1545D01*
X14124Y1624D01*
X14045Y1684D01*
X13954Y1721D01*
X13856Y1734D01*
D02*
G37*
G36*
X24117Y1731D02*
Y1381D01*
X24467D01*
X24458Y1454D01*
X24420Y1545D01*
X24360Y1624D01*
X24281Y1684D01*
X24190Y1721D01*
X24117Y1731D01*
D02*
G37*
G36*
X17990Y1734D02*
X17640D01*
X17542Y1721D01*
X17451Y1684D01*
X17373Y1624D01*
X17348Y1591D01*
X17298D01*
X17273Y1624D01*
X17195Y1684D01*
X17104Y1721D01*
X17006Y1734D01*
X16656D01*
X16558Y1721D01*
X16467Y1684D01*
X16441Y1664D01*
X16396Y1686D01*
Y1731D01*
X15296D01*
Y631D01*
X16396D01*
Y676D01*
X16441Y698D01*
X16467Y679D01*
X16558Y641D01*
X16656Y628D01*
X17006D01*
X17104Y641D01*
X17195Y679D01*
X17273Y739D01*
X17298Y771D01*
X17348D01*
X17373Y739D01*
X17451Y679D01*
X17542Y641D01*
X17640Y628D01*
X17990D01*
X18088Y641D01*
X18179Y679D01*
X18257Y739D01*
X18282Y771D01*
X18332D01*
X18357Y739D01*
X18435Y679D01*
X18526Y641D01*
X18599Y631D01*
Y1181D01*
Y1731D01*
X18526Y1721D01*
X18435Y1684D01*
X18357Y1624D01*
X18332Y1591D01*
X18282D01*
X18257Y1624D01*
X18179Y1684D01*
X18088Y1721D01*
X17990Y1734D01*
D02*
G37*
G36*
X29210D02*
X28860D01*
X28763Y1721D01*
X28671Y1684D01*
X28593Y1624D01*
X28568Y1591D01*
X28518D01*
X28494Y1624D01*
X28415Y1684D01*
X28324Y1721D01*
X28226Y1734D01*
X27876D01*
X27778Y1721D01*
X27687Y1684D01*
X27609Y1624D01*
X27584Y1591D01*
X27534D01*
X27509Y1624D01*
X27431Y1684D01*
X27340Y1721D01*
X27242Y1734D01*
X26892D01*
X26794Y1721D01*
X26703Y1684D01*
X26678Y1664D01*
X26633Y1686D01*
Y1731D01*
X25533D01*
Y631D01*
X26633D01*
Y676D01*
X26678Y698D01*
X26703Y679D01*
X26794Y641D01*
X26892Y628D01*
X27242D01*
X27340Y641D01*
X27431Y679D01*
X27509Y739D01*
X27534Y771D01*
X27584D01*
X27609Y739D01*
X27687Y679D01*
X27778Y641D01*
X27876Y628D01*
X28226D01*
X28324Y641D01*
X28415Y679D01*
X28494Y739D01*
X28518Y771D01*
X28568D01*
X28593Y739D01*
X28671Y679D01*
X28763Y641D01*
X28860Y628D01*
X29210D01*
X29308Y641D01*
X29400Y679D01*
X29478Y739D01*
X29538Y817D01*
X29576Y908D01*
X29589Y1006D01*
Y1356D01*
X29576Y1454D01*
X29538Y1545D01*
X29478Y1624D01*
X29400Y1684D01*
X29308Y1721D01*
X29210Y1734D01*
D02*
G37*
G36*
X23108D02*
X22758D01*
X22660Y1721D01*
X22569Y1684D01*
X22491Y1624D01*
X22466Y1591D01*
X22416D01*
X22391Y1624D01*
X22313Y1684D01*
X22222Y1721D01*
X22124Y1734D01*
X21774D01*
X21676Y1721D01*
X21585Y1684D01*
X21559Y1664D01*
X21515Y1686D01*
Y1731D01*
X20415D01*
Y631D01*
X21515D01*
Y676D01*
X21559Y698D01*
X21585Y679D01*
X21676Y641D01*
X21774Y628D01*
X22124D01*
X22222Y641D01*
X22313Y679D01*
X22391Y739D01*
X22416Y771D01*
X22466D01*
X22491Y739D01*
X22569Y679D01*
X22660Y641D01*
X22758Y628D01*
X23108D01*
X23206Y641D01*
X23297Y679D01*
X23376Y739D01*
X23400Y771D01*
X23450D01*
X23475Y739D01*
X23553Y679D01*
X23644Y641D01*
X23717Y631D01*
Y1181D01*
Y1731D01*
X23644Y1721D01*
X23553Y1684D01*
X23475Y1624D01*
X23450Y1591D01*
X23400D01*
X23376Y1624D01*
X23297Y1684D01*
X23206Y1721D01*
X23108Y1734D01*
D02*
G37*
G36*
X24467Y981D02*
X24117D01*
Y631D01*
X24190Y641D01*
X24281Y679D01*
X24360Y739D01*
X24420Y817D01*
X24458Y908D01*
X24467Y981D01*
D02*
G37*
G36*
X19349D02*
X18999D01*
Y631D01*
X19072Y641D01*
X19163Y679D01*
X19242Y739D01*
X19302Y817D01*
X19340Y908D01*
X19349Y981D01*
D02*
G37*
G36*
X2953Y3354D02*
X2759Y3335D01*
X2573Y3279D01*
X2402Y3187D01*
X2251Y3064D01*
X2128Y2913D01*
X2036Y2742D01*
X1980Y2556D01*
X1961Y2362D01*
X1980Y2169D01*
X2036Y1983D01*
X2128Y1811D01*
X2251Y1661D01*
X2402Y1537D01*
X2573Y1446D01*
X2759Y1389D01*
X2953Y1370D01*
X3146Y1389D01*
X3332Y1446D01*
X3504Y1537D01*
X3654Y1661D01*
X3778Y1811D01*
X3869Y1983D01*
X3926Y2169D01*
X3945Y2362D01*
X3926Y2556D01*
X3869Y2742D01*
X3778Y2913D01*
X3654Y3064D01*
X3504Y3187D01*
X3332Y3279D01*
X3146Y3335D01*
X2953Y3354D01*
D02*
G37*
G36*
X18999Y1731D02*
Y1381D01*
X19349D01*
X19340Y1454D01*
X19302Y1545D01*
X19242Y1624D01*
X19163Y1684D01*
X19072Y1721D01*
X18999Y1731D01*
D02*
G37*
G36*
X36417Y3354D02*
X36224Y3335D01*
X36038Y3279D01*
X35866Y3187D01*
X35716Y3064D01*
X35592Y2913D01*
X35501Y2742D01*
X35444Y2556D01*
X35425Y2362D01*
X35444Y2169D01*
X35501Y1983D01*
X35592Y1811D01*
X35716Y1661D01*
X35866Y1537D01*
X36038Y1446D01*
X36224Y1389D01*
X36417Y1370D01*
X36611Y1389D01*
X36797Y1446D01*
X36969Y1537D01*
X37119Y1661D01*
X37242Y1811D01*
X37334Y1983D01*
X37390Y2169D01*
X37410Y2362D01*
X37390Y2556D01*
X37334Y2742D01*
X37242Y2913D01*
X37119Y3064D01*
X36969Y3187D01*
X36797Y3279D01*
X36611Y3335D01*
X36417Y3354D01*
D02*
G37*
G36*
X34329Y1734D02*
X33979D01*
X33881Y1721D01*
X33789Y1684D01*
X33711Y1624D01*
X33686Y1591D01*
X33636D01*
X33612Y1624D01*
X33533Y1684D01*
X33442Y1721D01*
X33344Y1734D01*
X32994D01*
X32896Y1721D01*
X32805Y1684D01*
X32727Y1624D01*
X32702Y1591D01*
X32652D01*
X32627Y1624D01*
X32549Y1684D01*
X32458Y1721D01*
X32360Y1734D01*
X32010D01*
X31912Y1721D01*
X31821Y1684D01*
X31796Y1664D01*
X31751Y1686D01*
Y1731D01*
X30651D01*
Y631D01*
X31751D01*
Y676D01*
X31796Y698D01*
X31821Y679D01*
X31912Y641D01*
X32010Y628D01*
X32360D01*
X32458Y641D01*
X32549Y679D01*
X32627Y739D01*
X32652Y771D01*
X32702D01*
X32727Y739D01*
X32805Y679D01*
X32896Y641D01*
X32994Y628D01*
X33344D01*
X33442Y641D01*
X33533Y679D01*
X33612Y739D01*
X33636Y771D01*
X33686D01*
X33711Y739D01*
X33789Y679D01*
X33881Y641D01*
X33979Y628D01*
X34329D01*
X34426Y641D01*
X34518Y679D01*
X34596Y739D01*
X34656Y817D01*
X34694Y908D01*
X34707Y1006D01*
Y1356D01*
X34694Y1454D01*
X34656Y1545D01*
X34596Y1624D01*
X34518Y1684D01*
X34426Y1721D01*
X34329Y1734D01*
D02*
G37*
G36*
X4524Y4341D02*
X4497Y4330D01*
X4403Y4258D01*
X4331Y4164D01*
X4320Y4137D01*
X4524D01*
Y4341D01*
D02*
G37*
G36*
X5129Y3737D02*
X4924D01*
Y3533D01*
X4951Y3544D01*
X5045Y3616D01*
X5117Y3710D01*
X5129Y3737D01*
D02*
G37*
G36*
X4924Y4341D02*
Y4137D01*
X5129D01*
X5117Y4164D01*
X5045Y4258D01*
X4951Y4330D01*
X4924Y4341D01*
D02*
G37*
G36*
X4524Y5312D02*
X4320D01*
X4331Y5285D01*
X4403Y5191D01*
X4497Y5119D01*
X4524Y5108D01*
Y5312D01*
D02*
G37*
G36*
X10249Y5978D02*
X10131Y5963D01*
X10022Y5917D01*
X9928Y5845D01*
X9856Y5751D01*
X9810Y5642D01*
X9795Y5524D01*
X9810Y5407D01*
X9856Y5297D01*
X9928Y5203D01*
X10022Y5131D01*
X10131Y5086D01*
X10249Y5071D01*
X10272Y5074D01*
X10441Y4904D01*
D01*
X10441D01*
Y4904D01*
D01*
X10441D01*
Y4904D01*
X10441D01*
X10441Y4904D01*
Y4904D01*
X10441Y4904D01*
Y4904D01*
X10504Y4856D01*
X10577Y4826D01*
X10655Y4816D01*
X14626D01*
X14640Y4797D01*
X14734Y4725D01*
X14843Y4680D01*
X14961Y4664D01*
X15078Y4680D01*
X15188Y4725D01*
X15282Y4797D01*
X15354Y4891D01*
X15399Y5001D01*
X15415Y5118D01*
X15399Y5236D01*
X15354Y5345D01*
X15282Y5439D01*
X15188Y5511D01*
X15078Y5557D01*
X14961Y5572D01*
X14843Y5557D01*
X14734Y5511D01*
X14640Y5439D01*
X14626Y5421D01*
X10780D01*
X10700Y5501D01*
X10703Y5524D01*
X10687Y5642D01*
X10642Y5751D01*
X10570Y5845D01*
X10476Y5917D01*
X10366Y5963D01*
X10249Y5978D01*
D02*
G37*
G36*
X13396Y2950D02*
X13192D01*
Y2745D01*
X13219Y2757D01*
X13313Y2829D01*
X13385Y2923D01*
X13396Y2950D01*
D02*
G37*
G36*
X12792D02*
X12588D01*
X12599Y2923D01*
X12671Y2829D01*
X12765Y2757D01*
X12792Y2745D01*
Y2950D01*
D02*
G37*
G36*
Y3554D02*
X12765Y3543D01*
X12671Y3471D01*
X12599Y3377D01*
X12588Y3350D01*
X12792D01*
Y3554D01*
D02*
G37*
G36*
X4524Y3737D02*
X4320D01*
X4331Y3710D01*
X4403Y3616D01*
X4497Y3544D01*
X4524Y3533D01*
Y3737D01*
D02*
G37*
G36*
X13192Y3554D02*
Y3350D01*
X13396D01*
X13385Y3377D01*
X13313Y3471D01*
X13219Y3543D01*
X13192Y3554D01*
D02*
G37*
G36*
X30902Y21664D02*
X30875Y21653D01*
X30781Y21581D01*
X30709Y21487D01*
X30698Y21460D01*
X30902D01*
Y21664D01*
D02*
G37*
G36*
X30325Y21847D02*
X29517D01*
X29528Y21820D01*
X29600Y21726D01*
X29663Y21679D01*
Y21629D01*
X29600Y21581D01*
X29528Y21487D01*
X29517Y21460D01*
X30325D01*
X30314Y21487D01*
X30242Y21581D01*
X30180Y21629D01*
Y21679D01*
X30242Y21726D01*
X30314Y21820D01*
X30325Y21847D01*
D02*
G37*
G36*
X30909Y23239D02*
Y22835D01*
Y22430D01*
X30936Y22442D01*
X31002Y22493D01*
X31046Y22468D01*
X31042Y22441D01*
X31058Y22323D01*
X31103Y22214D01*
X31175Y22120D01*
X31269Y22048D01*
X31379Y22003D01*
X31496Y21987D01*
X31523Y21991D01*
X31548Y21947D01*
X31497Y21880D01*
X31451Y21771D01*
X31436Y21654D01*
X31439Y21627D01*
X31396Y21602D01*
X31329Y21653D01*
X31302Y21664D01*
Y21260D01*
X31102D01*
Y21060D01*
X30698D01*
X30709Y21033D01*
X30781Y20939D01*
X30875Y20867D01*
X30985Y20821D01*
X31102Y20806D01*
X31129Y20810D01*
X31154Y20766D01*
X31103Y20699D01*
X31092Y20672D01*
X31900D01*
X31889Y20699D01*
X31817Y20793D01*
X31723Y20866D01*
X31614Y20911D01*
X31496Y20926D01*
X31469Y20923D01*
X31444Y20966D01*
X31495Y21033D01*
X31541Y21142D01*
X31556Y21260D01*
X31553Y21287D01*
X31596Y21312D01*
X31663Y21260D01*
X31690Y21249D01*
Y21654D01*
X31890D01*
Y21854D01*
X32294D01*
X32283Y21880D01*
X32211Y21974D01*
X32117Y22047D01*
X32007Y22092D01*
X31890Y22107D01*
X31863Y22104D01*
X31838Y22147D01*
X31889Y22214D01*
X31900Y22241D01*
X31496D01*
Y22441D01*
X31296D01*
Y22845D01*
X31269Y22834D01*
X31202Y22783D01*
X31159Y22808D01*
X31163Y22835D01*
X31147Y22952D01*
X31102Y23062D01*
X31030Y23156D01*
X30936Y23228D01*
X30909Y23239D01*
D02*
G37*
G36*
X31696Y22845D02*
Y22641D01*
X31900D01*
X31889Y22668D01*
X31817Y22762D01*
X31723Y22834D01*
X31696Y22845D01*
D02*
G37*
G36*
X30121Y23239D02*
Y22835D01*
X29921D01*
Y22635D01*
X29517D01*
X29528Y22608D01*
X29600Y22514D01*
X29663Y22466D01*
Y22416D01*
X29600Y22368D01*
X29528Y22274D01*
X29517Y22247D01*
X30325D01*
X30314Y22274D01*
X30242Y22368D01*
X30180Y22416D01*
Y22466D01*
X30242Y22514D01*
X30290Y22576D01*
X30340D01*
X30388Y22514D01*
X30482Y22442D01*
X30509Y22430D01*
Y22835D01*
Y23239D01*
X30482Y23228D01*
X30388Y23156D01*
X30340Y23093D01*
X30290D01*
X30242Y23156D01*
X30148Y23228D01*
X30121Y23239D01*
D02*
G37*
G36*
X31296Y20272D02*
X31092D01*
X31103Y20245D01*
X31175Y20152D01*
X31269Y20079D01*
X31296Y20068D01*
Y20272D01*
D02*
G37*
G36*
X30325D02*
X30121D01*
Y20068D01*
X30148Y20079D01*
X30242Y20152D01*
X30314Y20245D01*
X30325Y20272D01*
D02*
G37*
G36*
X31900D02*
X31696D01*
Y20068D01*
X31723Y20079D01*
X31817Y20152D01*
X31889Y20245D01*
X31900Y20272D01*
D02*
G37*
G36*
X32294Y21454D02*
X32090D01*
Y21249D01*
X32117Y21260D01*
X32211Y21333D01*
X32283Y21427D01*
X32294Y21454D01*
D02*
G37*
G36*
X30325Y21060D02*
X29517D01*
X29528Y21033D01*
X29600Y20939D01*
X29663Y20891D01*
Y20841D01*
X29600Y20793D01*
X29528Y20699D01*
X29517Y20672D01*
X30325D01*
X30314Y20699D01*
X30242Y20793D01*
X30180Y20841D01*
Y20891D01*
X30242Y20939D01*
X30314Y21033D01*
X30325Y21060D01*
D02*
G37*
G36*
X11611Y23028D02*
X11407D01*
X11418Y23001D01*
X11490Y22907D01*
X11584Y22835D01*
X11611Y22824D01*
Y23028D01*
D02*
G37*
G36*
X25883Y26965D02*
X25533D01*
X25542Y26892D01*
X25580Y26801D01*
X25640Y26723D01*
X25719Y26663D01*
X25810Y26625D01*
X25883Y26615D01*
Y26965D01*
D02*
G37*
G36*
X15646D02*
X15297D01*
X15306Y26892D01*
X15344Y26801D01*
X15404Y26723D01*
X15482Y26663D01*
X15574Y26625D01*
X15646Y26615D01*
Y26965D01*
D02*
G37*
G36*
X31001D02*
X30651D01*
X30660Y26892D01*
X30698Y26801D01*
X30758Y26723D01*
X30837Y26663D01*
X30928Y26625D01*
X31001Y26615D01*
Y26965D01*
D02*
G37*
G36*
X11713Y27768D02*
X11595Y27757D01*
X11482Y27722D01*
X11454Y27708D01*
X11440Y27706D01*
X11348Y27668D01*
X11270Y27608D01*
X11245Y27576D01*
X11195D01*
X11171Y27608D01*
X11092Y27668D01*
X11001Y27706D01*
X10903Y27719D01*
X10553D01*
X10455Y27706D01*
X10364Y27668D01*
X10286Y27608D01*
X10226Y27529D01*
X10188Y27438D01*
X10175Y27340D01*
Y26990D01*
X10188Y26892D01*
X10226Y26801D01*
X10286Y26723D01*
X10364Y26663D01*
X10455Y26625D01*
X10553Y26612D01*
X10903D01*
X11001Y26625D01*
X11068Y26653D01*
X11110Y26625D01*
Y26529D01*
X10774Y26193D01*
X10577D01*
X10518Y26266D01*
X10373Y26384D01*
X10208Y26472D01*
X10029Y26527D01*
X9843Y26545D01*
X9656Y26527D01*
X9477Y26472D01*
X9312Y26384D01*
X9211Y26301D01*
X9166Y26323D01*
Y27165D01*
X9154Y27283D01*
X9120Y27396D01*
X9113Y27409D01*
Y27715D01*
X8807D01*
X8794Y27722D01*
X8681Y27757D01*
X8563Y27768D01*
X8445Y27757D01*
X8332Y27722D01*
X8319Y27715D01*
X8013D01*
Y27671D01*
X7968Y27649D01*
X7943Y27668D01*
X7852Y27706D01*
X7754Y27719D01*
X7404D01*
X7306Y27706D01*
X7215Y27668D01*
X7136Y27608D01*
X7112Y27576D01*
X7062D01*
X7037Y27608D01*
X6959Y27668D01*
X6867Y27706D01*
X6853Y27708D01*
X6825Y27722D01*
X6712Y27757D01*
X6594Y27768D01*
X6477Y27757D01*
X6364Y27722D01*
X6336Y27708D01*
X6322Y27706D01*
X6230Y27668D01*
X6152Y27608D01*
X6127Y27576D01*
X6077D01*
X6053Y27608D01*
X5974Y27668D01*
X5883Y27706D01*
X5785Y27719D01*
X5435D01*
X5337Y27706D01*
X5246Y27668D01*
X5168Y27608D01*
X5108Y27529D01*
X5070Y27438D01*
X5057Y27340D01*
Y26990D01*
X5070Y26892D01*
X5108Y26801D01*
X5168Y26723D01*
X5246Y26663D01*
X5337Y26625D01*
X5435Y26612D01*
X5785D01*
X5883Y26625D01*
X5950Y26653D01*
X5992Y26625D01*
Y25689D01*
X5992Y25689D01*
X5992D01*
X6003Y25571D01*
X6037Y25458D01*
X6037Y25458D01*
X6037Y25458D01*
X6093Y25354D01*
X6168Y25263D01*
X6168Y25263D01*
X6168Y25263D01*
Y25263D01*
X6168Y25263D01*
X6267Y25164D01*
X6267D01*
X6267Y25164D01*
X6267Y25164D01*
Y25164D01*
X6358Y25089D01*
X6421Y25056D01*
X6409Y25007D01*
X3303D01*
X3296Y25057D01*
X3332Y25068D01*
X3504Y25159D01*
X3654Y25283D01*
X3778Y25433D01*
X3869Y25605D01*
X3926Y25791D01*
X3945Y25984D01*
X3926Y26178D01*
X3869Y26364D01*
X3778Y26535D01*
X3654Y26686D01*
X3504Y26809D01*
X3332Y26901D01*
X3146Y26957D01*
X2953Y26976D01*
X2759Y26957D01*
X2573Y26901D01*
X2402Y26809D01*
X2251Y26686D01*
X2128Y26535D01*
X2036Y26364D01*
X1980Y26178D01*
X1961Y25984D01*
X1980Y25791D01*
X2036Y25605D01*
X2128Y25433D01*
X2251Y25283D01*
X2402Y25159D01*
X2573Y25068D01*
X2610Y25057D01*
X2602Y25007D01*
X1969D01*
X1890Y24992D01*
X1824Y24947D01*
X1780Y24881D01*
X1765Y24803D01*
Y19685D01*
X1780Y19607D01*
X1814Y19557D01*
X1793Y19511D01*
X1704Y19500D01*
X1596Y19455D01*
X1503Y19383D01*
X1431Y19290D01*
X1386Y19181D01*
X1371Y19065D01*
Y19019D01*
X2763D01*
Y19065D01*
X2748Y19181D01*
X2703Y19290D01*
X2631Y19383D01*
X2565Y19434D01*
X2581Y19481D01*
X8661D01*
X8739Y19497D01*
X8806Y19541D01*
X8840Y19592D01*
X8888Y19578D01*
Y19293D01*
X2557Y12962D01*
X2165D01*
X1979Y12944D01*
X1800Y12890D01*
X1635Y12802D01*
X1490Y12683D01*
X1372Y12538D01*
X1283Y12373D01*
X1229Y12194D01*
X1211Y12008D01*
X1229Y11822D01*
X1283Y11643D01*
X1372Y11478D01*
X1490Y11333D01*
X1635Y11214D01*
X1800Y11126D01*
X1979Y11072D01*
X2165Y11053D01*
X2953D01*
X3139Y11072D01*
X3229Y11099D01*
X3318Y11126D01*
X3483Y11214D01*
X3628Y11333D01*
X10518Y18223D01*
X10636Y18367D01*
X10724Y18532D01*
X10752Y18622D01*
X10779Y18711D01*
X10797Y18898D01*
Y21002D01*
X11083D01*
X11116Y20959D01*
X11210Y20886D01*
X11320Y20841D01*
X11437Y20826D01*
X11554Y20841D01*
X11664Y20886D01*
X11758Y20959D01*
X11830Y21053D01*
X11875Y21162D01*
X11891Y21280D01*
X11875Y21397D01*
X11830Y21506D01*
X11758Y21600D01*
X11664Y21673D01*
X11554Y21718D01*
X11437Y21733D01*
X11320Y21718D01*
X11210Y21673D01*
X11116Y21600D01*
X11083Y21557D01*
X10797D01*
Y24988D01*
X11024D01*
X11141Y24999D01*
X11254Y25034D01*
X11254Y25034D01*
X11254Y25034D01*
X11359Y25089D01*
X11450Y25164D01*
X11450Y25164D01*
X11450Y25164D01*
X12139Y25853D01*
X12214Y25945D01*
X12270Y26049D01*
X12304Y26162D01*
X12315Y26280D01*
Y26625D01*
X12357Y26653D01*
X12424Y26625D01*
X12497Y26615D01*
Y27165D01*
Y27715D01*
X12424Y27706D01*
X12333Y27668D01*
X12254Y27608D01*
X12230Y27576D01*
X12180D01*
X12155Y27608D01*
X12077Y27668D01*
X11985Y27706D01*
X11971Y27708D01*
X11943Y27722D01*
X11830Y27757D01*
X11713Y27768D01*
D02*
G37*
G36*
X15646Y27715D02*
X15574Y27706D01*
X15482Y27668D01*
X15404Y27608D01*
X15344Y27529D01*
X15306Y27438D01*
X15297Y27365D01*
X15646D01*
Y27715D01*
D02*
G37*
G36*
X29721Y23239D02*
X29694Y23228D01*
X29600Y23156D01*
X29528Y23062D01*
X29517Y23035D01*
X29721D01*
Y23239D01*
D02*
G37*
G36*
X12215Y23028D02*
X12011D01*
Y22824D01*
X12038Y22835D01*
X12132Y22907D01*
X12204Y23001D01*
X12215Y23028D01*
D02*
G37*
G36*
X11611Y23633D02*
X11584Y23621D01*
X11490Y23549D01*
X11418Y23455D01*
X11407Y23428D01*
X11611D01*
Y23633D01*
D02*
G37*
G36*
X36417Y26976D02*
X36224Y26957D01*
X36038Y26901D01*
X35866Y26809D01*
X35716Y26686D01*
X35592Y26535D01*
X35501Y26364D01*
X35444Y26178D01*
X35425Y25984D01*
X35444Y25791D01*
X35501Y25605D01*
X35592Y25433D01*
X35716Y25283D01*
X35866Y25159D01*
X36038Y25068D01*
X36224Y25011D01*
X36417Y24992D01*
X36611Y25011D01*
X36797Y25068D01*
X36969Y25159D01*
X37119Y25283D01*
X37242Y25433D01*
X37334Y25605D01*
X37390Y25791D01*
X37410Y25984D01*
X37390Y26178D01*
X37334Y26364D01*
X37242Y26535D01*
X37119Y26686D01*
X36969Y26809D01*
X36797Y26901D01*
X36611Y26957D01*
X36417Y26976D01*
D02*
G37*
G36*
X12011Y23633D02*
Y23428D01*
X12215D01*
X12204Y23455D01*
X12132Y23549D01*
X12038Y23621D01*
X12011Y23633D01*
D02*
G37*
G36*
X20371Y17704D02*
X20325D01*
X20208Y17689D01*
X20100Y17644D01*
X20007Y17572D01*
X19935Y17479D01*
X19890Y17370D01*
X19875Y17254D01*
Y17208D01*
X20371D01*
Y17704D01*
D02*
G37*
G36*
X30515Y16940D02*
Y16735D01*
X30719D01*
X30708Y16762D01*
X30636Y16856D01*
X30542Y16929D01*
X30515Y16940D01*
D02*
G37*
G36*
X20817Y17704D02*
X20771D01*
Y17208D01*
X21267D01*
Y17254D01*
X21252Y17370D01*
X21207Y17479D01*
X21135Y17572D01*
X21042Y17644D01*
X20933Y17689D01*
X20817Y17704D01*
D02*
G37*
G36*
X36368D02*
X36322D01*
Y17208D01*
X36818D01*
Y17254D01*
X36803Y17370D01*
X36758Y17479D01*
X36686Y17572D01*
X36593Y17644D01*
X36485Y17689D01*
X36368Y17704D01*
D02*
G37*
G36*
X35922D02*
X35876D01*
X35760Y17689D01*
X35651Y17644D01*
X35558Y17572D01*
X35486Y17479D01*
X35441Y17370D01*
X35426Y17254D01*
Y17208D01*
X35922D01*
Y17704D01*
D02*
G37*
G36*
X21267Y16808D02*
X20771D01*
Y16312D01*
X20817D01*
X20933Y16327D01*
X21042Y16372D01*
X21135Y16444D01*
X21207Y16537D01*
X21252Y16645D01*
X21267Y16762D01*
Y16808D01*
D02*
G37*
G36*
X20371D02*
X19875D01*
Y16762D01*
X19890Y16645D01*
X19935Y16537D01*
X20007Y16444D01*
X20100Y16372D01*
X20208Y16327D01*
X20325Y16312D01*
X20371D01*
Y16808D01*
D02*
G37*
G36*
X35922D02*
X35426D01*
Y16762D01*
X35441Y16645D01*
X35486Y16537D01*
X35558Y16444D01*
X35651Y16372D01*
X35760Y16327D01*
X35876Y16312D01*
X35922D01*
Y16808D01*
D02*
G37*
G36*
X30115Y16940D02*
X30088Y16929D01*
X29994Y16856D01*
X29922Y16762D01*
X29911Y16735D01*
X30115D01*
Y16940D01*
D02*
G37*
G36*
X36818Y16808D02*
X36322D01*
Y16312D01*
X36368D01*
X36485Y16327D01*
X36593Y16372D01*
X36686Y16444D01*
X36758Y16537D01*
X36803Y16645D01*
X36818Y16762D01*
Y16808D01*
D02*
G37*
G36*
X1867Y18619D02*
X1371D01*
Y18573D01*
X1386Y18456D01*
X1431Y18348D01*
X1503Y18255D01*
X1596Y18183D01*
X1704Y18138D01*
X1821Y18123D01*
X1867D01*
Y18619D01*
D02*
G37*
G36*
X17864Y19515D02*
X17818D01*
Y19019D01*
X18314D01*
Y19065D01*
X18299Y19181D01*
X18254Y19290D01*
X18182Y19383D01*
X18089Y19455D01*
X17981Y19500D01*
X17864Y19515D01*
D02*
G37*
G36*
X17418D02*
X17372D01*
X17256Y19500D01*
X17147Y19455D01*
X17054Y19383D01*
X16982Y19290D01*
X16937Y19181D01*
X16922Y19065D01*
Y19019D01*
X17418D01*
Y19515D01*
D02*
G37*
G36*
X12398Y19696D02*
X12371Y19684D01*
X12277Y19612D01*
X12205Y19518D01*
X12194Y19491D01*
X12398D01*
Y19696D01*
D02*
G37*
G36*
X29721Y20272D02*
X29517D01*
X29528Y20245D01*
X29600Y20152D01*
X29694Y20079D01*
X29721Y20068D01*
Y20272D01*
D02*
G37*
G36*
X12798Y19696D02*
Y19491D01*
X13003D01*
X12991Y19518D01*
X12919Y19612D01*
X12825Y19684D01*
X12798Y19696D01*
D02*
G37*
G36*
X17418Y18619D02*
X16922D01*
Y18573D01*
X16937Y18456D01*
X16982Y18348D01*
X17054Y18255D01*
X17147Y18183D01*
X17256Y18138D01*
X17372Y18123D01*
X17418D01*
Y18619D01*
D02*
G37*
G36*
X2763D02*
X2267D01*
Y18123D01*
X2313D01*
X2429Y18138D01*
X2538Y18183D01*
X2631Y18255D01*
X2703Y18348D01*
X2748Y18456D01*
X2763Y18573D01*
Y18619D01*
D02*
G37*
G36*
X18314D02*
X17818D01*
Y18123D01*
X17864D01*
X17981Y18138D01*
X18089Y18183D01*
X18182Y18255D01*
X18254Y18348D01*
X18299Y18456D01*
X18314Y18573D01*
Y18619D01*
D02*
G37*
G36*
X13003Y19091D02*
X12798D01*
Y18887D01*
X12825Y18898D01*
X12919Y18970D01*
X12991Y19064D01*
X13003Y19091D01*
D02*
G37*
G36*
X12398D02*
X12194D01*
X12205Y19064D01*
X12277Y18970D01*
X12371Y18898D01*
X12398Y18887D01*
Y19091D01*
D02*
G37*
%LPD*%
D10*
X34295Y11013D02*
D03*
X33495D02*
D03*
X34295Y7013D02*
D03*
X33495D02*
D03*
X34295Y8013D02*
D03*
X33495D02*
D03*
X34295Y9013D02*
D03*
X33495D02*
D03*
X34295Y10013D02*
D03*
X33495D02*
D03*
D28*
X21283Y5929D02*
Y6299D01*
X18898Y7874D02*
X19708D01*
X21283Y6299D01*
X19506Y4724D02*
X20475D01*
X21527Y5776D01*
X23622D01*
X20866Y5512D02*
X21283Y5929D01*
X18504Y5512D02*
X20866D01*
X21654Y5118D02*
X23622D01*
X20866Y4331D02*
X21654Y5118D01*
X20293Y4331D02*
X20866D01*
X21690Y10273D02*
X23979D01*
X20980Y9563D02*
X21690Y10273D01*
X22084Y8090D02*
Y8446D01*
X22084Y8090D02*
X22084Y8090D01*
X22084Y7838D02*
Y8090D01*
Y7838D02*
X24373Y5548D01*
X22047Y8482D02*
X22084Y8446D01*
X24839Y5195D02*
Y5296D01*
X24588Y5548D02*
X24839Y5296D01*
X24373Y5548D02*
X24588D01*
X22047Y8482D02*
Y9055D01*
X25161Y5270D02*
Y5626D01*
X21897Y9693D02*
X22462D01*
X20965Y7579D02*
X21654Y8268D01*
X20980Y8941D02*
Y9563D01*
Y8941D02*
X21654Y8268D01*
X22514D02*
X23278D01*
X22047Y9055D02*
X22061Y9069D01*
X23979Y10273D02*
X24446Y9806D01*
X21904Y9693D02*
Y9693D01*
X21897Y9693D02*
X21904D01*
X21898Y9693D02*
X21904D01*
X21897Y9693D02*
X21898Y9693D01*
X19685Y9055D02*
X21260Y10630D01*
X24446Y9806D02*
X31689D01*
X22061Y9069D02*
Y9077D01*
X17717Y4724D02*
X18504Y5512D01*
X21260Y3937D02*
X22047Y4724D01*
X19469Y4761D02*
X19506Y4724D01*
X18577Y4761D02*
X19469D01*
X20079Y3937D02*
X21260D01*
X18540Y4724D02*
X18577Y4761D01*
X22047Y4724D02*
X23408D01*
X22770Y9384D02*
X23923Y8231D01*
X24839D02*
X25984Y7087D01*
X23923Y8231D02*
X24839D01*
X23278Y8268D02*
X24459Y7087D01*
X24803Y9055D02*
X27345D01*
X24409Y8661D02*
X24803Y9055D01*
X17717Y3543D02*
Y4724D01*
X17710Y3536D02*
X17717Y3543D01*
X13035Y3106D02*
X17888D01*
X12992Y3150D02*
X13035Y3106D01*
X17931Y3150D02*
X18504D01*
X17888Y3106D02*
X17931Y3150D01*
X22462Y9693D02*
X22770Y9384D01*
X24459Y7087D02*
X25068D01*
X24839Y5195D02*
X25189Y4845D01*
X25412Y5018D02*
X25477D01*
X25161Y5270D02*
X25412Y5018D01*
X25161Y5626D02*
X25984Y6449D01*
X25477Y4737D02*
Y5018D01*
X25439Y4699D02*
X25844Y4294D01*
X25439Y4699D02*
X25439D01*
X25439D02*
X25477Y4737D01*
X25844Y4294D02*
X26994D01*
X25984Y6449D02*
Y7087D01*
X25189Y4845D02*
Y4845D01*
X25132Y4789D02*
X25189Y4845D01*
X25274Y4430D02*
Y4468D01*
X25132Y4610D02*
X25274Y4468D01*
X25132Y4610D02*
Y4789D01*
X26378Y6447D02*
Y7228D01*
X25948Y6017D02*
X26378Y6447D01*
X25948Y5869D02*
Y6017D01*
X25591Y5512D02*
X25948Y5869D01*
X23444Y4688D02*
X23979D01*
X23408Y4724D02*
X23444Y4688D01*
X22835Y2362D02*
X24803Y4331D01*
X22798Y3113D02*
X23622Y3937D01*
X21475Y3113D02*
X22798D01*
X21439Y3150D02*
X21475Y3113D01*
X19291Y3150D02*
X21439D01*
X21654Y2362D02*
X22835D01*
X19291Y3150D02*
X20866D01*
X19291D02*
X19291Y3150D01*
X18799Y1181D02*
Y2854D01*
X18504Y3150D02*
X18799Y2854D01*
X25627Y4078D02*
Y4078D01*
X25338Y4367D02*
X25627Y4078D01*
X25338Y4367D02*
X25338D01*
X25087Y4010D02*
Y4047D01*
X24803Y4331D02*
X25087Y4047D01*
X25274Y4430D02*
X25338Y4367D01*
X25984Y4724D02*
X26003Y4743D01*
X25627Y4078D02*
X25690Y4014D01*
X24803Y4331D02*
X25554Y3580D01*
X25591Y5448D02*
Y5512D01*
X23979Y4688D02*
X24409Y5118D01*
X25690Y4014D02*
X26878D01*
X25554Y3580D02*
X26917D01*
X27347Y3150D01*
X26878Y4014D02*
X27313Y3580D01*
X26994Y4294D02*
X27352Y3937D01*
X27756D01*
X27313Y3580D02*
X28507D01*
X27347Y3150D02*
X27559D01*
X26951Y3150D02*
X27738Y2362D01*
X26378Y3150D02*
X26951D01*
X27738Y2362D02*
X29134D01*
X27756Y3937D02*
X28051Y4232D01*
X28507Y3580D02*
X29035Y3051D01*
X26772Y4724D02*
X27165D01*
X26772D02*
Y4724D01*
X26772Y4724D02*
X26772Y4724D01*
X25984Y4724D02*
X26772D01*
X27953Y5118D02*
X29528Y3543D01*
X27953Y5118D02*
Y5513D01*
X19328Y4367D02*
X20257D01*
X19291Y4331D02*
X19328Y4367D01*
X20257D02*
X20293Y4331D01*
X26378Y7228D02*
X27775Y8625D01*
X19685Y26378D02*
X20866D01*
X34154Y25886D02*
Y27165D01*
X33071Y24803D02*
X34154Y25886D01*
X20866Y26378D02*
X24803Y22441D01*
X33071Y22835D02*
Y24803D01*
X32816Y8013D02*
X33495D01*
X32507Y10013D02*
X32895D01*
X37795Y5512D02*
X37895Y5412D01*
X37795Y5512D02*
Y6299D01*
X12598Y19291D02*
Y23228D01*
X11811D02*
X12598D01*
X32821Y7087D02*
X32895Y7013D01*
X32677Y7087D02*
X32821D01*
X32459Y9449D02*
X32895Y9013D01*
X34252Y14567D02*
X37795D01*
X29528Y2756D02*
Y3543D01*
X29134Y2362D02*
X29528Y2756D01*
X21654Y8268D02*
Y8268D01*
X23917Y689D02*
Y1181D01*
X23622Y394D02*
X23917Y689D01*
X19587Y394D02*
X23622D01*
X18799Y1181D02*
X19587Y394D01*
X13386Y5512D02*
X14567Y6693D01*
X4724Y3937D02*
Y5512D01*
X5512Y7480D02*
Y8268D01*
X7087Y9843D01*
X7874Y7480D02*
Y9843D01*
X7480Y7480D02*
X7874D01*
X6299Y6299D02*
X7480Y7480D01*
X5512Y6299D02*
X6299D01*
X4724Y7087D02*
X5512Y6299D01*
X4724Y7087D02*
Y9055D01*
X5512Y9843D01*
X5906D01*
X8661Y6693D02*
Y8661D01*
X7480Y5512D02*
X8661Y6693D01*
X4724Y5512D02*
X7480D01*
X7087Y9843D02*
X7874Y10630D01*
X20079D01*
X10249Y5524D02*
X10655Y5118D01*
X14961D01*
X11024Y7874D02*
X11811Y8661D01*
X12205D01*
X16040Y6794D02*
X20180D01*
X15354Y7480D02*
X16040Y6794D01*
X13386Y7480D02*
X15354D01*
X12598Y6693D02*
X13386Y7480D01*
X11811Y5512D02*
X13386D01*
X8661Y8661D02*
X11811Y5512D01*
X11417Y6693D02*
X12598D01*
X23622Y12205D02*
X24803Y13386D01*
Y22441D01*
X30709Y11024D02*
X34252Y14567D01*
X23622Y11024D02*
Y12205D01*
X32337Y9843D02*
X32507Y10013D01*
X27953Y9055D02*
X28144Y9246D01*
X22770Y9384D02*
X22912Y9526D01*
X31689Y9806D02*
X32895Y11013D01*
X31805Y9526D02*
X32121Y9843D01*
X32337D01*
X28144Y9246D02*
X31921D01*
X32123Y9449D01*
X32459D01*
X28472Y8966D02*
X30798D01*
X32677Y7087D01*
X27345Y9055D02*
X27775Y8625D01*
X28131D01*
X28472Y8966D01*
X22912Y9526D02*
X31805D01*
X28172Y7655D02*
X28310Y7517D01*
Y6909D02*
Y7517D01*
X28740Y7087D02*
X29134Y6693D01*
X30317D01*
X28310Y6909D02*
X28806Y6413D01*
X30201D01*
X29130Y7878D02*
X29921Y7087D01*
X31102D01*
X30317Y6693D02*
X30709Y6301D01*
X30201Y6019D02*
Y6413D01*
Y6019D02*
X31496Y4724D01*
D29*
X31102Y20866D02*
X31496Y20472D01*
X31102Y20866D02*
Y21260D01*
X31496Y22441D02*
X31890Y22047D01*
X31102Y22835D02*
X31496Y22441D01*
X31102Y21260D02*
X31496D01*
X29921D02*
X31102D01*
X29921Y22047D02*
Y22835D01*
Y21260D02*
Y22047D01*
Y20472D02*
Y21260D01*
X31496D02*
X31890Y21654D01*
Y22047D01*
X30709Y22835D02*
X31102D01*
X29921D02*
X30709D01*
X29921Y20472D02*
X31102Y19291D01*
Y17323D02*
Y19291D01*
X30315Y16535D02*
X31102Y17323D01*
X18799Y27165D02*
X19587Y27953D01*
X22441D01*
X22933Y27461D01*
Y27165D02*
Y27461D01*
X23917Y27165D02*
Y27461D01*
X24409Y27953D01*
X27559D01*
X28051Y27461D01*
Y27165D02*
Y27461D01*
X29035Y27165D02*
Y27461D01*
X29528Y27953D01*
X32677D01*
X33169Y27461D01*
Y27165D02*
Y27461D01*
D30*
X34295Y7013D02*
X34895D01*
X34295Y8013D02*
X34895D01*
X34295Y9013D02*
X34895D01*
X34295Y10013D02*
X34895D01*
X34295Y11013D02*
X34895D01*
X32895D02*
X33495D01*
X32895Y10013D02*
X33495D01*
X32895Y9013D02*
X33495D01*
X32895Y7013D02*
X33495D01*
D31*
X35695Y5013D02*
X36509D01*
X37795Y6299D01*
X36122Y23819D02*
X37795Y22146D01*
Y6299D02*
Y14567D01*
Y22146D01*
D32*
X6594Y25689D02*
Y27165D01*
Y25689D02*
X6693Y25591D01*
X8268D01*
X8563Y25886D02*
Y27165D01*
X12697D02*
Y27854D01*
X13681Y24803D02*
Y27165D01*
X2067Y12008D02*
X2165D01*
X8268Y25591D02*
X8563Y25886D01*
X11024Y25591D02*
X11713Y26280D01*
Y27165D01*
X8268Y25591D02*
X9843D01*
X11024D01*
D33*
X9862Y21280D02*
X11437D01*
X9843Y21260D02*
X9862Y21280D01*
D34*
X1181Y19705D02*
X2067Y18819D01*
X1181Y19705D02*
Y27559D01*
X1575Y27953D01*
X12598D02*
X12697Y27854D01*
X1575Y27953D02*
X12598D01*
X28740Y12992D02*
Y14567D01*
Y12992D02*
X30709Y11024D01*
D35*
X2953Y12008D02*
X9843Y18898D01*
X2165Y12008D02*
X2953D01*
X9843Y21260D02*
Y25591D01*
Y18898D02*
Y21260D01*
D36*
X20571Y23917D02*
X23327Y20669D01*
X13681Y24803D02*
X19685D01*
X20571Y23917D01*
X23327Y15453D02*
Y20669D01*
X19882Y12008D02*
X23327Y15453D01*
X17618Y12008D02*
X19882D01*
D40*
X34154Y1181D02*
D03*
X33169D02*
D03*
X32185D02*
D03*
X23917D02*
D03*
X22933D02*
D03*
X21949D02*
D03*
X29035D02*
D03*
X28051D02*
D03*
X27067D02*
D03*
X13681D02*
D03*
X12697D02*
D03*
X11713D02*
D03*
X18799D02*
D03*
X17815D02*
D03*
X16831D02*
D03*
X26083Y27165D02*
D03*
X27067D02*
D03*
X28051D02*
D03*
X20965D02*
D03*
X21949D02*
D03*
X22933D02*
D03*
X15846D02*
D03*
X16831D02*
D03*
X17815D02*
D03*
X5610D02*
D03*
X6594D02*
D03*
X7579D02*
D03*
X10728D02*
D03*
X11713D02*
D03*
X12697D02*
D03*
X31201D02*
D03*
X32185D02*
D03*
X33169D02*
D03*
D41*
X31201Y1181D02*
D03*
X20965D02*
D03*
X26083D02*
D03*
X10728D02*
D03*
X15846D02*
D03*
X29035Y27165D02*
D03*
X23917D02*
D03*
X18799D02*
D03*
X8563D02*
D03*
X13681D02*
D03*
X34154D02*
D03*
D42*
X2953Y2362D02*
D03*
X36417D02*
D03*
Y25984D02*
D03*
X2953D02*
D03*
D43*
X36122Y23819D02*
D03*
X20571D02*
D03*
Y17008D02*
D03*
X36122D02*
D03*
X2067Y12008D02*
D03*
X17618D02*
D03*
Y18819D02*
D03*
X2067D02*
D03*
D44*
X35695Y12013D02*
D03*
Y5013D02*
D03*
Y6013D02*
D03*
Y7013D02*
D03*
Y8013D02*
D03*
Y9013D02*
D03*
Y10013D02*
D03*
Y11013D02*
D03*
D45*
Y13013D02*
D03*
D46*
X26090Y12099D02*
D03*
X27454Y10735D02*
D03*
D47*
X5512Y20079D02*
D03*
X6299D02*
D03*
X7087D02*
D03*
X7874D02*
D03*
X7087Y20866D02*
D03*
X6299D02*
D03*
X5512D02*
D03*
Y21654D02*
D03*
X6299D02*
D03*
X7087D02*
D03*
X7874Y20866D02*
D03*
Y21654D02*
D03*
X30315Y16535D02*
D03*
X18898Y7874D02*
D03*
X22770Y9384D02*
D03*
X21897Y9693D02*
D03*
X21260Y10630D02*
D03*
X23622Y11024D02*
D03*
X21654Y8268D02*
D03*
X20965Y7579D02*
D03*
X20180Y6794D02*
D03*
X22514Y8268D02*
D03*
X22061Y9077D02*
D03*
X18504Y4724D02*
D03*
X17710Y3536D02*
D03*
X25591Y5448D02*
D03*
X26003Y4743D02*
D03*
X27165Y4724D02*
D03*
X27953Y5513D02*
D03*
X24409Y5118D02*
D03*
X23622Y5118D02*
D03*
Y3937D02*
D03*
X23498Y5815D02*
D03*
X21654Y2362D02*
D03*
X20866Y3150D02*
D03*
X25087Y4010D02*
D03*
X25068Y7087D02*
D03*
X27559Y3150D02*
D03*
X20079Y3937D02*
D03*
X19291Y4331D02*
D03*
X24409Y8661D02*
D03*
X34895Y8013D02*
D03*
Y7013D02*
D03*
X32895Y10013D02*
D03*
Y9013D02*
D03*
X11437Y21280D02*
D03*
X7874Y24016D02*
D03*
Y23228D02*
D03*
Y22441D02*
D03*
X7087D02*
D03*
X6299D02*
D03*
X5512D02*
D03*
Y23228D02*
D03*
X6299D02*
D03*
X7087D02*
D03*
Y24016D02*
D03*
X6299D02*
D03*
X5512D02*
D03*
X19685Y26378D02*
D03*
X33071Y22835D02*
D03*
X32816Y8013D02*
D03*
X37895Y5412D02*
D03*
X32895Y7013D02*
D03*
X10324Y20079D02*
D03*
X12598Y19291D02*
D03*
X11811Y23228D02*
D03*
X34895Y11013D02*
D03*
Y9013D02*
D03*
Y10013D02*
D03*
X32895Y11013D02*
D03*
X29921Y22835D02*
D03*
Y20472D02*
D03*
Y21260D02*
D03*
Y22047D02*
D03*
X30709Y22835D02*
D03*
X31496Y22441D02*
D03*
X31890Y21654D02*
D03*
X31102Y21260D02*
D03*
X31496Y20472D02*
D03*
X5512Y7480D02*
D03*
X7874Y7480D02*
D03*
X5906Y9843D02*
D03*
X12094Y7480D02*
D03*
X4724Y5512D02*
D03*
Y3937D02*
D03*
X7087Y9843D02*
D03*
X7874D02*
D03*
X8661Y8661D02*
D03*
X14567Y6693D02*
D03*
X28051Y4232D02*
D03*
X29035Y3051D02*
D03*
X26378Y3150D02*
D03*
X17323Y7874D02*
D03*
X20079Y10630D02*
D03*
X10249Y5524D02*
D03*
X14961Y5118D02*
D03*
X11024Y7874D02*
D03*
X12205Y8661D02*
D03*
X19685Y9055D02*
D03*
X11417Y6693D02*
D03*
X12992Y3150D02*
D03*
X28740Y14567D02*
D03*
X30709Y11024D02*
D03*
X27953Y9055D02*
D03*
X28172Y7655D02*
D03*
X29130Y7878D02*
D03*
X28740Y7087D02*
D03*
X31102Y7087D02*
D03*
X30709Y6301D02*
D03*
X31496Y4724D02*
D03*
D48*
X5315Y22244D02*
D03*
M02*
