%FSLAX24Y24*%
%MOIN*%
G70*
G01*
G75*
G04 Layer_Physical_Order=1*
G04 Layer_Color=255*
%ADD10R,0.0400X0.0500*%
%ADD11R,0.0360X0.0500*%
%ADD12R,0.0360X0.0360*%
%ADD13R,0.0500X0.0400*%
%ADD14R,0.0800X0.0240*%
%ADD15O,0.0800X0.0240*%
%ADD16R,0.0500X0.0360*%
%ADD17R,0.0360X0.0360*%
%ADD18R,0.0590X0.0790*%
%ADD19R,0.1500X0.0790*%
G04:AMPARAMS|DCode=20|XSize=40mil|YSize=50mil|CornerRadius=0mil|HoleSize=0mil|Usage=FLASHONLY|Rotation=135.000|XOffset=0mil|YOffset=0mil|HoleType=Round|Shape=Rectangle|*
%AMROTATEDRECTD20*
4,1,4,0.0318,0.0035,-0.0035,-0.0318,-0.0318,-0.0035,0.0035,0.0318,0.0318,0.0035,0.0*
%
%ADD20ROTATEDRECTD20*%

%ADD21P,0.0424X4X360.0*%
G04:AMPARAMS|DCode=22|XSize=40mil|YSize=50mil|CornerRadius=0mil|HoleSize=0mil|Usage=FLASHONLY|Rotation=225.000|XOffset=0mil|YOffset=0mil|HoleType=Round|Shape=Rectangle|*
%AMROTATEDRECTD22*
4,1,4,-0.0035,0.0318,0.0318,-0.0035,0.0035,-0.0318,-0.0318,0.0035,-0.0035,0.0318,0.0*
%
%ADD22ROTATEDRECTD22*%

%ADD23O,0.1181X0.0472*%
%ADD24R,0.2559X0.2323*%
G04:AMPARAMS|DCode=25|XSize=21.7mil|YSize=65mil|CornerRadius=0mil|HoleSize=0mil|Usage=FLASHONLY|Rotation=315.000|XOffset=0mil|YOffset=0mil|HoleType=Round|Shape=Round|*
%AMOVALD25*
21,1,0.0433,0.0217,0.0000,0.0000,45.0*
1,1,0.0217,-0.0153,-0.0153*
1,1,0.0217,0.0153,0.0153*
%
%ADD25OVALD25*%

G04:AMPARAMS|DCode=26|XSize=21.7mil|YSize=65mil|CornerRadius=0mil|HoleSize=0mil|Usage=FLASHONLY|Rotation=225.000|XOffset=0mil|YOffset=0mil|HoleType=Round|Shape=Round|*
%AMOVALD26*
21,1,0.0433,0.0217,0.0000,0.0000,315.0*
1,1,0.0217,-0.0153,0.0153*
1,1,0.0217,0.0153,-0.0153*
%
%ADD26OVALD26*%

%ADD27R,0.0335X0.0157*%
%ADD28C,0.0200*%
%ADD29C,0.0400*%
%ADD30C,0.0300*%
%ADD31C,0.0600*%
%ADD32C,0.0800*%
%ADD33C,0.0150*%
%ADD34C,0.0500*%
%ADD35C,0.1500*%
%ADD36C,0.2000*%
%ADD37C,0.0100*%
%ADD38R,0.2362X0.5118*%
%ADD39R,0.4331X0.6299*%
G04:AMPARAMS|DCode=40|XSize=70mil|YSize=70mil|CornerRadius=17.5mil|HoleSize=0mil|Usage=FLASHONLY|Rotation=0.000|XOffset=0mil|YOffset=0mil|HoleType=Round|Shape=RoundedRectangle|*
%AMROUNDEDRECTD40*
21,1,0.0700,0.0350,0,0,0.0*
21,1,0.0350,0.0700,0,0,0.0*
1,1,0.0350,0.0175,-0.0175*
1,1,0.0350,-0.0175,-0.0175*
1,1,0.0350,-0.0175,0.0175*
1,1,0.0350,0.0175,0.0175*
%
%ADD40ROUNDEDRECTD40*%
%ADD41R,0.0700X0.0700*%
%ADD42C,0.1575*%
G04:AMPARAMS|DCode=43|XSize=98.4mil|YSize=98.4mil|CornerRadius=24.6mil|HoleSize=0mil|Usage=FLASHONLY|Rotation=270.000|XOffset=0mil|YOffset=0mil|HoleType=Round|Shape=RoundedRectangle|*
%AMROUNDEDRECTD43*
21,1,0.0984,0.0492,0,0,270.0*
21,1,0.0492,0.0984,0,0,270.0*
1,1,0.0492,-0.0246,-0.0246*
1,1,0.0492,-0.0246,0.0246*
1,1,0.0492,0.0246,0.0246*
1,1,0.0492,0.0246,-0.0246*
%
%ADD43ROUNDEDRECTD43*%
%ADD44C,0.0591*%
%ADD45R,0.0591X0.0591*%
%ADD46C,0.0600*%
%ADD47C,0.0500*%
G36*
X38976Y429D02*
X38941Y394D01*
X24903D01*
X24884Y440D01*
X25337Y893D01*
X25337Y893D01*
X25385Y956D01*
X25415Y1029D01*
X25415Y1029D01*
X25415Y1029D01*
X25426Y1107D01*
X25426Y1107D01*
Y2700D01*
X25525D01*
X25780Y2445D01*
Y1731D01*
X25533D01*
Y631D01*
X26633D01*
Y676D01*
X26678Y698D01*
X26703Y679D01*
X26794Y641D01*
X26892Y628D01*
X27242D01*
X27340Y641D01*
X27431Y679D01*
X27509Y739D01*
X27534Y771D01*
X27584D01*
X27609Y739D01*
X27687Y679D01*
X27778Y641D01*
X27876Y628D01*
X28226D01*
X28324Y641D01*
X28415Y679D01*
X28494Y739D01*
X28518Y771D01*
X28568D01*
X28593Y739D01*
X28671Y679D01*
X28763Y641D01*
X28860Y628D01*
X29210D01*
X29308Y641D01*
X29400Y679D01*
X29478Y739D01*
X29538Y817D01*
X29576Y908D01*
X29589Y1006D01*
Y1356D01*
X29576Y1454D01*
X29538Y1545D01*
X29478Y1624D01*
X29400Y1684D01*
X29338Y1709D01*
Y2716D01*
X29356Y2730D01*
X29429Y2824D01*
X29474Y2934D01*
X29489Y3051D01*
X29474Y3169D01*
X29429Y3278D01*
X29356Y3372D01*
X29262Y3444D01*
X29153Y3490D01*
X29035Y3505D01*
X28918Y3490D01*
X28808Y3444D01*
X28714Y3372D01*
X28642Y3278D01*
X28597Y3169D01*
X28582Y3051D01*
X28597Y2934D01*
X28642Y2824D01*
X28714Y2730D01*
X28733Y2716D01*
Y1709D01*
X28671Y1684D01*
X28593Y1624D01*
X28568Y1591D01*
X28518D01*
X28494Y1624D01*
X28415Y1684D01*
X28354Y1709D01*
Y3897D01*
X28372Y3911D01*
X28444Y4005D01*
X28490Y4115D01*
X28505Y4232D01*
X28490Y4350D01*
X28444Y4459D01*
X28372Y4553D01*
X28278Y4625D01*
X28169Y4671D01*
X28051Y4686D01*
X27934Y4671D01*
X27824Y4625D01*
X27730Y4553D01*
X27658Y4459D01*
X27613Y4350D01*
X27597Y4232D01*
X27613Y4115D01*
X27658Y4005D01*
X27730Y3911D01*
X27749Y3897D01*
Y3847D01*
X27702Y3828D01*
X27287Y4243D01*
X27297Y4292D01*
X27392Y4331D01*
X27486Y4403D01*
X27558Y4497D01*
X27604Y4607D01*
X27619Y4724D01*
X27612Y4778D01*
X27652Y4809D01*
X27696Y4790D01*
X27775Y4780D01*
X28136D01*
X28215Y4790D01*
X28266Y4812D01*
X28288Y4821D01*
X28350Y4869D01*
X30334Y6852D01*
X30382Y6915D01*
X30412Y6988D01*
X30422Y7066D01*
Y7554D01*
X30579Y7710D01*
X32481D01*
X32495Y7692D01*
X32589Y7620D01*
X32698Y7574D01*
X32816Y7559D01*
X32933Y7574D01*
X33043Y7620D01*
X33050Y7625D01*
X33095Y7603D01*
Y7563D01*
X34695D01*
Y7563D01*
X34737Y7591D01*
X34778Y7574D01*
X34895Y7559D01*
X35013Y7574D01*
X35122Y7620D01*
X35174Y7660D01*
X35342D01*
X35342Y7659D01*
X35445Y7580D01*
X35548Y7538D01*
Y7488D01*
X35445Y7445D01*
X35342Y7366D01*
X35342Y7366D01*
X35174D01*
X35122Y7406D01*
X35013Y7451D01*
X34895Y7466D01*
X34778Y7451D01*
X34737Y7434D01*
X34695Y7462D01*
Y7463D01*
X33095D01*
Y7462D01*
X33054Y7434D01*
X33013Y7451D01*
X32895Y7466D01*
X32778Y7451D01*
X32668Y7406D01*
X32574Y7334D01*
X32502Y7240D01*
X32457Y7130D01*
X32441Y7013D01*
X32457Y6895D01*
X32502Y6786D01*
X32574Y6692D01*
X32668Y6620D01*
X32778Y6574D01*
X32895Y6559D01*
X33013Y6574D01*
X33054Y6591D01*
X33095Y6563D01*
Y6563D01*
X33295D01*
Y6802D01*
X33334Y6895D01*
X33349Y7013D01*
X33695D01*
Y6563D01*
X34695D01*
Y6563D01*
X34737Y6591D01*
X34778Y6574D01*
X34895Y6559D01*
X35013Y6574D01*
X35122Y6620D01*
X35174Y6660D01*
X35342D01*
X35342Y6659D01*
X35445Y6580D01*
X35548Y6538D01*
Y6488D01*
X35445Y6445D01*
X35342Y6366D01*
X35263Y6262D01*
X35242Y6213D01*
X35695D01*
Y5813D01*
X35242D01*
X35263Y5763D01*
X35342Y5659D01*
X35445Y5580D01*
X35542Y5540D01*
Y5490D01*
X35443Y5449D01*
X35339Y5369D01*
X35259Y5265D01*
X35208Y5143D01*
X35191Y5013D01*
X35208Y4882D01*
X35259Y4760D01*
X35339Y4656D01*
X35443Y4576D01*
X35565Y4525D01*
X35695Y4508D01*
X36395D01*
X36526Y4525D01*
X36647Y4576D01*
X36650Y4578D01*
X36695Y4556D01*
Y4531D01*
X37095D01*
Y4331D01*
X37295D01*
Y3881D01*
X38295D01*
Y4781D01*
X38198D01*
Y5077D01*
X38216Y5091D01*
X38288Y5185D01*
X38334Y5294D01*
X38349Y5412D01*
X38334Y5529D01*
X38288Y5639D01*
X38216Y5733D01*
X38122Y5805D01*
X38013Y5850D01*
X37895Y5866D01*
X37778Y5850D01*
X37668Y5805D01*
X37574Y5733D01*
X37502Y5639D01*
X37457Y5529D01*
X37441Y5412D01*
X37457Y5294D01*
X37502Y5185D01*
X37574Y5091D01*
X37593Y5077D01*
Y4781D01*
X36942D01*
X36923Y4827D01*
X36952Y4856D01*
X37032Y4960D01*
X37082Y5082D01*
X37100Y5213D01*
Y13613D01*
X37082Y13743D01*
X37032Y13865D01*
X36952Y13969D01*
X36652Y14269D01*
X36547Y14349D01*
X36426Y14400D01*
X36295Y14417D01*
X34595D01*
X34595Y14417D01*
X34465Y14400D01*
X34343Y14349D01*
X34239Y14269D01*
X34144Y14175D01*
X34098Y14194D01*
Y14628D01*
X34445D01*
Y15818D01*
X33576D01*
X33495Y15826D01*
X33415Y15818D01*
X32545D01*
Y15626D01*
X31671D01*
X31671Y15626D01*
X31566Y15612D01*
X31469Y15572D01*
X31385Y15508D01*
X31385Y15508D01*
X31288Y15411D01*
X30809D01*
Y14961D01*
Y14511D01*
X31809D01*
Y14790D01*
X31838Y14819D01*
X32545D01*
Y14628D01*
X32892D01*
Y13338D01*
X32785D01*
Y12743D01*
Y12148D01*
X33142D01*
Y12013D01*
X33154Y11921D01*
X33190Y11836D01*
X33246Y11763D01*
X33346Y11663D01*
X33419Y11607D01*
X33504Y11572D01*
X33595Y11560D01*
X35495D01*
X35548Y11538D01*
Y11488D01*
X35445Y11445D01*
X35342Y11366D01*
X35342Y11366D01*
X35174D01*
X35122Y11406D01*
X35013Y11451D01*
X34895Y11466D01*
X34778Y11451D01*
X34737Y11434D01*
X34695Y11462D01*
Y11463D01*
X33695D01*
Y11013D01*
X33349D01*
X33334Y11130D01*
X33295Y11223D01*
Y11463D01*
X33095D01*
Y11462D01*
X33054Y11434D01*
X33013Y11451D01*
X32895Y11466D01*
X32778Y11451D01*
X32668Y11406D01*
X32574Y11334D01*
X32502Y11240D01*
X32457Y11130D01*
X32441Y11013D01*
X32457Y10895D01*
X32502Y10786D01*
X32574Y10692D01*
X32668Y10620D01*
X32778Y10574D01*
X32895Y10559D01*
X33013Y10574D01*
X33054Y10591D01*
X33095Y10563D01*
Y10563D01*
X34695D01*
Y10563D01*
X34737Y10591D01*
X34778Y10574D01*
X34895Y10559D01*
X35013Y10574D01*
X35122Y10620D01*
X35174Y10660D01*
X35342D01*
X35342Y10659D01*
X35445Y10580D01*
X35548Y10538D01*
Y10488D01*
X35445Y10445D01*
X35342Y10366D01*
X35342Y10366D01*
X35174D01*
X35122Y10406D01*
X35013Y10451D01*
X34895Y10466D01*
X34778Y10451D01*
X34737Y10434D01*
X34695Y10462D01*
Y10463D01*
X33095D01*
Y10462D01*
X33054Y10434D01*
X33013Y10451D01*
X32895Y10466D01*
X32778Y10451D01*
X32668Y10406D01*
X32574Y10334D01*
X32502Y10240D01*
X32457Y10130D01*
X32441Y10013D01*
X32457Y9895D01*
X32502Y9786D01*
X32574Y9692D01*
X32668Y9620D01*
X32778Y9574D01*
X32895Y9559D01*
X33013Y9574D01*
X33054Y9591D01*
X33095Y9563D01*
Y9563D01*
X34695D01*
Y9563D01*
X34737Y9591D01*
X34778Y9574D01*
X34895Y9559D01*
X35013Y9574D01*
X35122Y9620D01*
X35174Y9660D01*
X35342D01*
X35342Y9659D01*
X35445Y9580D01*
X35548Y9538D01*
Y9488D01*
X35445Y9445D01*
X35342Y9366D01*
X35342Y9366D01*
X35174D01*
X35122Y9406D01*
X35013Y9451D01*
X34895Y9466D01*
X34778Y9451D01*
X34737Y9434D01*
X34695Y9462D01*
Y9463D01*
X33095D01*
Y9462D01*
X33054Y9434D01*
X33013Y9451D01*
X32895Y9466D01*
X32778Y9451D01*
X32668Y9406D01*
X32574Y9334D01*
X32502Y9240D01*
X32457Y9130D01*
X32441Y9013D01*
X32457Y8895D01*
X32502Y8786D01*
X32574Y8692D01*
X32668Y8620D01*
X32778Y8574D01*
X32895Y8559D01*
X33013Y8574D01*
X33054Y8591D01*
X33095Y8563D01*
Y8563D01*
X34695D01*
Y8563D01*
X34737Y8591D01*
X34778Y8574D01*
X34895Y8559D01*
X35013Y8574D01*
X35122Y8620D01*
X35174Y8660D01*
X35342D01*
X35342Y8659D01*
X35445Y8580D01*
X35548Y8538D01*
Y8488D01*
X35445Y8445D01*
X35342Y8366D01*
X35342Y8366D01*
X35174D01*
X35122Y8406D01*
X35013Y8451D01*
X34895Y8466D01*
X34778Y8451D01*
X34737Y8434D01*
X34695Y8462D01*
Y8463D01*
X33095D01*
Y8422D01*
X33050Y8400D01*
X33043Y8406D01*
X32933Y8451D01*
X32816Y8466D01*
X32698Y8451D01*
X32589Y8406D01*
X32495Y8334D01*
X32481Y8315D01*
X30454D01*
X30454Y8315D01*
X30375Y8305D01*
X30302Y8275D01*
X30288Y8263D01*
X30269Y8249D01*
X30224Y8271D01*
Y8803D01*
X30214Y8881D01*
X30183Y8954D01*
X30135Y9017D01*
X29737Y9415D01*
X29806Y9484D01*
X29701Y9588D01*
X30686Y10573D01*
X30709Y10570D01*
X30826Y10585D01*
X30936Y10631D01*
X31030Y10703D01*
X31102Y10797D01*
X31147Y10906D01*
X31163Y11024D01*
X31147Y11141D01*
X31102Y11251D01*
X31030Y11345D01*
X30936Y11417D01*
X30826Y11462D01*
X30709Y11478D01*
X30591Y11462D01*
X30482Y11417D01*
X30388Y11345D01*
X30316Y11251D01*
X30270Y11141D01*
X30255Y11024D01*
X30258Y11001D01*
X29273Y10016D01*
X29169Y10121D01*
X29100Y10052D01*
X29096Y10056D01*
X29033Y10105D01*
X28960Y10135D01*
X28882Y10145D01*
X26999D01*
X26883Y10261D01*
X26820Y10309D01*
X26747Y10339D01*
X26669Y10350D01*
X26462D01*
X26442Y10396D01*
X26768Y10721D01*
X26951D01*
X26967Y10605D01*
X27017Y10483D01*
X27097Y10379D01*
X27202Y10299D01*
X27323Y10248D01*
X27454Y10231D01*
X27584Y10248D01*
X27706Y10299D01*
X27810Y10379D01*
X27890Y10483D01*
X27941Y10605D01*
X27958Y10735D01*
X27949Y10803D01*
X28560Y11414D01*
X28560Y11414D01*
X28597Y11462D01*
X28609Y11477D01*
X28626Y11519D01*
X28639Y11550D01*
X28640Y11559D01*
X28648Y11617D01*
X28841Y11811D01*
X28346Y12306D01*
X28346Y12306D01*
X28099Y12059D01*
X27851Y11811D01*
X27851Y11811D01*
X27958Y11705D01*
Y11667D01*
X27521Y11231D01*
X27454Y11240D01*
X27386Y11231D01*
X27379Y11238D01*
X27317Y11286D01*
X27244Y11316D01*
X27165Y11326D01*
X26681D01*
Y11811D01*
X26670Y11889D01*
X26640Y11962D01*
X26607Y12006D01*
X27107Y12506D01*
X27157D01*
X27165Y12497D01*
X27165Y12497D01*
X27413Y12745D01*
X27660Y12992D01*
X27554Y13098D01*
X27165Y13487D01*
X26670Y12992D01*
X26679Y12984D01*
Y12934D01*
X26299Y12554D01*
X26220Y12586D01*
X26090Y12604D01*
X25959Y12586D01*
X25837Y12536D01*
X25733Y12456D01*
X25653Y12352D01*
X25602Y12230D01*
X25585Y12099D01*
X25602Y11969D01*
X25653Y11847D01*
X25733Y11743D01*
X25837Y11663D01*
X25959Y11612D01*
X26075Y11597D01*
Y11330D01*
X25374Y10628D01*
X25323Y10589D01*
X25017Y10283D01*
X24983D01*
X24712Y10554D01*
Y11686D01*
X28130Y15104D01*
X28179Y15167D01*
X28209Y15240D01*
X28219Y15318D01*
Y18557D01*
X28294Y18631D01*
X30129D01*
X30148Y18585D01*
X28419Y16856D01*
X28347Y16762D01*
X28302Y16653D01*
X28286Y16535D01*
Y14567D01*
X28286Y14567D01*
X28286D01*
X28302Y14449D01*
X28347Y14340D01*
X28419Y14246D01*
X28513Y14174D01*
X28623Y14129D01*
X28740Y14113D01*
X28858Y14129D01*
X28967Y14174D01*
X29061Y14246D01*
X29133Y14340D01*
X29179Y14449D01*
X29194Y14567D01*
Y16347D01*
X30897Y18050D01*
X32677D01*
X32795Y18066D01*
X32859Y18092D01*
X32904Y18111D01*
X32998Y18183D01*
X34967Y20151D01*
X34967Y20152D01*
X34998Y20192D01*
X35039Y20245D01*
X35084Y20355D01*
X35100Y20472D01*
X35100Y20472D01*
Y22155D01*
X35777Y22832D01*
X35936Y22784D01*
X36122Y22766D01*
X36308Y22784D01*
X36487Y22839D01*
X36652Y22927D01*
X36797Y23045D01*
X36916Y23190D01*
X37004Y23355D01*
X37058Y23534D01*
X37077Y23720D01*
Y23819D01*
X37058Y24005D01*
X37004Y24184D01*
X36916Y24349D01*
X36797Y24494D01*
X36652Y24613D01*
X36487Y24701D01*
X36308Y24755D01*
X36122Y24773D01*
X35936Y24755D01*
X35777Y24707D01*
X34179Y26305D01*
X34085Y26377D01*
X34040Y26396D01*
X33976Y26423D01*
X33858Y26438D01*
X32639D01*
Y26738D01*
X32652Y26755D01*
X32702D01*
X32727Y26723D01*
X32805Y26663D01*
X32896Y26625D01*
X32994Y26612D01*
X33344D01*
X33442Y26625D01*
X33533Y26663D01*
X33559Y26682D01*
X33604Y26660D01*
Y26615D01*
X34704D01*
Y27715D01*
X33604D01*
Y27671D01*
X33559Y27649D01*
X33533Y27668D01*
X33442Y27706D01*
X33344Y27719D01*
X32994D01*
X32896Y27706D01*
X32805Y27668D01*
X32727Y27608D01*
X32702Y27576D01*
X32652D01*
X32627Y27608D01*
X32549Y27668D01*
X32458Y27706D01*
X32360Y27719D01*
X32010D01*
X31912Y27706D01*
X31821Y27668D01*
X31743Y27608D01*
X31718Y27576D01*
X31668D01*
X31643Y27608D01*
X31565Y27668D01*
X31474Y27706D01*
X31401Y27715D01*
Y27165D01*
Y26615D01*
X31474Y26625D01*
X31565Y26663D01*
X31643Y26723D01*
X31668Y26755D01*
X31718D01*
X31731Y26738D01*
Y26468D01*
X31702Y26438D01*
X27521D01*
Y26738D01*
X27534Y26755D01*
X27584D01*
X27609Y26723D01*
X27687Y26663D01*
X27778Y26625D01*
X27876Y26612D01*
X28226D01*
X28324Y26625D01*
X28415Y26663D01*
X28441Y26682D01*
X28485Y26660D01*
Y26615D01*
X29585D01*
Y27715D01*
X28485D01*
Y27671D01*
X28441Y27649D01*
X28415Y27668D01*
X28324Y27706D01*
X28226Y27719D01*
X27876D01*
X27778Y27706D01*
X27687Y27668D01*
X27609Y27608D01*
X27584Y27576D01*
X27534D01*
X27509Y27608D01*
X27431Y27668D01*
X27340Y27706D01*
X27242Y27719D01*
X26892D01*
X26794Y27706D01*
X26703Y27668D01*
X26624Y27608D01*
X26600Y27576D01*
X26550D01*
X26525Y27608D01*
X26447Y27668D01*
X26356Y27706D01*
X26283Y27715D01*
Y27165D01*
Y26615D01*
X26356Y26625D01*
X26447Y26663D01*
X26525Y26723D01*
X26550Y26755D01*
X26600D01*
X26613Y26738D01*
Y26468D01*
X26584Y26438D01*
X22403D01*
Y26738D01*
X22416Y26755D01*
X22466D01*
X22491Y26723D01*
X22569Y26663D01*
X22660Y26625D01*
X22758Y26612D01*
X23108D01*
X23206Y26625D01*
X23297Y26663D01*
X23322Y26682D01*
X23367Y26660D01*
Y26615D01*
X24467D01*
Y27715D01*
X23367D01*
Y27671D01*
X23322Y27649D01*
X23297Y27668D01*
X23206Y27706D01*
X23108Y27719D01*
X22758D01*
X22660Y27706D01*
X22569Y27668D01*
X22491Y27608D01*
X22466Y27576D01*
X22416D01*
X22391Y27608D01*
X22313Y27668D01*
X22222Y27706D01*
X22124Y27719D01*
X21774D01*
X21676Y27706D01*
X21585Y27668D01*
X21506Y27608D01*
X21482Y27576D01*
X21432D01*
X21407Y27608D01*
X21329Y27668D01*
X21237Y27706D01*
X21165Y27715D01*
Y27165D01*
Y26615D01*
X21237Y26625D01*
X21329Y26663D01*
X21407Y26723D01*
X21432Y26755D01*
X21482D01*
X21495Y26738D01*
Y26468D01*
X21333Y26305D01*
X21333Y26305D01*
X21333Y26305D01*
X21072Y26044D01*
X20053D01*
X20031Y26089D01*
X20078Y26151D01*
X20123Y26260D01*
X20139Y26378D01*
X20123Y26495D01*
X20078Y26605D01*
X20006Y26699D01*
X19912Y26771D01*
X19803Y26816D01*
X19685Y26832D01*
X19568Y26816D01*
X19458Y26771D01*
X19394Y26722D01*
X19349Y26744D01*
Y27715D01*
X18249D01*
Y27671D01*
X18204Y27649D01*
X18179Y27668D01*
X18088Y27706D01*
X17990Y27719D01*
X17640D01*
X17542Y27706D01*
X17451Y27668D01*
X17373Y27608D01*
X17348Y27576D01*
X17298D01*
X17273Y27608D01*
X17195Y27668D01*
X17104Y27706D01*
X17006Y27719D01*
X16656D01*
X16558Y27706D01*
X16467Y27668D01*
X16388Y27608D01*
X16364Y27576D01*
X16314D01*
X16289Y27608D01*
X16211Y27668D01*
X16119Y27706D01*
X16046Y27715D01*
Y27165D01*
Y26615D01*
X16119Y26625D01*
X16211Y26663D01*
X16289Y26723D01*
X16314Y26755D01*
X16364D01*
X16388Y26723D01*
X16412Y26705D01*
X16424Y26676D01*
X16438Y26643D01*
X16510Y26549D01*
X17789Y25270D01*
X17883Y25197D01*
X17993Y25152D01*
X18110Y25137D01*
X21260D01*
X21377Y25152D01*
X21441Y25179D01*
X21487Y25197D01*
X21581Y25270D01*
X21581Y25270D01*
X21581Y25270D01*
X21842Y25530D01*
X33670D01*
X35131Y24069D01*
X35112Y24023D01*
X29626D01*
X29626Y24023D01*
X29557Y24014D01*
X29548Y24013D01*
X29511Y23998D01*
X29475Y23983D01*
X29412Y23934D01*
X21528Y16051D01*
X17842D01*
X16838Y17054D01*
Y19560D01*
X17537Y20258D01*
X17537Y20258D01*
X17574Y20307D01*
X17585Y20321D01*
X17615Y20394D01*
X17625Y20472D01*
X17625Y20472D01*
Y21654D01*
X17615Y21732D01*
X17585Y21805D01*
X17537Y21868D01*
X17537Y21868D01*
X17324Y22080D01*
X17262Y22128D01*
X17240Y22137D01*
X17189Y22158D01*
X17110Y22169D01*
X16731D01*
X16704Y22210D01*
X16733Y22283D01*
X16744Y22366D01*
X16733Y22450D01*
X16701Y22528D01*
X16650Y22594D01*
Y22638D01*
X16672Y22666D01*
X15612D01*
X15634Y22638D01*
Y22594D01*
X15612Y22566D01*
X16142D01*
Y22189D01*
X15862D01*
X15778Y22178D01*
X15756Y22169D01*
X15562D01*
X15555Y22168D01*
X15555Y22168D01*
X15493Y22160D01*
X15484Y22158D01*
X15454Y22146D01*
X15411Y22128D01*
X15396Y22117D01*
X15348Y22080D01*
X15348Y22080D01*
X14586Y21318D01*
X14541Y21340D01*
X14544Y21366D01*
X14533Y21450D01*
X14501Y21528D01*
X14450Y21594D01*
Y21638D01*
X14501Y21705D01*
X14533Y21783D01*
X14544Y21866D01*
X14533Y21950D01*
X14501Y22028D01*
X14450Y22094D01*
Y22138D01*
X14501Y22205D01*
X14533Y22283D01*
X14544Y22366D01*
X14533Y22450D01*
X14501Y22528D01*
X14450Y22594D01*
Y22638D01*
X14501Y22705D01*
X14533Y22783D01*
X14544Y22866D01*
X14533Y22950D01*
X14501Y23028D01*
X14450Y23094D01*
Y23138D01*
X14501Y23205D01*
X14533Y23283D01*
X14544Y23366D01*
X14533Y23450D01*
X14501Y23528D01*
X14450Y23594D01*
Y23638D01*
X14501Y23705D01*
X14533Y23783D01*
X14544Y23866D01*
X14533Y23950D01*
X14501Y24028D01*
X14450Y24094D01*
X14383Y24146D01*
X14305Y24178D01*
X14222Y24189D01*
X13662D01*
X13578Y24178D01*
X13500Y24146D01*
X13434Y24094D01*
X13382Y24028D01*
X13350Y23950D01*
X13339Y23866D01*
X13350Y23783D01*
X13382Y23705D01*
X13434Y23638D01*
Y23594D01*
X13382Y23528D01*
X13350Y23450D01*
X13339Y23366D01*
X13350Y23283D01*
X13382Y23205D01*
X13395Y23188D01*
X13373Y23144D01*
X13024D01*
X12952Y23134D01*
X12913Y23118D01*
X12885Y23106D01*
X12827Y23062D01*
X12402Y22637D01*
X12360Y22582D01*
X11818D01*
D01*
D01*
X11818Y22582D01*
X11804D01*
Y22582D01*
X11070D01*
Y22581D01*
X10098D01*
X10027Y22571D01*
X9960Y22543D01*
X9902Y22499D01*
X9890Y22487D01*
X9488D01*
X9374Y22472D01*
X9268Y22428D01*
X9177Y22358D01*
X9107Y22267D01*
X9063Y22161D01*
X9048Y22047D01*
X9063Y21933D01*
X9107Y21827D01*
X9177Y21736D01*
X9268Y21666D01*
X9374Y21622D01*
X9488Y21607D01*
X10197D01*
X10311Y21622D01*
X10311Y21622D01*
X10353Y21595D01*
Y21260D01*
X10362Y21188D01*
X10390Y21121D01*
X10434Y21064D01*
X11615Y19883D01*
X11672Y19839D01*
X11739Y19811D01*
X11811Y19801D01*
X12205D01*
X12277Y19811D01*
X12316Y19827D01*
X12343Y19839D01*
X12401Y19883D01*
X12795Y20276D01*
X12839Y20334D01*
X12866Y20401D01*
X12868Y20416D01*
X13405D01*
Y20603D01*
X13450Y20626D01*
X13500Y20587D01*
X13578Y20554D01*
X13662Y20543D01*
X14222D01*
X14234Y20545D01*
X14269Y20510D01*
X14264Y20475D01*
Y17160D01*
X14264Y17160D01*
X14264D01*
X14275Y17081D01*
X14305Y17008D01*
X14353Y16946D01*
X20181Y11118D01*
X20159Y11073D01*
X20079Y11084D01*
X19961Y11068D01*
X19852Y11023D01*
X19758Y10951D01*
X19686Y10857D01*
X19640Y10747D01*
X19625Y10630D01*
X19640Y10512D01*
X19686Y10403D01*
X19758Y10309D01*
X19852Y10237D01*
X19961Y10192D01*
X20079Y10176D01*
X20102Y10179D01*
X20372Y9909D01*
X20372Y9909D01*
X20408Y9881D01*
X20435Y9860D01*
X20465Y9848D01*
X20508Y9830D01*
X20586Y9820D01*
X21422D01*
X21455Y9782D01*
X21443Y9693D01*
X21446Y9670D01*
X21057Y9280D01*
X20963D01*
X20885Y9270D01*
X20812Y9240D01*
X20750Y9192D01*
X20205Y8647D01*
X19970D01*
X19954Y8694D01*
X20006Y8734D01*
X20078Y8828D01*
X20123Y8938D01*
X20139Y9055D01*
X20123Y9173D01*
X20078Y9282D01*
X20006Y9376D01*
X19912Y9448D01*
X19803Y9494D01*
X19685Y9509D01*
X19627Y9501D01*
X19597Y9514D01*
X19519Y9524D01*
X12157D01*
X12157Y9524D01*
X12087Y9515D01*
X12078Y9514D01*
X12005Y9483D01*
X11943Y9435D01*
X11865Y9358D01*
X9180D01*
X8607Y9932D01*
Y10021D01*
X8596Y10099D01*
X8575Y10151D01*
X8566Y10172D01*
X8518Y10235D01*
X7909Y10844D01*
X7846Y10892D01*
X7825Y10901D01*
X7773Y10922D01*
X7695Y10933D01*
X5118D01*
X5118Y10933D01*
X5040Y10922D01*
X4967Y10892D01*
X4952Y10881D01*
X4904Y10844D01*
X4904Y10844D01*
X4353Y10293D01*
X3918D01*
Y9393D01*
X3988D01*
Y8998D01*
X3577D01*
X3577Y8998D01*
X3508Y8989D01*
X3499Y8987D01*
X3477Y8979D01*
X3442Y8964D01*
X2756D01*
X2678Y8954D01*
X2635Y8936D01*
X2605Y8923D01*
X2542Y8875D01*
X2148Y8482D01*
X2100Y8419D01*
X2070Y8346D01*
X2060Y8268D01*
Y5118D01*
X2060Y5118D01*
X2060D01*
X2070Y5040D01*
X2100Y4967D01*
X2148Y4904D01*
X2745Y4308D01*
X2745D01*
X2745Y4308D01*
X2745Y4308D01*
Y4308D01*
X2807Y4260D01*
X2880Y4230D01*
X2880Y4230D01*
X2880Y4230D01*
D01*
X2880Y4230D01*
X2880Y4230D01*
X2959Y4219D01*
X2959Y4219D01*
X4317D01*
X4339Y4174D01*
X4331Y4164D01*
X4320Y4137D01*
X5129D01*
X5117Y4164D01*
X5109Y4174D01*
X5132Y4219D01*
X5195D01*
X5692Y3723D01*
X5754Y3675D01*
X5827Y3645D01*
X5836Y3644D01*
X5906Y3634D01*
X5906Y3634D01*
X8661D01*
X8740Y3645D01*
X8813Y3675D01*
X8875Y3723D01*
X9083Y3931D01*
X9505D01*
Y4028D01*
X12042D01*
Y3507D01*
X12642D01*
X12665Y3462D01*
X12599Y3377D01*
X12588Y3350D01*
X13396D01*
X13385Y3377D01*
X13320Y3462D01*
X13342Y3507D01*
X13942D01*
Y4697D01*
X13295D01*
Y5987D01*
X13702D01*
Y6582D01*
Y7177D01*
X13382D01*
Y7424D01*
X13680D01*
Y7874D01*
X13880D01*
Y8074D01*
X14280D01*
Y8324D01*
D01*
Y8324D01*
X14314Y8359D01*
X15229D01*
X15928Y7660D01*
X15990Y7612D01*
X16012Y7603D01*
X16063Y7582D01*
X16142Y7571D01*
X16988D01*
X17002Y7553D01*
X17096Y7481D01*
X17205Y7436D01*
X17323Y7420D01*
X17346Y7423D01*
X17705Y7064D01*
X17702Y7014D01*
X17677Y6995D01*
X16535D01*
X16535Y6995D01*
X16457Y6985D01*
X16384Y6955D01*
X16321Y6907D01*
X14984Y5569D01*
X14961Y5572D01*
X14843Y5557D01*
X14734Y5511D01*
X14640Y5439D01*
X14568Y5345D01*
X14522Y5236D01*
X14507Y5118D01*
X14522Y5001D01*
X14568Y4891D01*
X14640Y4797D01*
X14734Y4725D01*
X14843Y4680D01*
X14961Y4664D01*
X15078Y4680D01*
X15188Y4725D01*
X15282Y4797D01*
X15354Y4891D01*
X15399Y5001D01*
X15415Y5118D01*
X15411Y5141D01*
X16661Y6390D01*
X19075D01*
X19153Y6401D01*
X19193Y6384D01*
X19208Y6349D01*
X19256Y6286D01*
X21781Y3761D01*
Y2837D01*
X21743Y2804D01*
X21654Y2816D01*
X21536Y2801D01*
X21427Y2755D01*
X21333Y2683D01*
X21319Y2665D01*
X21000D01*
X20990Y2714D01*
X21093Y2757D01*
X21187Y2829D01*
X21259Y2923D01*
X21305Y3032D01*
X21320Y3150D01*
X21305Y3267D01*
X21259Y3377D01*
X21187Y3471D01*
X21093Y3543D01*
X20984Y3588D01*
X20866Y3603D01*
X20749Y3588D01*
X20639Y3543D01*
X20545Y3471D01*
X20531Y3452D01*
X20212D01*
X20203Y3501D01*
X20306Y3544D01*
X20400Y3616D01*
X20472Y3710D01*
X20517Y3820D01*
X20533Y3937D01*
X20517Y4054D01*
X20472Y4164D01*
X20400Y4258D01*
X20306Y4330D01*
X20196Y4375D01*
X20079Y4391D01*
X19961Y4375D01*
X19852Y4330D01*
X19785Y4279D01*
X19742Y4304D01*
X19745Y4331D01*
X19730Y4448D01*
X19684Y4558D01*
X19612Y4652D01*
X19518Y4724D01*
X19409Y4769D01*
X19291Y4785D01*
X19174Y4769D01*
X19064Y4724D01*
X18998Y4673D01*
X18954Y4698D01*
X18958Y4724D01*
X18942Y4842D01*
X18897Y4951D01*
X18825Y5045D01*
X18731Y5117D01*
X18621Y5163D01*
X18504Y5178D01*
X18386Y5163D01*
X18277Y5117D01*
X18183Y5045D01*
X18169Y5027D01*
X16922D01*
X16844Y5017D01*
X16771Y4986D01*
X16708Y4938D01*
X15875Y4105D01*
X15853Y4076D01*
X15229Y3452D01*
X14173D01*
X14095Y3442D01*
X14052Y3424D01*
X14022Y3412D01*
X13959Y3364D01*
X13169Y2574D01*
X11818D01*
X11818Y2574D01*
X11749Y2565D01*
X11740Y2563D01*
X11704Y2548D01*
X11667Y2533D01*
X11604Y2485D01*
X10850Y1731D01*
X10178D01*
Y631D01*
X11278D01*
Y676D01*
X11323Y698D01*
X11348Y679D01*
X11440Y641D01*
X11538Y628D01*
X11888D01*
X11985Y641D01*
X12077Y679D01*
X12155Y739D01*
X12180Y771D01*
X12230D01*
X12254Y739D01*
X12333Y679D01*
X12424Y641D01*
X12522Y628D01*
X12872D01*
X12970Y641D01*
X13061Y679D01*
X13139Y739D01*
X13164Y771D01*
X13214D01*
X13239Y739D01*
X13317Y679D01*
X13408Y641D01*
X13506Y628D01*
X13856D01*
X13954Y641D01*
X14045Y679D01*
X14124Y739D01*
X14184Y817D01*
X14221Y908D01*
X14234Y1006D01*
Y1306D01*
X14594Y1666D01*
X15296D01*
Y631D01*
X16396D01*
Y676D01*
X16441Y698D01*
X16467Y679D01*
X16558Y641D01*
X16656Y628D01*
X17006D01*
X17104Y641D01*
X17195Y679D01*
X17273Y739D01*
X17298Y771D01*
X17348D01*
X17373Y739D01*
X17451Y679D01*
X17517Y651D01*
X17523Y611D01*
X17553Y538D01*
X17601Y475D01*
X17636Y440D01*
X17617Y394D01*
X394D01*
X394Y27917D01*
X429Y27953D01*
X38976D01*
X38976Y429D01*
D02*
G37*
G36*
X35033Y23372D02*
X34325Y22663D01*
X34253Y22569D01*
X34207Y22460D01*
X34192Y22343D01*
Y20660D01*
X32489Y18958D01*
X32050D01*
X32030Y19004D01*
X33285Y20258D01*
X33333Y20321D01*
X33363Y20394D01*
X33373Y20472D01*
X33373Y20472D01*
X33373Y20472D01*
Y20472D01*
Y22500D01*
X33392Y22514D01*
X33464Y22608D01*
X33509Y22717D01*
X33525Y22835D01*
X33509Y22952D01*
X33464Y23062D01*
X33392Y23156D01*
X33298Y23228D01*
X33188Y23273D01*
X33071Y23289D01*
X32953Y23273D01*
X32844Y23228D01*
X32750Y23156D01*
X32678Y23062D01*
X32632Y22952D01*
X32617Y22835D01*
X32632Y22717D01*
X32678Y22608D01*
X32750Y22514D01*
X32768Y22500D01*
Y20598D01*
X31407Y19237D01*
X28168D01*
X28090Y19226D01*
X28038Y19205D01*
X28017Y19196D01*
X27954Y19148D01*
X27702Y18896D01*
X27654Y18833D01*
X27624Y18760D01*
X27614Y18682D01*
Y15443D01*
X24195Y12025D01*
X24147Y11962D01*
X24117Y11889D01*
X24107Y11811D01*
Y11157D01*
X24058Y11147D01*
X24015Y11251D01*
X23943Y11345D01*
X23849Y11417D01*
X23740Y11462D01*
X23622Y11478D01*
X23505Y11462D01*
X23395Y11417D01*
X23301Y11345D01*
X23264Y11296D01*
X23214Y11293D01*
X23181Y11326D01*
X23118Y11375D01*
X23045Y11405D01*
X22967Y11415D01*
X22949D01*
X22732Y11631D01*
X22670Y11679D01*
X22648Y11688D01*
X22597Y11710D01*
X22519Y11720D01*
X20991D01*
X15263Y17448D01*
Y20347D01*
X15480Y20564D01*
X15542D01*
Y20546D01*
X16742D01*
Y21186D01*
X16739D01*
X16711Y21228D01*
X16733Y21283D01*
X16744Y21366D01*
X16733Y21450D01*
X16704Y21522D01*
X16731Y21564D01*
X16985D01*
X17020Y21528D01*
Y20598D01*
X16321Y19899D01*
X16273Y19836D01*
X16243Y19763D01*
X16233Y19685D01*
Y16929D01*
X16233Y16929D01*
X16233D01*
X16243Y16851D01*
X16273Y16778D01*
X16321Y16715D01*
X17503Y15534D01*
X17565Y15486D01*
X17638Y15456D01*
X17717Y15445D01*
X21654D01*
X21732Y15456D01*
X21783Y15477D01*
X21805Y15486D01*
X21868Y15534D01*
X29751Y23418D01*
X35014D01*
X35033Y23372D01*
D02*
G37*
G36*
X22104Y6393D02*
X21732Y6020D01*
X21684Y5958D01*
X21675Y5936D01*
X21655Y5888D01*
X21345Y5578D01*
X21911Y5012D01*
X22052Y4871D01*
X22370Y5189D01*
X22688Y5507D01*
X22547Y5648D01*
X22381Y5814D01*
X22532Y5965D01*
X22870Y5627D01*
X23006Y5763D01*
X23053Y5747D01*
X23060Y5698D01*
X23105Y5588D01*
X23177Y5494D01*
X23254Y5435D01*
X23260Y5386D01*
X23229Y5345D01*
X23184Y5236D01*
X23168Y5118D01*
X23184Y5001D01*
X23229Y4891D01*
X23301Y4797D01*
X23395Y4725D01*
X23505Y4680D01*
X23622Y4664D01*
X23740Y4680D01*
X23849Y4725D01*
X23943Y4797D01*
X23991Y4859D01*
X24041D01*
X24089Y4797D01*
X24183Y4725D01*
X24226Y4707D01*
X24236Y4658D01*
X23883Y4304D01*
X23849Y4330D01*
X23740Y4375D01*
X23622Y4391D01*
X23505Y4375D01*
X23395Y4330D01*
X23301Y4258D01*
X23229Y4164D01*
X23184Y4054D01*
X23168Y3937D01*
X23184Y3820D01*
X23229Y3710D01*
X23301Y3616D01*
X23395Y3544D01*
X23505Y3499D01*
X23622Y3483D01*
X23740Y3499D01*
X23849Y3544D01*
X23943Y3616D01*
X23959Y3636D01*
X24021Y3645D01*
X24073Y3666D01*
X24094Y3675D01*
X24157Y3723D01*
X24620Y4186D01*
X24661Y4158D01*
X24648Y4127D01*
X24633Y4010D01*
X24648Y3892D01*
X24694Y3783D01*
X24766Y3689D01*
X24820Y3647D01*
X24804Y3600D01*
X24303D01*
Y3350D01*
X24703D01*
Y2950D01*
X24303D01*
Y2700D01*
X24821D01*
Y1233D01*
X24507Y919D01*
X24462Y941D01*
X24467Y981D01*
X23917D01*
Y1181D01*
X23717D01*
Y1731D01*
X23644Y1721D01*
X23553Y1684D01*
X23475Y1624D01*
X23450Y1591D01*
X23400D01*
X23376Y1624D01*
X23297Y1684D01*
X23236Y1709D01*
Y1870D01*
X23225Y1948D01*
X23195Y2021D01*
X23147Y2084D01*
X22666Y2565D01*
Y4003D01*
X22666Y4003D01*
X22656Y4081D01*
X22626Y4154D01*
X22578Y4217D01*
X20426Y6368D01*
X20429Y6418D01*
X20501Y6473D01*
X20515Y6492D01*
X22006D01*
X22104Y6393D01*
D02*
G37*
G36*
X26130Y8730D02*
X26195Y8680D01*
X26270Y8649D01*
X26272Y8649D01*
X26273Y8647D01*
X26304Y8572D01*
X26353Y8507D01*
X26417Y8458D01*
X26492Y8427D01*
X26495Y8426D01*
X26495Y8424D01*
X26526Y8349D01*
X26576Y8284D01*
Y8251D01*
X26526Y8187D01*
X26495Y8112D01*
X26495Y8109D01*
X26492Y8109D01*
X26417Y8078D01*
X26353Y8028D01*
X26304Y7964D01*
X26273Y7889D01*
X26272Y7886D01*
X26270Y7886D01*
X26195Y7855D01*
X26130Y7806D01*
X26081Y7741D01*
X26050Y7666D01*
X26050Y7664D01*
X26047Y7663D01*
X25972Y7632D01*
X25908Y7583D01*
X25858Y7518D01*
X25827Y7443D01*
X25827Y7441D01*
X25824Y7441D01*
X25749Y7410D01*
X25685Y7360D01*
X25635Y7296D01*
X25604Y7221D01*
X25604Y7218D01*
X25602Y7218D01*
X25597Y7216D01*
X25506Y7204D01*
X25461Y7314D01*
X25388Y7408D01*
X25294Y7480D01*
X25185Y7525D01*
X25068Y7541D01*
X24950Y7525D01*
X24841Y7480D01*
X24747Y7408D01*
X24674Y7314D01*
X24629Y7204D01*
X24617Y7110D01*
X24568Y7097D01*
X24538Y7137D01*
X24473Y7187D01*
X24398Y7218D01*
X24396Y7218D01*
X24396Y7221D01*
X24365Y7296D01*
X24315Y7360D01*
X24314Y7377D01*
X24541Y7604D01*
X24561Y7612D01*
X24623Y7660D01*
X25716Y8753D01*
X26010D01*
X26088Y8763D01*
X26101Y8768D01*
X26130Y8730D01*
D02*
G37*
G36*
X21271Y2013D02*
X20988Y1731D01*
X20415D01*
Y795D01*
X19338D01*
X19310Y836D01*
X19340Y908D01*
X19349Y981D01*
X18799D01*
Y1181D01*
X18599D01*
Y1731D01*
X18526Y1721D01*
X18435Y1684D01*
X18357Y1624D01*
X18332Y1591D01*
X18282D01*
X18257Y1624D01*
X18179Y1684D01*
X18088Y1721D01*
X17990Y1734D01*
X17640D01*
X17542Y1721D01*
X17451Y1684D01*
X17373Y1624D01*
X17348Y1591D01*
X17298D01*
X17273Y1624D01*
X17195Y1684D01*
X17150Y1702D01*
X17140Y1751D01*
X17448Y2060D01*
X21251D01*
X21271Y2013D01*
D02*
G37*
%LPC*%
G36*
X21267Y16808D02*
X20771D01*
Y16312D01*
X20817D01*
X20933Y16327D01*
X21042Y16372D01*
X21135Y16444D01*
X21207Y16537D01*
X21252Y16645D01*
X21267Y16762D01*
Y16808D01*
D02*
G37*
G36*
X36818D02*
X36322D01*
Y16312D01*
X36368D01*
X36485Y16327D01*
X36593Y16372D01*
X36686Y16444D01*
X36758Y16537D01*
X36803Y16645D01*
X36818Y16762D01*
Y16808D01*
D02*
G37*
G36*
X35922D02*
X35426D01*
Y16762D01*
X35441Y16645D01*
X35486Y16537D01*
X35558Y16444D01*
X35651Y16372D01*
X35760Y16327D01*
X35876Y16312D01*
X35922D01*
Y16808D01*
D02*
G37*
G36*
X20371D02*
X19875D01*
Y16762D01*
X19890Y16645D01*
X19935Y16537D01*
X20007Y16444D01*
X20100Y16372D01*
X20208Y16327D01*
X20325Y16312D01*
X20371D01*
Y16808D01*
D02*
G37*
G36*
X30409Y14761D02*
X30209D01*
Y14511D01*
X30409D01*
Y14761D01*
D02*
G37*
G36*
X32385Y13338D02*
X32090D01*
Y12943D01*
X32385D01*
Y13338D01*
D02*
G37*
G36*
X30409Y15411D02*
X30209D01*
Y15161D01*
X30409D01*
Y15411D01*
D02*
G37*
G36*
X30719Y16335D02*
X30515D01*
Y16131D01*
X30542Y16142D01*
X30636Y16214D01*
X30708Y16308D01*
X30719Y16335D01*
D02*
G37*
G36*
X30115D02*
X29911D01*
X29922Y16308D01*
X29994Y16214D01*
X30088Y16142D01*
X30115Y16131D01*
Y16335D01*
D02*
G37*
G36*
X1867Y18619D02*
X1371D01*
Y18573D01*
X1386Y18456D01*
X1431Y18348D01*
X1503Y18255D01*
X1596Y18183D01*
X1704Y18138D01*
X1821Y18123D01*
X1867D01*
Y18619D01*
D02*
G37*
G36*
X36368Y17704D02*
X36322D01*
Y17208D01*
X36818D01*
Y17254D01*
X36803Y17370D01*
X36758Y17479D01*
X36686Y17572D01*
X36593Y17644D01*
X36485Y17689D01*
X36368Y17704D01*
D02*
G37*
G36*
X2763Y18619D02*
X2267D01*
Y18123D01*
X2313D01*
X2429Y18138D01*
X2538Y18183D01*
X2631Y18255D01*
X2703Y18348D01*
X2748Y18456D01*
X2763Y18573D01*
Y18619D01*
D02*
G37*
G36*
X18314D02*
X17818D01*
Y18123D01*
X17864D01*
X17981Y18138D01*
X18089Y18183D01*
X18182Y18255D01*
X18254Y18348D01*
X18299Y18456D01*
X18314Y18573D01*
Y18619D01*
D02*
G37*
G36*
X17418D02*
X16922D01*
Y18573D01*
X16937Y18456D01*
X16982Y18348D01*
X17054Y18255D01*
X17147Y18183D01*
X17256Y18138D01*
X17372Y18123D01*
X17418D01*
Y18619D01*
D02*
G37*
G36*
X30515Y16940D02*
Y16735D01*
X30719D01*
X30708Y16762D01*
X30636Y16856D01*
X30542Y16929D01*
X30515Y16940D01*
D02*
G37*
G36*
X30115D02*
X30088Y16929D01*
X29994Y16856D01*
X29922Y16762D01*
X29911Y16735D01*
X30115D01*
Y16940D01*
D02*
G37*
G36*
X20371Y17704D02*
X20325D01*
X20208Y17689D01*
X20100Y17644D01*
X20007Y17572D01*
X19935Y17479D01*
X19890Y17370D01*
X19875Y17254D01*
Y17208D01*
X20371D01*
Y17704D01*
D02*
G37*
G36*
X35922D02*
X35876D01*
X35760Y17689D01*
X35651Y17644D01*
X35558Y17572D01*
X35486Y17479D01*
X35441Y17370D01*
X35426Y17254D01*
Y17208D01*
X35922D01*
Y17704D01*
D02*
G37*
G36*
X20817D02*
X20771D01*
Y17208D01*
X21267D01*
Y17254D01*
X21252Y17370D01*
X21207Y17479D01*
X21135Y17572D01*
X21042Y17644D01*
X20933Y17689D01*
X20817Y17704D01*
D02*
G37*
G36*
X13396Y2950D02*
X13192D01*
Y2745D01*
X13219Y2757D01*
X13313Y2829D01*
X13385Y2923D01*
X13396Y2950D01*
D02*
G37*
G36*
X12792D02*
X12588D01*
X12599Y2923D01*
X12671Y2829D01*
X12765Y2757D01*
X12792Y2745D01*
Y2950D01*
D02*
G37*
G36*
X4524Y3737D02*
X4320D01*
X4331Y3710D01*
X4403Y3616D01*
X4497Y3544D01*
X4524Y3533D01*
Y3737D01*
D02*
G37*
G36*
X36895Y4131D02*
X36695D01*
Y3881D01*
X36895D01*
Y4131D01*
D02*
G37*
G36*
X5129Y3737D02*
X4924D01*
Y3533D01*
X4951Y3544D01*
X5045Y3616D01*
X5117Y3710D01*
X5129Y3737D01*
D02*
G37*
G36*
X2953Y3354D02*
X2759Y3335D01*
X2573Y3279D01*
X2402Y3187D01*
X2251Y3064D01*
X2128Y2913D01*
X2036Y2742D01*
X1980Y2556D01*
X1961Y2362D01*
X1980Y2169D01*
X2036Y1983D01*
X2128Y1811D01*
X2251Y1661D01*
X2402Y1537D01*
X2573Y1446D01*
X2759Y1389D01*
X2953Y1370D01*
X3146Y1389D01*
X3332Y1446D01*
X3504Y1537D01*
X3654Y1661D01*
X3778Y1811D01*
X3869Y1983D01*
X3926Y2169D01*
X3945Y2362D01*
X3926Y2556D01*
X3869Y2742D01*
X3778Y2913D01*
X3654Y3064D01*
X3504Y3187D01*
X3332Y3279D01*
X3146Y3335D01*
X2953Y3354D01*
D02*
G37*
G36*
X9129Y3262D02*
X4031D01*
Y2062D01*
Y1275D01*
Y487D01*
X7430D01*
Y1275D01*
X9029D01*
Y2062D01*
X9129D01*
Y3262D01*
D02*
G37*
G36*
X36417Y3354D02*
X36224Y3335D01*
X36038Y3279D01*
X35866Y3187D01*
X35716Y3064D01*
X35592Y2913D01*
X35501Y2742D01*
X35444Y2556D01*
X35425Y2362D01*
X35444Y2169D01*
X35501Y1983D01*
X35592Y1811D01*
X35716Y1661D01*
X35866Y1537D01*
X36038Y1446D01*
X36224Y1389D01*
X36417Y1370D01*
X36611Y1389D01*
X36797Y1446D01*
X36969Y1537D01*
X37119Y1661D01*
X37242Y1811D01*
X37334Y1983D01*
X37390Y2169D01*
X37410Y2362D01*
X37390Y2556D01*
X37334Y2742D01*
X37242Y2913D01*
X37119Y3064D01*
X36969Y3187D01*
X36797Y3279D01*
X36611Y3335D01*
X36417Y3354D01*
D02*
G37*
G36*
X24117Y1731D02*
Y1381D01*
X24467D01*
X24458Y1454D01*
X24420Y1545D01*
X24360Y1624D01*
X24281Y1684D01*
X24190Y1721D01*
X24117Y1731D01*
D02*
G37*
G36*
X18999D02*
Y1381D01*
X19349D01*
X19340Y1454D01*
X19302Y1545D01*
X19242Y1624D01*
X19163Y1684D01*
X19072Y1721D01*
X18999Y1731D01*
D02*
G37*
G36*
X2313Y12704D02*
X1821D01*
X1704Y12689D01*
X1596Y12644D01*
X1503Y12572D01*
X1431Y12479D01*
X1386Y12370D01*
X1371Y12254D01*
Y11762D01*
X1386Y11645D01*
X1431Y11537D01*
X1503Y11444D01*
X1596Y11372D01*
X1704Y11327D01*
X1821Y11312D01*
X2313D01*
X2429Y11327D01*
X2538Y11372D01*
X2631Y11444D01*
X2703Y11537D01*
X2748Y11645D01*
X2763Y11762D01*
Y12254D01*
X2748Y12370D01*
X2703Y12479D01*
X2631Y12572D01*
X2538Y12644D01*
X2429Y12689D01*
X2313Y12704D01*
D02*
G37*
G36*
X14280Y7674D02*
X14080D01*
Y7424D01*
X14280D01*
Y7674D01*
D02*
G37*
G36*
X17864Y12704D02*
X17372D01*
X17256Y12689D01*
X17147Y12644D01*
X17054Y12572D01*
X16982Y12479D01*
X16937Y12370D01*
X16922Y12254D01*
Y11762D01*
X16937Y11645D01*
X16982Y11537D01*
X17054Y11444D01*
X17147Y11372D01*
X17256Y11327D01*
X17372Y11312D01*
X17864D01*
X17981Y11327D01*
X18089Y11372D01*
X18182Y11444D01*
X18254Y11537D01*
X18299Y11645D01*
X18314Y11762D01*
Y12254D01*
X18299Y12370D01*
X18254Y12479D01*
X18182Y12572D01*
X18089Y12644D01*
X17981Y12689D01*
X17864Y12704D01*
D02*
G37*
G36*
X32385Y12543D02*
X32090D01*
Y12148D01*
X32385D01*
Y12543D01*
D02*
G37*
G36*
X27943Y12709D02*
X27696Y12462D01*
X27448Y12214D01*
X27554Y12108D01*
X27554D01*
X27569Y12094D01*
X27816Y12341D01*
X28064Y12589D01*
X27958Y12695D01*
D01*
X27943Y12709D01*
D02*
G37*
G36*
X22971Y5224D02*
X22794Y5047D01*
X22936Y4906D01*
X23113Y5083D01*
X22971Y5224D01*
D02*
G37*
G36*
X22512Y4765D02*
X22335Y4588D01*
X22476Y4446D01*
X22653Y4623D01*
X22512Y4765D01*
D02*
G37*
G36*
X14367Y7177D02*
X14102D01*
Y6582D01*
Y5987D01*
X14397D01*
Y6231D01*
X14439Y6259D01*
X14449Y6255D01*
X14567Y6239D01*
X14684Y6255D01*
X14794Y6300D01*
X14888Y6372D01*
X14960Y6466D01*
X14971Y6493D01*
X14567D01*
Y6693D01*
X14367D01*
Y7177D01*
D02*
G37*
G36*
X14767Y7097D02*
Y6893D01*
X14971D01*
X14960Y6920D01*
X14888Y7014D01*
X14794Y7086D01*
X14767Y7097D01*
D02*
G37*
G36*
X31102Y7541D02*
X30985Y7525D01*
X30875Y7480D01*
X30781Y7408D01*
X30709Y7314D01*
X30664Y7204D01*
X30648Y7087D01*
X30664Y6969D01*
X30709Y6860D01*
X30759Y6795D01*
X30734Y6752D01*
X30709Y6755D01*
X30591Y6740D01*
X30482Y6695D01*
X30388Y6622D01*
X30316Y6528D01*
X30270Y6419D01*
X30255Y6301D01*
X30270Y6184D01*
X30316Y6075D01*
X30388Y5981D01*
X30406Y5966D01*
Y1673D01*
X30406Y1673D01*
X30406D01*
X30416Y1595D01*
X30447Y1522D01*
X30495Y1459D01*
X30651Y1303D01*
Y631D01*
X31751D01*
Y676D01*
X31796Y698D01*
X31821Y679D01*
X31912Y641D01*
X32010Y628D01*
X32360D01*
X32458Y641D01*
X32549Y679D01*
X32627Y739D01*
X32652Y771D01*
X32702D01*
X32727Y739D01*
X32805Y679D01*
X32896Y641D01*
X32994Y628D01*
X33344D01*
X33442Y641D01*
X33533Y679D01*
X33612Y739D01*
X33636Y771D01*
X33686D01*
X33711Y739D01*
X33789Y679D01*
X33881Y641D01*
X33979Y628D01*
X34329D01*
X34426Y641D01*
X34518Y679D01*
X34596Y739D01*
X34656Y817D01*
X34694Y908D01*
X34707Y1006D01*
Y1356D01*
X34694Y1454D01*
X34656Y1545D01*
X34596Y1624D01*
X34518Y1684D01*
X34426Y1721D01*
X34329Y1734D01*
X33979D01*
X33881Y1721D01*
X33789Y1684D01*
X33711Y1624D01*
X33686Y1591D01*
X33636D01*
X33612Y1624D01*
X33533Y1684D01*
X33472Y1709D01*
Y5020D01*
X33462Y5098D01*
X33431Y5171D01*
X33383Y5234D01*
X31553Y7064D01*
X31556Y7087D01*
X31541Y7204D01*
X31495Y7314D01*
X31423Y7408D01*
X31329Y7480D01*
X31220Y7525D01*
X31102Y7541D01*
D02*
G37*
G36*
X9643Y24259D02*
X9488D01*
X9374Y24244D01*
X9268Y24200D01*
X9177Y24130D01*
X9107Y24039D01*
X9099Y24019D01*
X9643D01*
Y24259D01*
D02*
G37*
G36*
X16672Y23666D02*
X15612D01*
X15634Y23638D01*
Y23594D01*
X15612Y23566D01*
X16672D01*
X16650Y23594D01*
Y23638D01*
X16672Y23666D01*
D02*
G37*
G36*
X10197Y24259D02*
X10043D01*
Y24019D01*
X10586D01*
X10578Y24039D01*
X10508Y24130D01*
X10417Y24200D01*
X10311Y24244D01*
X10197Y24259D01*
D02*
G37*
G36*
X16422Y24189D02*
X16342D01*
Y24066D01*
X16672D01*
X16650Y24094D01*
X16583Y24146D01*
X16505Y24178D01*
X16422Y24189D01*
D02*
G37*
G36*
X15942D02*
X15862D01*
X15778Y24178D01*
X15700Y24146D01*
X15634Y24094D01*
X15612Y24066D01*
X15942D01*
Y24189D01*
D02*
G37*
G36*
X9643Y23619D02*
X9099D01*
X9107Y23599D01*
X9177Y23508D01*
X9268Y23438D01*
X9374Y23394D01*
X9488Y23379D01*
X9643D01*
Y23619D01*
D02*
G37*
G36*
X20817Y24515D02*
X20325D01*
X20208Y24500D01*
X20100Y24455D01*
X20007Y24383D01*
X19935Y24290D01*
X19890Y24181D01*
X19875Y24065D01*
Y23573D01*
X19890Y23456D01*
X19935Y23348D01*
X20007Y23255D01*
X20100Y23183D01*
X20208Y23138D01*
X20325Y23123D01*
X20817D01*
X20933Y23138D01*
X21042Y23183D01*
X21135Y23255D01*
X21207Y23348D01*
X21252Y23456D01*
X21267Y23573D01*
Y24065D01*
X21252Y24181D01*
X21207Y24290D01*
X21135Y24383D01*
X21042Y24455D01*
X20933Y24500D01*
X20817Y24515D01*
D02*
G37*
G36*
X10586Y23619D02*
X10043D01*
Y23379D01*
X10197D01*
X10311Y23394D01*
X10417Y23438D01*
X10508Y23508D01*
X10578Y23599D01*
X10586Y23619D01*
D02*
G37*
G36*
X12011Y23633D02*
Y23428D01*
X12215D01*
X12204Y23455D01*
X12132Y23549D01*
X12038Y23621D01*
X12011Y23633D01*
D02*
G37*
G36*
X11611D02*
X11584Y23621D01*
X11490Y23549D01*
X11418Y23455D01*
X11407Y23428D01*
X11611D01*
Y23633D01*
D02*
G37*
G36*
X36417Y26976D02*
X36224Y26957D01*
X36038Y26901D01*
X35866Y26809D01*
X35716Y26686D01*
X35592Y26535D01*
X35501Y26364D01*
X35444Y26178D01*
X35425Y25984D01*
X35444Y25791D01*
X35501Y25605D01*
X35592Y25433D01*
X35716Y25283D01*
X35866Y25159D01*
X36038Y25068D01*
X36224Y25011D01*
X36417Y24992D01*
X36611Y25011D01*
X36797Y25068D01*
X36969Y25159D01*
X37119Y25283D01*
X37242Y25433D01*
X37334Y25605D01*
X37390Y25791D01*
X37410Y25984D01*
X37390Y26178D01*
X37334Y26364D01*
X37242Y26535D01*
X37119Y26686D01*
X36969Y26809D01*
X36797Y26901D01*
X36611Y26957D01*
X36417Y26976D01*
D02*
G37*
G36*
X20765Y27715D02*
X20692Y27706D01*
X20600Y27668D01*
X20522Y27608D01*
X20462Y27529D01*
X20424Y27438D01*
X20415Y27365D01*
X20765D01*
Y27715D01*
D02*
G37*
G36*
X15646D02*
X15574Y27706D01*
X15482Y27668D01*
X15404Y27608D01*
X15344Y27529D01*
X15306Y27438D01*
X15297Y27365D01*
X15646D01*
Y27715D01*
D02*
G37*
G36*
X25883D02*
X25810Y27706D01*
X25719Y27668D01*
X25640Y27608D01*
X25580Y27529D01*
X25542Y27438D01*
X25533Y27365D01*
X25883D01*
Y27715D01*
D02*
G37*
G36*
X14231Y27715D02*
X13131D01*
Y27671D01*
X13086Y27649D01*
X13061Y27668D01*
X12970Y27706D01*
X12897Y27715D01*
Y27165D01*
Y26615D01*
X12970Y26625D01*
X13061Y26663D01*
X13086Y26682D01*
X13131Y26660D01*
Y26615D01*
X14231D01*
Y27715D01*
D02*
G37*
G36*
X31001Y27715D02*
X30928Y27706D01*
X30837Y27668D01*
X30758Y27608D01*
X30698Y27529D01*
X30660Y27438D01*
X30651Y27365D01*
X31001D01*
Y27715D01*
D02*
G37*
G36*
X15646Y26965D02*
X15297D01*
X15306Y26892D01*
X15344Y26801D01*
X15404Y26723D01*
X15482Y26663D01*
X15574Y26625D01*
X15646Y26615D01*
Y26965D01*
D02*
G37*
G36*
X10728Y27768D02*
X10611Y27757D01*
X10498Y27722D01*
X10470Y27708D01*
X10455Y27706D01*
X10364Y27668D01*
X10286Y27608D01*
X10226Y27529D01*
X10188Y27438D01*
X10186Y27424D01*
X10171Y27396D01*
X10137Y27283D01*
X10125Y27165D01*
Y26332D01*
X9986Y26193D01*
X8182D01*
Y26615D01*
X9113D01*
Y27715D01*
X8013D01*
Y27671D01*
X7968Y27649D01*
X7943Y27668D01*
X7852Y27706D01*
X7837Y27708D01*
X7809Y27722D01*
X7696Y27757D01*
X7579Y27768D01*
X7461Y27757D01*
X7348Y27722D01*
X7320Y27708D01*
X7306Y27706D01*
X7215Y27668D01*
X7136Y27608D01*
X7112Y27576D01*
X7062D01*
X7037Y27608D01*
X6959Y27668D01*
X6867Y27706D01*
X6769Y27719D01*
X6419D01*
X6322Y27706D01*
X6230Y27668D01*
X6152Y27608D01*
X6127Y27576D01*
X6077D01*
X6053Y27608D01*
X5974Y27668D01*
X5883Y27706D01*
X5869Y27708D01*
X5841Y27722D01*
X5728Y27757D01*
X5610Y27768D01*
X5493Y27757D01*
X5380Y27722D01*
X5352Y27708D01*
X5337Y27706D01*
X5246Y27668D01*
X5168Y27608D01*
X5108Y27529D01*
X5070Y27438D01*
X5068Y27424D01*
X5053Y27396D01*
X5019Y27283D01*
X5007Y27165D01*
Y26188D01*
X4331D01*
X4253Y26173D01*
X4187Y26128D01*
X4142Y26062D01*
X4127Y25984D01*
Y25007D01*
X3303D01*
X3296Y25057D01*
X3332Y25068D01*
X3504Y25159D01*
X3654Y25283D01*
X3778Y25433D01*
X3869Y25605D01*
X3926Y25791D01*
X3945Y25984D01*
X3926Y26178D01*
X3869Y26364D01*
X3778Y26535D01*
X3654Y26686D01*
X3504Y26809D01*
X3332Y26901D01*
X3146Y26957D01*
X2953Y26976D01*
X2759Y26957D01*
X2573Y26901D01*
X2402Y26809D01*
X2251Y26686D01*
X2128Y26535D01*
X2036Y26364D01*
X1980Y26178D01*
X1961Y25984D01*
X1980Y25791D01*
X2036Y25605D01*
X2128Y25433D01*
X2251Y25283D01*
X2402Y25159D01*
X2573Y25068D01*
X2610Y25057D01*
X2602Y25007D01*
X1969D01*
X1890Y24992D01*
X1824Y24947D01*
X1780Y24881D01*
X1765Y24803D01*
Y19685D01*
X1780Y19607D01*
X1814Y19557D01*
X1793Y19511D01*
X1704Y19500D01*
X1596Y19455D01*
X1503Y19383D01*
X1431Y19290D01*
X1386Y19181D01*
X1371Y19065D01*
Y19019D01*
X2763D01*
Y19065D01*
X2748Y19181D01*
X2703Y19290D01*
X2631Y19383D01*
X2565Y19434D01*
X2581Y19481D01*
X8661D01*
X8739Y19497D01*
X8806Y19541D01*
X8850Y19607D01*
X8865Y19685D01*
Y24988D01*
X10236D01*
X10354Y24999D01*
X10467Y25034D01*
X10467Y25034D01*
X10467Y25034D01*
X10571Y25089D01*
X10663Y25164D01*
X10663Y25164D01*
X10663Y25164D01*
X11155Y25656D01*
X11155Y25656D01*
X11155Y25656D01*
X11230Y25748D01*
X11285Y25852D01*
X11285Y25852D01*
X11285Y25852D01*
X11320Y25965D01*
X11331Y26083D01*
X11331Y26083D01*
X11331Y26083D01*
Y26083D01*
Y26625D01*
X11373Y26653D01*
X11440Y26625D01*
X11538Y26612D01*
X11888D01*
X11985Y26625D01*
X12077Y26663D01*
X12155Y26723D01*
X12180Y26755D01*
X12230D01*
X12254Y26723D01*
X12333Y26663D01*
X12424Y26625D01*
X12497Y26615D01*
Y27165D01*
Y27715D01*
X12424Y27706D01*
X12333Y27668D01*
X12254Y27608D01*
X12230Y27576D01*
X12180D01*
X12155Y27608D01*
X12077Y27668D01*
X11985Y27706D01*
X11888Y27719D01*
X11538D01*
X11440Y27706D01*
X11348Y27668D01*
X11270Y27608D01*
X11245Y27576D01*
X11195D01*
X11171Y27608D01*
X11092Y27668D01*
X11001Y27706D01*
X10987Y27708D01*
X10959Y27722D01*
X10846Y27757D01*
X10728Y27768D01*
D02*
G37*
G36*
X20765Y26965D02*
X20415D01*
X20424Y26892D01*
X20462Y26801D01*
X20522Y26723D01*
X20600Y26663D01*
X20692Y26625D01*
X20765Y26615D01*
Y26965D01*
D02*
G37*
G36*
X31001D02*
X30651D01*
X30660Y26892D01*
X30698Y26801D01*
X30758Y26723D01*
X30837Y26663D01*
X30928Y26625D01*
X31001Y26615D01*
Y26965D01*
D02*
G37*
G36*
X25883D02*
X25533D01*
X25542Y26892D01*
X25580Y26801D01*
X25640Y26723D01*
X25719Y26663D01*
X25810Y26625D01*
X25883Y26615D01*
Y26965D01*
D02*
G37*
G36*
X29721Y20272D02*
X29517D01*
X29528Y20245D01*
X29600Y20152D01*
X29694Y20079D01*
X29721Y20068D01*
Y20272D01*
D02*
G37*
G36*
X12798Y19696D02*
Y19491D01*
X13003D01*
X12991Y19518D01*
X12919Y19612D01*
X12825Y19684D01*
X12798Y19696D01*
D02*
G37*
G36*
X30325Y20272D02*
X30121D01*
Y20068D01*
X30148Y20079D01*
X30242Y20152D01*
X30314Y20245D01*
X30325Y20272D01*
D02*
G37*
G36*
X31900D02*
X31696D01*
Y20068D01*
X31723Y20079D01*
X31817Y20152D01*
X31889Y20245D01*
X31900Y20272D01*
D02*
G37*
G36*
X31296D02*
X31092D01*
X31103Y20245D01*
X31175Y20152D01*
X31269Y20079D01*
X31296Y20068D01*
Y20272D01*
D02*
G37*
G36*
X12311Y19741D02*
X12111D01*
Y19291D01*
Y18841D01*
X12311D01*
Y18888D01*
X12356Y18910D01*
X12371Y18898D01*
X12398Y18887D01*
Y19291D01*
Y19696D01*
X12371Y19684D01*
X12356Y19672D01*
X12311Y19695D01*
Y19741D01*
D02*
G37*
G36*
X10324Y20533D02*
X10206Y20517D01*
X10097Y20472D01*
X10003Y20400D01*
X9931Y20306D01*
X9885Y20196D01*
X9870Y20079D01*
X9885Y19961D01*
X9931Y19852D01*
X10003Y19758D01*
X10097Y19686D01*
X10206Y19640D01*
X10324Y19625D01*
X10378Y19632D01*
X10711Y19299D01*
Y18841D01*
X11711D01*
Y19291D01*
Y19741D01*
X11053D01*
X10770Y20024D01*
X10778Y20079D01*
X10762Y20196D01*
X10717Y20306D01*
X10645Y20400D01*
X10551Y20472D01*
X10441Y20517D01*
X10324Y20533D01*
D02*
G37*
G36*
X13003Y19091D02*
X12798D01*
Y18887D01*
X12825Y18898D01*
X12919Y18970D01*
X12991Y19064D01*
X13003Y19091D01*
D02*
G37*
G36*
X17864Y19515D02*
X17818D01*
Y19019D01*
X18314D01*
Y19065D01*
X18299Y19181D01*
X18254Y19290D01*
X18182Y19383D01*
X18089Y19455D01*
X17981Y19500D01*
X17864Y19515D01*
D02*
G37*
G36*
X17418D02*
X17372D01*
X17256Y19500D01*
X17147Y19455D01*
X17054Y19383D01*
X16982Y19290D01*
X16937Y19181D01*
X16922Y19065D01*
Y19019D01*
X17418D01*
Y19515D01*
D02*
G37*
G36*
X30325Y21060D02*
X29517D01*
X29528Y21033D01*
X29600Y20939D01*
X29663Y20891D01*
Y20841D01*
X29600Y20793D01*
X29528Y20699D01*
X29517Y20672D01*
X30325D01*
X30314Y20699D01*
X30242Y20793D01*
X30180Y20841D01*
Y20891D01*
X30242Y20939D01*
X30314Y21033D01*
X30325Y21060D01*
D02*
G37*
G36*
X11611Y23028D02*
X11407D01*
X11418Y23001D01*
X11490Y22907D01*
X11584Y22835D01*
X11611Y22824D01*
Y23028D01*
D02*
G37*
G36*
X31696Y22845D02*
Y22641D01*
X31900D01*
X31889Y22668D01*
X31817Y22762D01*
X31723Y22834D01*
X31696Y22845D01*
D02*
G37*
G36*
X12215Y23028D02*
X12011D01*
Y22824D01*
X12038Y22835D01*
X12132Y22907D01*
X12204Y23001D01*
X12215Y23028D01*
D02*
G37*
G36*
X16672Y23166D02*
X15612D01*
X15634Y23138D01*
Y23094D01*
X15612Y23066D01*
X16672D01*
X16650Y23094D01*
Y23138D01*
X16672Y23166D01*
D02*
G37*
G36*
X29721Y23239D02*
X29694Y23228D01*
X29600Y23156D01*
X29528Y23062D01*
X29517Y23035D01*
X29721D01*
Y23239D01*
D02*
G37*
G36*
X30325Y21847D02*
X29517D01*
X29528Y21820D01*
X29600Y21726D01*
X29663Y21679D01*
Y21629D01*
X29600Y21581D01*
X29528Y21487D01*
X29517Y21460D01*
X30325D01*
X30314Y21487D01*
X30242Y21581D01*
X30180Y21629D01*
Y21679D01*
X30242Y21726D01*
X30314Y21820D01*
X30325Y21847D01*
D02*
G37*
G36*
X32294Y21454D02*
X32090D01*
Y21249D01*
X32117Y21260D01*
X32211Y21333D01*
X32283Y21427D01*
X32294Y21454D01*
D02*
G37*
G36*
X30902Y21664D02*
X30875Y21653D01*
X30781Y21581D01*
X30709Y21487D01*
X30698Y21460D01*
X30902D01*
Y21664D01*
D02*
G37*
G36*
X30121Y23239D02*
Y22835D01*
X29921D01*
Y22635D01*
X29517D01*
X29528Y22608D01*
X29600Y22514D01*
X29663Y22466D01*
Y22416D01*
X29600Y22368D01*
X29528Y22274D01*
X29517Y22247D01*
X30325D01*
X30314Y22274D01*
X30242Y22368D01*
X30180Y22416D01*
Y22466D01*
X30242Y22514D01*
X30290Y22576D01*
X30340D01*
X30388Y22514D01*
X30482Y22442D01*
X30509Y22430D01*
Y22835D01*
Y23239D01*
X30482Y23228D01*
X30388Y23156D01*
X30340Y23093D01*
X30290D01*
X30242Y23156D01*
X30148Y23228D01*
X30121Y23239D01*
D02*
G37*
G36*
X30909Y23239D02*
Y22835D01*
Y22430D01*
X30936Y22442D01*
X31002Y22493D01*
X31046Y22468D01*
X31042Y22441D01*
X31058Y22323D01*
X31103Y22214D01*
X31175Y22120D01*
X31269Y22048D01*
X31379Y22003D01*
X31496Y21987D01*
X31523Y21991D01*
X31548Y21947D01*
X31497Y21880D01*
X31451Y21771D01*
X31436Y21654D01*
X31439Y21627D01*
X31396Y21602D01*
X31329Y21653D01*
X31302Y21664D01*
Y21260D01*
X31102D01*
Y21060D01*
X30698D01*
X30709Y21033D01*
X30781Y20939D01*
X30875Y20867D01*
X30985Y20821D01*
X31102Y20806D01*
X31129Y20810D01*
X31154Y20766D01*
X31103Y20699D01*
X31092Y20672D01*
X31900D01*
X31889Y20699D01*
X31817Y20793D01*
X31723Y20866D01*
X31614Y20911D01*
X31496Y20926D01*
X31469Y20923D01*
X31444Y20966D01*
X31495Y21033D01*
X31541Y21142D01*
X31556Y21260D01*
X31553Y21287D01*
X31596Y21312D01*
X31663Y21260D01*
X31690Y21249D01*
Y21654D01*
X31890D01*
Y21854D01*
X32294D01*
X32283Y21880D01*
X32211Y21974D01*
X32117Y22047D01*
X32007Y22092D01*
X31890Y22107D01*
X31863Y22104D01*
X31838Y22147D01*
X31889Y22214D01*
X31900Y22241D01*
X31496D01*
Y22441D01*
X31296D01*
Y22845D01*
X31269Y22834D01*
X31202Y22783D01*
X31159Y22808D01*
X31163Y22835D01*
X31147Y22952D01*
X31102Y23062D01*
X31030Y23156D01*
X30936Y23228D01*
X30909Y23239D01*
D02*
G37*
%LPD*%
D10*
X5118Y9843D02*
D03*
X4318D02*
D03*
X7174Y9055D02*
D03*
X7974D02*
D03*
X3543Y7874D02*
D03*
X2743D02*
D03*
X2756Y5512D02*
D03*
X3556D02*
D03*
X9449Y7874D02*
D03*
X10249D02*
D03*
X34295Y10013D02*
D03*
X33495D02*
D03*
X34295Y9013D02*
D03*
X33495D02*
D03*
X34295Y8013D02*
D03*
X33495D02*
D03*
X34295Y7013D02*
D03*
X33495D02*
D03*
X34295Y11013D02*
D03*
X33495D02*
D03*
X12205Y20866D02*
D03*
X13005D02*
D03*
X11111Y19291D02*
D03*
X11911D02*
D03*
X13080Y7874D02*
D03*
X13880D02*
D03*
X31409Y14961D02*
D03*
X30609D02*
D03*
X25503Y3150D02*
D03*
X24703D02*
D03*
X37095Y4331D02*
D03*
X37895D02*
D03*
D11*
X4738Y8255D02*
D03*
X3136Y7099D02*
D03*
D12*
X4368Y9055D02*
D03*
X5118D02*
D03*
X3506Y6299D02*
D03*
X2756D02*
D03*
D13*
X5906Y9055D02*
D03*
Y8255D02*
D03*
X8661Y7087D02*
D03*
Y6287D02*
D03*
X9055Y4331D02*
D03*
Y5131D02*
D03*
X6693Y4331D02*
D03*
Y5131D02*
D03*
D14*
X4724Y7480D02*
D03*
X16142Y20866D02*
D03*
D15*
X6924Y6480D02*
D03*
X4724D02*
D03*
Y6980D02*
D03*
X6924Y7480D02*
D03*
Y6980D02*
D03*
X4724Y5980D02*
D03*
X6924D02*
D03*
X16142Y23866D02*
D03*
Y22366D02*
D03*
X13942Y23866D02*
D03*
Y22866D02*
D03*
Y21866D02*
D03*
X16142Y21366D02*
D03*
Y23366D02*
D03*
Y21866D02*
D03*
Y22866D02*
D03*
X13942Y23366D02*
D03*
Y22366D02*
D03*
Y21366D02*
D03*
Y20866D02*
D03*
D16*
X10249Y6707D02*
D03*
X7468Y4711D02*
D03*
D17*
X9449Y6337D02*
D03*
Y7087D02*
D03*
X8268Y5081D02*
D03*
Y4331D02*
D03*
D18*
X12082Y6582D02*
D03*
X12992D02*
D03*
X13902D02*
D03*
X34405Y12743D02*
D03*
X33495D02*
D03*
X32585D02*
D03*
D19*
X12992Y4102D02*
D03*
X33495Y15223D02*
D03*
D20*
X21946Y5613D02*
D03*
X22512Y5047D02*
D03*
X22340Y6794D02*
D03*
X22905Y6229D02*
D03*
X27587Y5878D02*
D03*
X27022Y6444D02*
D03*
D21*
X27554Y12603D02*
D03*
X27165Y12992D02*
D03*
X27958Y12200D02*
D03*
X28346Y11811D02*
D03*
D22*
X28639Y8954D02*
D03*
X29205Y9520D02*
D03*
D23*
X9843Y23819D02*
D03*
Y22047D02*
D03*
D24*
X6978Y22933D02*
D03*
D25*
X26949Y8657D02*
D03*
X26726Y8880D02*
D03*
X26503Y9103D02*
D03*
X26281Y9326D02*
D03*
X26058Y9548D02*
D03*
X25835Y9771D02*
D03*
X25612Y9994D02*
D03*
X25390Y10216D02*
D03*
X23051Y7878D02*
D03*
X23274Y7655D02*
D03*
X23497Y7433D02*
D03*
X23719Y7210D02*
D03*
X23942Y6987D02*
D03*
X24165Y6764D02*
D03*
X24388Y6542D02*
D03*
X24610Y6319D02*
D03*
D26*
Y10216D02*
D03*
X24388Y9994D02*
D03*
X24165Y9771D02*
D03*
X23942Y9548D02*
D03*
X23719Y9326D02*
D03*
X23497Y9103D02*
D03*
X23274Y8880D02*
D03*
X23051Y8657D02*
D03*
X25390Y6319D02*
D03*
X25612Y6542D02*
D03*
X25835Y6764D02*
D03*
X26058Y6987D02*
D03*
X26281Y7210D02*
D03*
X26503Y7433D02*
D03*
X26726Y7655D02*
D03*
X26949Y7878D02*
D03*
D27*
X12185Y21791D02*
D03*
Y22047D02*
D03*
Y22303D02*
D03*
X11437D02*
D03*
Y22047D02*
D03*
Y21791D02*
D03*
D28*
X11022Y3150D02*
X12990D01*
X10628Y3543D02*
X11022Y3150D01*
X4724Y3543D02*
X10628D01*
X13270Y8941D02*
X18438D01*
X19112Y8268D01*
X19462D01*
X18898Y7874D02*
X19464D01*
X19654Y8064D02*
X20446D01*
X19538Y8344D02*
X20330D01*
X19770Y7784D02*
X20562D01*
X19236Y7251D02*
X19770Y7784D01*
X20330Y8344D02*
X20963Y8978D01*
X20446Y8064D02*
X21079Y8698D01*
X19462Y8268D02*
X19538Y8344D01*
X19464Y7874D02*
X19654Y8064D01*
X17946Y7251D02*
X19236D01*
X19075Y6693D02*
X19886Y7504D01*
X20963Y8978D02*
X21182D01*
X20562Y7784D02*
X20786Y8009D01*
X21079Y8698D02*
X21832D01*
X20786Y8009D02*
X21143D01*
X21182Y8978D02*
X21897Y9693D01*
X21832Y8698D02*
X22262Y8268D01*
X22514D01*
X22405Y8698D02*
X23011D01*
X22047Y9055D02*
X22405Y8698D01*
X23151Y9894D02*
X23719Y9326D01*
X23151Y9894D02*
Y10042D01*
X22782Y10411D02*
X23151Y10042D01*
X23431Y10059D02*
X23942Y9548D01*
X23431Y10059D02*
Y10158D01*
X23062Y10527D02*
X23431Y10158D01*
X23062Y10527D02*
Y10580D01*
X23622Y10759D02*
Y11024D01*
Y10759D02*
X24388Y9994D01*
X24409Y10417D02*
Y11811D01*
Y10417D02*
X24610Y10216D01*
X21082Y11060D02*
X22431D01*
X21045Y11024D02*
X21082Y11060D01*
X20703Y11024D02*
X21045D01*
X14567Y17160D02*
X20703Y11024D01*
X20866Y11417D02*
X22519D01*
X14961Y17323D02*
X20866Y11417D01*
X22263Y10273D02*
X22525D01*
X22113Y10123D02*
X22263Y10273D01*
X22075Y10123D02*
X22113D01*
X22075Y10123D02*
X22075Y10123D01*
X21719Y10123D02*
X22075D01*
X21719Y10123D02*
X21719Y10123D01*
X20586Y10123D02*
X21719D01*
X22693Y10553D02*
X22782Y10464D01*
X22492Y10553D02*
X22693D01*
X22415Y10630D02*
X22492Y10553D01*
X21260Y10630D02*
X22415D01*
X22912Y10730D02*
X23062Y10580D01*
X22912Y10730D02*
Y10771D01*
X22851Y10833D02*
X22912Y10771D01*
X22658Y10833D02*
X22851D01*
X22431Y11060D02*
X22658Y10833D01*
X23192Y10846D02*
X23342Y10696D01*
X23192Y10846D02*
Y10887D01*
X22967Y11113D02*
X23192Y10887D01*
X22823Y11113D02*
X22967D01*
X22519Y11417D02*
X22823Y11113D01*
X21143Y8009D02*
X21395Y7757D01*
Y7401D02*
Y7757D01*
X20002Y7224D02*
X20358D01*
X20434Y7149D01*
X21143D01*
X19470Y6500D02*
X22084Y3887D01*
X19470Y6500D02*
Y7088D01*
X19750Y6616D02*
X22364Y4003D01*
X19750Y6616D02*
Y6972D01*
X21654Y8268D02*
X22084Y7838D01*
X23011Y8698D02*
X23051Y8657D01*
X22084Y7838D02*
X23011D01*
X23051Y7878D01*
X23711Y10225D02*
X24165Y9771D01*
X23711Y10225D02*
Y10274D01*
X21143Y7149D02*
X21395Y7401D01*
X21897Y9693D02*
Y9693D01*
X22225Y9413D02*
X22263D01*
X22340Y9562D02*
X22759Y9981D01*
Y10039D01*
X22263Y9413D02*
X22340Y9490D01*
X22525Y10273D02*
X22759Y10039D01*
X22340Y9490D02*
Y9562D01*
X22047Y9234D02*
X22225Y9413D01*
X22782Y10411D02*
Y10464D01*
X23342Y10643D02*
X23711Y10274D01*
X23342Y10643D02*
Y10696D01*
X22770Y9384D02*
X23274Y8880D01*
X22061Y9069D02*
Y9077D01*
X22047Y9055D02*
X22061Y9069D01*
X19047Y3966D02*
X19113Y3901D01*
X16649Y3659D02*
X16956Y3966D01*
X19047D01*
X16929Y3536D02*
X17710D01*
X16922Y4724D02*
X18504D01*
X16925Y4331D02*
X18290D01*
X16369Y3775D02*
X16925Y4331D01*
X16089Y3891D02*
X16922Y4724D01*
X15473Y2476D02*
X16649Y3652D01*
X16089Y3884D02*
Y3891D01*
X15354Y3150D02*
X16089Y3884D01*
X16369Y3768D02*
Y3775D01*
X15357Y2756D02*
X16369Y3768D01*
X16649Y3652D02*
Y3659D01*
X15589Y2196D02*
X16929Y3536D01*
X18326Y4294D02*
X18682D01*
X18290Y4331D02*
X18326Y4294D01*
X26244Y6218D02*
Y6356D01*
Y6218D02*
X26249Y6212D01*
Y5512D02*
Y6212D01*
X26134Y5512D02*
X26249D01*
X25769Y5878D02*
X26134Y5512D01*
X25662Y5878D02*
X25769D01*
X26524Y6334D02*
Y6484D01*
Y6334D02*
X26529Y6328D01*
Y5536D02*
Y6328D01*
Y5536D02*
X26772Y5294D01*
X26809Y5652D02*
X27184Y5278D01*
X26809Y5652D02*
Y6033D01*
X26916Y6140D01*
Y6338D01*
X27022Y6444D01*
X27089Y5917D02*
X27829Y6657D01*
X27089Y5768D02*
Y5917D01*
Y5768D02*
X27477Y5380D01*
X25662Y5878D02*
X25662Y5878D01*
X25423Y5878D02*
X25662D01*
X26433Y4565D02*
Y4921D01*
X26414Y4546D02*
X26433Y4565D01*
X26414Y4292D02*
Y4546D01*
Y4292D02*
X27067Y3639D01*
X27775Y5083D02*
X28136D01*
X27477Y5380D02*
X27775Y5083D01*
X27477Y5380D02*
X27477D01*
X23943Y3937D02*
X25161Y5154D01*
X23801Y3150D02*
X24703D01*
X23342Y4265D02*
Y4411D01*
X22705Y5047D02*
X23342Y4411D01*
X23622Y5331D02*
X24610Y6319D01*
X23622Y5118D02*
Y5331D01*
X19506Y3937D02*
X20079D01*
X19469Y3901D02*
X19506Y3937D01*
X19113Y3901D02*
X19469D01*
X18718Y4331D02*
X19291D01*
X18682Y4294D02*
X18718Y4331D01*
X17323Y2362D02*
X21654D01*
X22084Y2184D02*
Y3887D01*
X22364Y2440D02*
Y4003D01*
Y2440D02*
X22933Y1870D01*
X21832Y1932D02*
X22084Y2184D01*
X21617Y1932D02*
X21832D01*
X20965Y1280D02*
X21617Y1932D01*
X19291Y3150D02*
X20866D01*
X22933Y1181D02*
Y1870D01*
X20965Y1181D02*
Y1280D01*
X16929Y2756D02*
X18898D01*
X19291Y3150D01*
X23192Y3759D02*
X23801Y3150D01*
X23192Y3759D02*
Y4115D01*
X23342Y4265D01*
X23622Y3937D02*
X23943D01*
X13295Y2271D02*
X14173Y3150D01*
X11818Y2271D02*
X13295D01*
X10728Y1181D02*
X11818Y2271D01*
X16831Y1870D02*
X17323Y2362D01*
X16831Y1181D02*
Y1870D01*
X15846Y1673D02*
X16929Y2756D01*
X15846Y1181D02*
Y1673D01*
X14173Y3150D02*
X15354D01*
X25123Y3474D02*
X25229Y3580D01*
X25123Y1107D02*
Y3474D01*
X25984Y4299D02*
Y4724D01*
X25265Y3580D02*
X25984Y4299D01*
X25229Y3580D02*
X25265D01*
X26181Y5173D02*
X26433Y4921D01*
X25929Y5173D02*
X26181D01*
X25591Y5512D02*
X25929Y5173D01*
X26772Y5096D02*
Y5294D01*
X26713Y5037D02*
X26772Y5096D01*
X26713Y4449D02*
Y5037D01*
X26694Y4430D02*
X26713Y4449D01*
X26694Y4408D02*
Y4430D01*
X25984Y4724D02*
X26003Y4743D01*
X24409Y5118D02*
X24409Y5118D01*
X25161Y5154D02*
Y5690D01*
X25591Y5448D02*
Y5512D01*
X24409Y5339D02*
X25390Y6319D01*
X24409Y5118D02*
Y5339D01*
X25161Y5690D02*
X25348Y5878D01*
X25423D01*
X25423Y5878D01*
X25068Y7087D02*
X25612Y6542D01*
X27184Y4743D02*
Y5278D01*
X26058Y6949D02*
X26524Y6484D01*
X25835Y6764D02*
X26244Y6356D01*
X26281Y7185D02*
X27022Y6444D01*
X26817Y7157D02*
X28670D01*
X26541Y7433D02*
X26817Y7157D01*
X26058Y6949D02*
Y6987D01*
X26694Y4408D02*
X27559Y3543D01*
Y3150D02*
Y3543D01*
X27067Y1181D02*
Y3639D01*
X26281Y7185D02*
Y7210D01*
X27165Y4724D02*
X27184Y4743D01*
X27165Y4724D02*
Y4724D01*
X30709Y1673D02*
X31201Y1181D01*
X23498Y5815D02*
X23583D01*
X23622Y5776D01*
X24388Y6542D01*
X23654Y6711D02*
X23930Y6987D01*
X23388Y6711D02*
X23654D01*
X23930Y6987D02*
X23942D01*
X26062Y8661D02*
X26503Y9103D01*
X25616Y8661D02*
X26062D01*
X23942Y6987D02*
X25616Y8661D01*
X25591Y9055D02*
X26010D01*
X25591D02*
Y9526D01*
X24409Y7874D02*
X25591Y9055D01*
X23493Y7874D02*
X24409D01*
X12795Y23819D02*
X13386Y24409D01*
X14961D01*
X15504Y23866D01*
X16142D01*
Y22366D02*
Y22866D01*
Y23366D01*
Y23866D01*
X11220Y23819D02*
X12795D01*
X17815Y26673D02*
Y27165D01*
Y26673D02*
X18110Y26378D01*
X19685D01*
X15354Y20866D02*
X16142D01*
X13942D02*
X14562D01*
X15562Y21866D01*
X14567Y20475D02*
X15458Y21366D01*
X16142D01*
X15562Y21866D02*
X16142D01*
X14961Y20472D02*
X15354Y20866D01*
X16535Y16929D02*
X17717Y15748D01*
X36024Y23720D02*
X36122Y23819D01*
X16535Y16929D02*
Y19685D01*
X17323Y20472D01*
Y21654D01*
X17110Y21866D02*
X17323Y21654D01*
X16142Y21866D02*
X17110D01*
X26642Y11024D02*
X27165D01*
X27454Y10735D01*
X26378Y11205D02*
Y11811D01*
X26090Y12099D02*
X26378Y11811D01*
X25835Y9771D02*
X25873D01*
X25390Y10216D02*
X26378Y11205D01*
X25612Y9994D02*
X26642Y11024D01*
X26314Y9767D02*
X26553D01*
X26149Y10047D02*
X26669D01*
X26096Y9548D02*
X26314Y9767D01*
X26553D02*
X26772Y9548D01*
X26058Y9548D02*
X26096D01*
X25873Y9771D02*
X26149Y10047D01*
X28882Y9843D02*
X29205Y9520D01*
X23236Y7655D02*
X23274D01*
X22375Y6794D02*
X23236Y7655D01*
X22340Y6794D02*
X22375D01*
X22905Y6229D02*
X23388Y6711D01*
X23131Y6991D02*
X23501D01*
X23719Y7210D01*
X21946Y5807D02*
X23131Y6991D01*
X21946Y5613D02*
Y5807D01*
X22512Y5047D02*
X22905Y5441D01*
Y6229D01*
X28639Y8954D02*
Y8977D01*
X26772Y9393D02*
Y9548D01*
X26503Y9103D02*
Y9124D01*
X26772Y9393D01*
X23719Y7210D02*
X24384Y7874D01*
X25591Y9526D02*
X25835Y9771D01*
X23938Y8661D02*
X24409D01*
X23497Y9103D02*
X23938Y8661D01*
X23274Y7655D02*
X23493Y7874D01*
X24409Y8661D02*
X24409D01*
X26669Y10047D02*
X26874Y9843D01*
X28068Y9548D02*
X28639Y8977D01*
X37895Y4331D02*
Y5412D01*
X11911Y19291D02*
X12598D01*
X11811Y23228D02*
X11811Y23228D01*
X26010Y9055D02*
X26281Y9326D01*
X26726Y8880D02*
X26995Y9149D01*
X27454Y10735D02*
X28346Y11628D01*
Y11811D01*
X29205Y9520D02*
X30709Y11024D01*
X26090Y12099D02*
X26273D01*
X27165Y12992D01*
X2756Y5512D02*
Y6299D01*
X10249Y6707D02*
Y7874D01*
X5118Y9055D02*
Y9843D01*
X4368Y9055D02*
Y9793D01*
X7048Y5131D02*
X7468Y4711D01*
X6693Y5131D02*
X7048D01*
X6693Y4331D02*
X8268D01*
X6924Y6480D02*
X8468D01*
X8661Y6287D01*
X6924Y5980D02*
X7368D01*
X8268Y5081D01*
Y7480D02*
X8661Y7087D01*
X3136Y7099D02*
X3924D01*
X4043Y6980D01*
X4724D01*
Y7480D02*
X4738Y7494D01*
Y8255D01*
X6299Y4724D02*
X6693Y4331D01*
X5906Y4724D02*
X6299D01*
X4318Y9843D02*
X4331D01*
X5118Y10630D01*
X8661Y3937D02*
X9055Y4331D01*
X2362Y5118D02*
Y8268D01*
X2756Y8661D01*
X3543D01*
X3543Y8661D01*
Y7874D02*
Y8661D01*
X5733Y9055D02*
X5906D01*
X3543Y8661D02*
X3577Y8695D01*
X7468Y4711D02*
X10223D01*
X10236Y4724D01*
X10223Y4711D02*
X10223D01*
X3577Y8695D02*
X5373D01*
X5733Y9055D01*
X3556Y5499D02*
Y5512D01*
X5906Y4724D02*
Y5116D01*
X6186Y5396D01*
Y7760D01*
X6924Y7480D02*
X7874D01*
X8268D01*
X6084Y10273D02*
X6120Y10236D01*
X6693D01*
X5548Y10273D02*
X6084D01*
X5118Y9843D02*
X5548Y10273D01*
X5906Y9055D02*
Y9843D01*
X10236Y7887D02*
X10249Y7874D01*
X5906Y3937D02*
X8661D01*
X5234Y5004D02*
X5514Y4724D01*
X5906D01*
X5512Y5499D02*
Y7480D01*
X9055Y4331D02*
X12763D01*
X12992Y4102D01*
Y6582D01*
X12094Y7480D02*
X12128D01*
X12992Y6616D01*
X10223Y4711D02*
X11024Y5512D01*
X13902Y5389D02*
Y6582D01*
Y5389D02*
X14173Y5118D01*
X5221Y5004D02*
X5234D01*
X5321Y4522D02*
X5906Y3937D01*
X5320Y5499D02*
X5512D01*
X3556D02*
X4129D01*
X2756Y5512D02*
X3466Y4802D01*
X2362Y5118D02*
X2959Y4522D01*
X4724Y5512D02*
X4724Y5512D01*
X4724Y5512D02*
Y5980D01*
X4129Y5499D02*
X4546Y5082D01*
X4903D01*
X5320Y5499D01*
X3466Y4802D02*
X5019D01*
X5221Y5004D01*
X2959Y4522D02*
X5321D01*
X4724Y3543D02*
Y3937D01*
X9449Y7087D02*
Y7874D01*
X6186Y7760D02*
X6693Y8268D01*
X6657Y10021D02*
X6693Y10057D01*
Y10236D01*
X6657Y8304D02*
Y10021D01*
X9019Y8304D02*
X9449Y7874D01*
X8304Y9806D02*
Y10021D01*
Y9806D02*
X9055Y9055D01*
X7695Y10630D02*
X8304Y10021D01*
X5118Y10630D02*
X7695D01*
X7174Y9143D02*
X7874Y9843D01*
X7174Y9055D02*
Y9143D01*
X7974Y9055D02*
X8368Y8661D01*
X8661D01*
X6657Y8304D02*
X8411D01*
X8483Y8231D01*
X8840D01*
X8912Y8304D01*
X9019D01*
X14456Y6582D02*
X14567Y6693D01*
X13902Y6582D02*
X14456D01*
X13902D02*
Y7851D01*
X13080Y6704D02*
Y7874D01*
X12992Y6616D02*
X13080Y6704D01*
X12992Y6582D02*
Y6616D01*
X24703Y3050D02*
Y3150D01*
X23917Y2264D02*
X24703Y3050D01*
X23917Y1181D02*
Y2264D01*
X28051Y1181D02*
Y4232D01*
X29035Y1181D02*
Y3051D01*
X27587Y5878D02*
X27953Y5513D01*
X25503Y3150D02*
X26378D01*
X26083Y1181D02*
Y2570D01*
X25503Y3150D02*
X26083Y2570D01*
X21949Y492D02*
Y1181D01*
X18012Y492D02*
X21949D01*
X17815Y689D02*
X18012Y492D01*
X17815Y689D02*
Y1181D01*
X24508Y492D02*
X25123Y1107D01*
X21949Y492D02*
X24508D01*
X13270Y3430D02*
X13719D01*
X14173Y3883D01*
Y5118D01*
X10249Y5524D02*
Y6707D01*
X14961Y5118D02*
X16535Y6693D01*
X11454Y7696D02*
Y8052D01*
X11417Y7660D02*
X11454Y7696D01*
X10844Y8661D02*
X11454Y8052D01*
X20079Y10630D02*
X20586Y10123D01*
X16142Y7874D02*
X17323D01*
X12157Y9221D02*
X19519D01*
X11990Y9055D02*
X12157Y9221D01*
X19519D02*
X19685Y9055D01*
X15354Y8661D02*
X16142Y7874D01*
X13386Y8661D02*
X15354D01*
X12205D02*
X12990D01*
X13270Y8941D01*
X13080Y8355D02*
X13386Y8661D01*
X13080Y7874D02*
Y8355D01*
X9449Y7874D02*
Y8268D01*
X9843Y8661D01*
X9055Y9055D02*
X11990D01*
X9843Y8661D02*
X10844D01*
X13681Y1181D02*
X14468Y1969D01*
X15354D01*
X15468Y2082D01*
X15470D01*
X15354Y2362D02*
X15468Y2476D01*
X15470Y2082D02*
X15584Y2196D01*
X17323Y7874D02*
X17946Y7251D01*
X20180Y6794D02*
X22340D01*
X19750Y6972D02*
X20002Y7224D01*
X19470Y7088D02*
X19886Y7504D01*
X16535Y6693D02*
X19075D01*
X19886Y7504D02*
X20890D01*
X20965Y7579D01*
X11417Y7247D02*
Y7660D01*
Y7247D02*
X12082Y6582D01*
X11024Y5512D02*
Y6478D01*
X10987Y6515D02*
X11024Y6478D01*
X10987Y7838D02*
X11024Y7874D01*
X10987Y6515D02*
Y7838D01*
X11417Y6693D02*
X11528Y6582D01*
X12082D01*
X12990Y3150D02*
X12992D01*
X12990D02*
X13270Y3430D01*
X33071Y20472D02*
Y22835D01*
X28168Y18934D02*
X31532D01*
X33071Y20472D01*
X29626Y23720D02*
X36024D01*
X17717Y15748D02*
X21654D01*
X29626Y23720D01*
X14567Y17160D02*
Y20475D01*
X14961Y17323D02*
Y20472D01*
X27916Y18682D02*
X28168Y18934D01*
X24409Y11811D02*
X27916Y15318D01*
Y18682D01*
X22047Y9055D02*
Y9234D01*
X26949Y8657D02*
X27563D01*
X29205Y9520D02*
X29921Y8803D01*
X26726Y7655D02*
X26764D01*
X26949Y7878D02*
X27156Y8085D01*
X26995Y9149D02*
X27859D01*
X27953Y9055D01*
X26874Y9843D02*
X28882D01*
X26772Y9548D02*
X28068D01*
X26764Y7655D02*
X26982Y7437D01*
X27221D01*
X27440Y7655D01*
X28172D01*
X28557Y7878D02*
X29130D01*
X27855Y8365D02*
X29251D01*
X27563Y8657D02*
X27855Y8365D01*
X27156Y8085D02*
X28350D01*
X28557Y7878D01*
X30454Y8013D02*
X32816D01*
X30120Y7679D02*
X30454Y8013D01*
X29840Y8130D02*
X29921Y8212D01*
Y8803D01*
X29560Y7700D02*
Y8056D01*
X29251Y8365D02*
X29560Y8056D01*
X26503Y7433D02*
X26541D01*
X28918Y6657D02*
X29170Y6909D01*
X28136Y5083D02*
X30120Y7066D01*
X29170Y6909D02*
Y7310D01*
X27587Y5878D02*
X28086Y6377D01*
X29034D01*
X29840Y7182D01*
X27829Y6657D02*
X28918D01*
X28670Y7157D02*
X28740Y7087D01*
X29840Y7182D02*
Y8130D01*
X30120Y7066D02*
Y7679D01*
X29170Y7310D02*
X29560Y7700D01*
X31102Y7087D02*
X33169Y5020D01*
Y1181D02*
Y5020D01*
X30709Y1673D02*
Y6301D01*
X31496Y4724D02*
X32185Y4035D01*
Y1181D02*
Y4035D01*
X11713Y1181D02*
X11811Y1280D01*
Y1575D01*
X12205Y1969D01*
X12992D01*
X14178Y2362D02*
X15354D01*
X13527Y1711D02*
X14178Y2362D01*
X13411Y1991D02*
X14176Y2756D01*
X12992Y1969D02*
X13015Y1991D01*
X13411D01*
X12697Y1181D02*
X13227Y1711D01*
X13527D01*
X14176Y2756D02*
X15357D01*
X15468Y2476D02*
X15473D01*
X15584Y2196D02*
X15589D01*
X22512Y5047D02*
X22705D01*
D29*
X30315Y16113D02*
X34495D01*
X30315Y12992D02*
Y16113D01*
Y16535D01*
X33495Y7013D02*
Y8013D01*
Y6413D02*
Y7013D01*
Y6413D02*
X33895Y6013D01*
X34495Y16113D02*
X34795Y15813D01*
Y14813D02*
Y15813D01*
X34895Y4513D02*
Y6013D01*
X35695D01*
X33895D02*
X34895D01*
X35227Y16113D02*
X36122Y17008D01*
X34495Y16113D02*
X35227D01*
X27554Y12603D02*
X27554D01*
X33495Y8013D02*
Y9013D01*
X34895Y4513D02*
X34995Y4413D01*
X37090D01*
X37195Y4518D01*
X34795Y14813D02*
X35095Y14513D01*
X36695D01*
X33495Y10013D02*
Y11013D01*
X36695Y14513D02*
X37195Y14013D01*
Y4518D02*
Y14013D01*
X33495Y9013D02*
Y10013D01*
Y11013D02*
Y11313D01*
X32446Y12603D02*
X32585Y12743D01*
Y12223D02*
Y12743D01*
Y12223D02*
X33495Y11313D01*
X30315Y12992D02*
X30564Y12743D01*
X32585D01*
X31671Y15223D02*
X33495D01*
X31409Y14961D02*
X31671Y15223D01*
X27554Y12603D02*
X32446D01*
X27554D02*
X27958Y12200D01*
X3556Y5512D02*
Y6249D01*
X2743Y7492D02*
Y7874D01*
Y7492D02*
X3136Y7099D01*
X8661Y6287D02*
X9399D01*
X9449Y6337D01*
X8318Y5131D02*
X9055D01*
X4738Y8255D02*
X5906D01*
D30*
X34895Y7013D02*
X35695D01*
X34295D02*
X34895D01*
Y8013D02*
X35695D01*
X34295D02*
X34895D01*
Y9013D02*
X35695D01*
X34295D02*
X34895D01*
Y10013D02*
X35695D01*
X34295D02*
X34895D01*
Y11013D02*
X35695D01*
X34295D02*
X34895D01*
X35595Y11913D02*
X35695Y12013D01*
X33595Y11913D02*
X35595D01*
X33495Y12013D02*
X33595Y11913D01*
X33495Y12013D02*
Y12743D01*
D31*
X35695Y5013D02*
X36395D01*
X36595Y5213D01*
X36295Y13913D02*
X36595Y13613D01*
Y5213D02*
Y13613D01*
X34405Y12743D02*
Y13723D01*
X34595Y13913D01*
X36295D01*
D32*
X33495Y12743D02*
Y15223D01*
X7579Y26083D02*
Y27165D01*
X7087Y25591D02*
X7579Y26083D01*
X5906Y25591D02*
X7087D01*
X5610Y25886D02*
X5906Y25591D01*
X5610Y25886D02*
Y27165D01*
X7087Y25591D02*
X10236D01*
X10728Y26083D01*
Y27165D01*
X12697Y25886D02*
Y27165D01*
Y25886D02*
X12992Y25591D01*
D33*
X9843Y22047D02*
X10098Y22303D01*
X11437Y22047D02*
X12185D01*
Y22303D02*
Y22854D01*
X11437Y21280D02*
Y21791D01*
X11850Y20866D02*
X12205D01*
X11437Y21280D02*
X11850Y20866D01*
X13005D02*
Y21641D01*
X12598Y22047D02*
X13005Y21641D01*
X12185Y22047D02*
X12598D01*
X12185Y21791D02*
X12461D01*
X12598Y21654D01*
X10630Y21260D02*
Y22303D01*
X10098D02*
X10630D01*
X11437D01*
X12598Y22047D02*
Y22441D01*
X13024Y22866D01*
X13942D01*
X11220Y23819D02*
X11220D01*
X10324Y20079D02*
X11111Y19291D01*
X10630Y21260D02*
X11811Y20079D01*
X12598Y20472D02*
Y21654D01*
X11811Y20079D02*
X12205D01*
X12598Y20472D01*
X11811Y23228D02*
X12185Y22854D01*
X11220Y23819D02*
X11811Y23228D01*
D34*
X12697Y27165D02*
Y27657D01*
X12992Y27953D01*
X15748D01*
X15846Y27854D01*
Y27165D02*
Y27854D01*
X20472Y27953D02*
X20965Y27461D01*
Y27165D02*
Y27461D01*
X20472Y27953D02*
X25295D01*
X26083Y27165D01*
X25295Y27953D02*
X30709D01*
X31201Y27461D01*
Y27165D02*
Y27461D01*
X15748Y27953D02*
X20472D01*
X21949Y26280D02*
Y27165D01*
X21654Y25984D02*
X26772D01*
X27067Y26280D01*
Y27165D01*
X26772Y25984D02*
X31890D01*
X32185Y26280D02*
Y27165D01*
X16831Y26870D02*
Y27165D01*
X21260Y25591D02*
X21949Y26280D01*
X16831Y26870D02*
X18110Y25591D01*
X21260D01*
X31890Y25984D02*
X32185Y26280D01*
X36024Y23819D02*
X36122D01*
X30709Y27953D02*
X36614D01*
X38189Y26378D01*
Y19075D02*
Y26378D01*
X36122Y17008D02*
X38189Y19075D01*
X31890Y25984D02*
X33858D01*
X36024Y23819D01*
X34646Y20472D02*
Y22343D01*
X32677Y18504D02*
X34646Y20472D01*
X30709Y18504D02*
X32677D01*
X28740Y16535D02*
X30709Y18504D01*
X28740Y14567D02*
Y16535D01*
X34646Y22343D02*
X36024Y23720D01*
D35*
X11220Y23819D02*
X12992Y25591D01*
X9843Y23819D02*
X11220D01*
X12992Y25591D02*
X15965D01*
X36122Y23720D02*
Y23819D01*
X17618Y18819D02*
X19429Y17008D01*
X20571D01*
X15965Y25591D02*
X18504Y23051D01*
X17618Y18819D02*
X18504Y19705D01*
Y23051D01*
D36*
X36122Y17008D02*
X36201Y16929D01*
D37*
X4631Y2962D02*
X4431D01*
X4331Y2862D01*
Y2462D01*
X4431Y2362D01*
X4631D01*
X4731Y2462D01*
Y2862D01*
X4631Y2962D01*
X4931Y2762D02*
X5130Y2362D01*
X5330Y2762D01*
X5830Y2362D02*
X5630D01*
X5530Y2462D01*
Y2662D01*
X5630Y2762D01*
X5830D01*
X5930Y2662D01*
Y2562D01*
X5530D01*
X6130Y2762D02*
Y2362D01*
Y2562D01*
X6230Y2662D01*
X6330Y2762D01*
X6430D01*
X6730Y2362D02*
X6930D01*
X6830D01*
Y2962D01*
X6730D01*
X7330Y2362D02*
X7530D01*
X7630Y2462D01*
Y2662D01*
X7530Y2762D01*
X7330D01*
X7230Y2662D01*
Y2462D01*
X7330Y2362D01*
X7930Y2762D02*
X8129D01*
X8229Y2662D01*
Y2362D01*
X7930D01*
X7830Y2462D01*
X7930Y2562D01*
X8229D01*
X8829Y2962D02*
Y2362D01*
X8529D01*
X8429Y2462D01*
Y2662D01*
X8529Y2762D01*
X8829D01*
X4331Y1575D02*
Y2175D01*
X4631D01*
X4731Y2075D01*
Y1875D01*
X4631Y1775D01*
X4331D01*
X4531D02*
X4731Y1575D01*
X4931Y2175D02*
Y1775D01*
X5130Y1575D01*
X5330Y1775D01*
Y2175D01*
X5530Y1575D02*
Y1975D01*
X5730Y2175D01*
X5930Y1975D01*
Y1575D01*
Y1875D01*
X5530D01*
X7130Y2175D02*
X6730D01*
Y1875D01*
X6930Y1975D01*
X7030D01*
X7130Y1875D01*
Y1675D01*
X7030Y1575D01*
X6830D01*
X6730Y1675D01*
X7330Y1575D02*
X7530D01*
X7430D01*
Y2175D01*
X7330Y2075D01*
X7830Y1575D02*
X8030D01*
X7930D01*
Y2175D01*
X7830Y2075D01*
X8329D02*
X8429Y2175D01*
X8629D01*
X8729Y2075D01*
Y1975D01*
X8629Y1875D01*
X8529D01*
X8629D01*
X8729Y1775D01*
Y1675D01*
X8629Y1575D01*
X8429D01*
X8329Y1675D01*
X4331Y787D02*
Y1187D01*
X4531Y1387D01*
X4731Y1187D01*
Y787D01*
Y1087D01*
X4331D01*
X4931Y1287D02*
X5030Y1387D01*
X5230D01*
X5330Y1287D01*
Y887D01*
X5230Y787D01*
X5030D01*
X4931Y887D01*
Y1287D01*
X5530D02*
X5630Y1387D01*
X5830D01*
X5930Y1287D01*
Y887D01*
X5830Y787D01*
X5630D01*
X5530Y887D01*
Y1287D01*
X6130D02*
X6230Y1387D01*
X6430D01*
X6530Y1287D01*
Y1187D01*
X6430Y1087D01*
X6330D01*
X6430D01*
X6530Y987D01*
Y887D01*
X6430Y787D01*
X6230D01*
X6130Y887D01*
X6730Y1287D02*
X6830Y1387D01*
X7030D01*
X7130Y1287D01*
Y1187D01*
X7030Y1087D01*
X6930D01*
X7030D01*
X7130Y987D01*
Y887D01*
X7030Y787D01*
X6830D01*
X6730Y887D01*
D38*
X3150Y22244D02*
D03*
D39*
X6496Y22835D02*
D03*
D40*
X34154Y1181D02*
D03*
X33169D02*
D03*
X32185D02*
D03*
X23917D02*
D03*
X22933D02*
D03*
X21949D02*
D03*
X29035D02*
D03*
X28051D02*
D03*
X27067D02*
D03*
X13681D02*
D03*
X12697D02*
D03*
X11713D02*
D03*
X18799D02*
D03*
X17815D02*
D03*
X16831D02*
D03*
X26083Y27165D02*
D03*
X27067D02*
D03*
X28051D02*
D03*
X20965D02*
D03*
X21949D02*
D03*
X22933D02*
D03*
X15846D02*
D03*
X16831D02*
D03*
X17815D02*
D03*
X5610D02*
D03*
X6594D02*
D03*
X7579D02*
D03*
X10728D02*
D03*
X11713D02*
D03*
X12697D02*
D03*
X31201D02*
D03*
X32185D02*
D03*
X33169D02*
D03*
D41*
X31201Y1181D02*
D03*
X20965D02*
D03*
X26083D02*
D03*
X10728D02*
D03*
X15846D02*
D03*
X29035Y27165D02*
D03*
X23917D02*
D03*
X18799D02*
D03*
X8563D02*
D03*
X13681D02*
D03*
X34154D02*
D03*
D42*
X2953Y2362D02*
D03*
X36417D02*
D03*
Y25984D02*
D03*
X2953D02*
D03*
D43*
X36122Y23819D02*
D03*
X20571D02*
D03*
Y17008D02*
D03*
X36122D02*
D03*
X2067Y12008D02*
D03*
X17618D02*
D03*
Y18819D02*
D03*
X2067D02*
D03*
D44*
X35695Y12013D02*
D03*
Y5013D02*
D03*
Y6013D02*
D03*
Y7013D02*
D03*
Y8013D02*
D03*
Y9013D02*
D03*
Y10013D02*
D03*
Y11013D02*
D03*
D45*
Y13013D02*
D03*
D46*
X26090Y12099D02*
D03*
X27454Y10735D02*
D03*
D47*
X5512Y20079D02*
D03*
X6299D02*
D03*
X7087D02*
D03*
X7874D02*
D03*
X7087Y20866D02*
D03*
X6299D02*
D03*
X5512D02*
D03*
Y21654D02*
D03*
X6299D02*
D03*
X7087D02*
D03*
X7874Y20866D02*
D03*
Y21654D02*
D03*
X30315Y16535D02*
D03*
X18898Y7874D02*
D03*
X22770Y9384D02*
D03*
X21897Y9693D02*
D03*
X21260Y10630D02*
D03*
X23622Y11024D02*
D03*
X21654Y8268D02*
D03*
X20965Y7579D02*
D03*
X20180Y6794D02*
D03*
X22514Y8268D02*
D03*
X22061Y9077D02*
D03*
X18504Y4724D02*
D03*
X17710Y3536D02*
D03*
X25591Y5448D02*
D03*
X26003Y4743D02*
D03*
X27165Y4724D02*
D03*
X27953Y5513D02*
D03*
X24409Y5118D02*
D03*
X23622Y5118D02*
D03*
Y3937D02*
D03*
X23498Y5815D02*
D03*
X21654Y2362D02*
D03*
X20866Y3150D02*
D03*
X25087Y4010D02*
D03*
X25068Y7087D02*
D03*
X27559Y3150D02*
D03*
X20079Y3937D02*
D03*
X19291Y4331D02*
D03*
X24409Y8661D02*
D03*
X34895Y8013D02*
D03*
Y7013D02*
D03*
X32895Y10013D02*
D03*
Y9013D02*
D03*
X11437Y21280D02*
D03*
X7874Y24016D02*
D03*
Y23228D02*
D03*
Y22441D02*
D03*
X7087D02*
D03*
X6299D02*
D03*
X5512D02*
D03*
Y23228D02*
D03*
X6299D02*
D03*
X7087D02*
D03*
Y24016D02*
D03*
X6299D02*
D03*
X5512D02*
D03*
X19685Y26378D02*
D03*
X33071Y22835D02*
D03*
X32816Y8013D02*
D03*
X37895Y5412D02*
D03*
X32895Y7013D02*
D03*
X10324Y20079D02*
D03*
X12598Y19291D02*
D03*
X11811Y23228D02*
D03*
X34895Y11013D02*
D03*
Y9013D02*
D03*
Y10013D02*
D03*
X32895Y11013D02*
D03*
X29921Y22835D02*
D03*
Y20472D02*
D03*
Y21260D02*
D03*
Y22047D02*
D03*
X30709Y22835D02*
D03*
X31496Y22441D02*
D03*
X31890Y21654D02*
D03*
X31102Y21260D02*
D03*
X31496Y20472D02*
D03*
X5512Y7480D02*
D03*
X7874Y7480D02*
D03*
X5906Y9843D02*
D03*
X12094Y7480D02*
D03*
X4724Y5512D02*
D03*
Y3937D02*
D03*
X7087Y9843D02*
D03*
X7874D02*
D03*
X8661Y8661D02*
D03*
X14567Y6693D02*
D03*
X28051Y4232D02*
D03*
X29035Y3051D02*
D03*
X26378Y3150D02*
D03*
X17323Y7874D02*
D03*
X20079Y10630D02*
D03*
X10249Y5524D02*
D03*
X14961Y5118D02*
D03*
X11024Y7874D02*
D03*
X12205Y8661D02*
D03*
X19685Y9055D02*
D03*
X11417Y6693D02*
D03*
X12992Y3150D02*
D03*
X28740Y14567D02*
D03*
X30709Y11024D02*
D03*
X27953Y9055D02*
D03*
X28172Y7655D02*
D03*
X29130Y7878D02*
D03*
X28740Y7087D02*
D03*
X31102Y7087D02*
D03*
X30709Y6301D02*
D03*
X31496Y4724D02*
D03*
M02*
