M48
;Layer_Color=9474304
;FILE_FORMAT=2:4
INCH,LZ
;TYPE=PLATED
T1F00S00C0.0280
T2F00S00C0.0300
T3F00S00C0.0354
T4F00S00C0.0400
T5F00S00C0.0591
T6F00S00C0.0984
%
T01
X004724Y003937
Y005512
X010249Y005524
X014961Y005118
X018504Y004724
X019291Y004331
X020079Y003937
X020866Y00315
X01771Y003536
X012992Y00315
X021654Y002362
X023622Y003937
Y005118
X024409Y005118
X025591Y005448
X026003Y004743
X027165Y004724
X028051Y004232
X027953Y005513
X027559Y00315
X026378Y00315
X025087Y00401
X029035Y003051
X031496Y004724
X037895Y005412
X034895Y007013
Y008013
Y009013
Y010013
Y011013
X032895
Y010013
Y009013
X032816Y008013
X032895Y007013
X031102Y007087
X030709Y006301
X02874Y007087
X028172Y007655
X02913Y007878
X027953Y009055
X024409Y008661
X025068Y007087
X023498Y005815
X022514Y008268
X021654
X022061Y009077
X021897Y009693
X02277Y009384
X023622Y011024
X030709
X02874Y014567
X030315Y016535
X029921Y020472
Y02126
X031102
X031496Y020472
X012598Y019291
X010324Y020079
X011437Y02128
X007874Y020866
Y020079
X007087
X006299
Y020866
X007087
Y009843
X007874
X005906
X008661Y008661
X007874Y00748
X011024Y007874
X012094Y00748
X012205Y008661
X011417Y006693
X014567
X017323Y007874
X018898
X019685Y009055
X020079Y01063
X02126
X020965Y007579
X02018Y006794
X005512Y00748
Y020079
Y020866
Y021654
Y022441
Y023228
Y024016
X006299
X007087
X007874
Y023228
Y022441
Y021654
X007087
X006299
Y022441
X007087
Y023228
X006299
X011811
X019685Y026378
X029921Y022835
X030709
X031496Y022441
X03189Y021654
X033071Y022835
X029921Y022047
T02
X02609Y012099
X027454Y010735
T03
X035695Y005013
Y006013
Y007013
Y008013
Y009013
Y010013
Y011013
Y012013
Y013013
T04
X010728Y001181
X011713
X012697
X013681
X015846
X016831
X017815
X018799
X020965
X021949
X022933
X023917
X026083
X027067
X028051
X029035
X031201
X032185
X033169
X034154
X00561Y027165
X006594
X007579
X008563
X010728
X011713
X012697
X013681
X015846
X016831
X017815
X018799
X020965
X021949
X022933
X023917
X026083
X027067
X028051
X029035
X031201
X032185
X033169
X034154
T05
X036122Y017008
X020571
X017618Y018819
Y012008
X002067
Y018819
X020571Y023819
X036122
T06
X002953Y002362
X036417
X002953Y025984
X036417
M30
